<mxfile host="app.diagrams.net" agent="Mozilla/5.0 (Windows NT 10.0; Win64; x64) AppleWebKit/537.36 (KHTML, like Gecko) Chrome/138.0.0.0 Safari/537.36" version="28.0.6" pages="3">
  <diagram name="Versiones" id="938uo8ROVbB9LNtA9XBv">
    <mxGraphModel dx="1965" dy="1243" grid="1" gridSize="10" guides="1" tooltips="1" connect="1" arrows="1" fold="1" page="1" pageScale="1" pageWidth="827" pageHeight="1169" math="0" shadow="0">
      <root>
        <mxCell id="0" />
        <mxCell id="1" parent="0" />
        <mxCell id="KAwFPLsBhcUulmADAOpw-1" value="" style="shape=table;startSize=0;container=1;collapsible=0;childLayout=tableLayout;fontFamily=Roboto;fontSource=https://fonts.googleapis.com/css?family=Roboto;fontSize=16;strokeWidth=1;align=left;" vertex="1" parent="1">
          <mxGeometry x="310" y="291" width="1180" height="200" as="geometry" />
        </mxCell>
        <mxCell id="KAwFPLsBhcUulmADAOpw-2" value="" style="shape=partialRectangle;collapsible=0;dropTarget=0;pointerEvents=0;fillColor=none;top=0;left=0;bottom=0;right=0;points=[[0,0.5],[1,0.5]];portConstraint=eastwest;fontFamily=Roboto;fontSource=https://fonts.googleapis.com/css?family=Roboto;fontSize=16;strokeWidth=1;" vertex="1" parent="KAwFPLsBhcUulmADAOpw-1">
          <mxGeometry width="1180" height="40" as="geometry" />
        </mxCell>
        <mxCell id="KAwFPLsBhcUulmADAOpw-3" value="&lt;b&gt;REALIZADOR&lt;/b&gt;" style="shape=partialRectangle;html=1;whiteSpace=wrap;connectable=0;overflow=hidden;fillColor=none;top=0;left=0;bottom=0;right=0;pointerEvents=1;fontFamily=Roboto;fontSource=https://fonts.googleapis.com/css?family=Roboto;fontSize=16;strokeWidth=1;" vertex="1" parent="KAwFPLsBhcUulmADAOpw-2">
          <mxGeometry width="416" height="40" as="geometry">
            <mxRectangle width="416" height="40" as="alternateBounds" />
          </mxGeometry>
        </mxCell>
        <mxCell id="KAwFPLsBhcUulmADAOpw-4" value="FECHA" style="shape=partialRectangle;html=1;whiteSpace=wrap;connectable=0;overflow=hidden;fillColor=none;top=0;left=0;bottom=0;right=0;pointerEvents=1;fontFamily=Roboto;fontSource=https://fonts.googleapis.com/css?family=Roboto;fontSize=16;strokeWidth=1;fontStyle=1" vertex="1" parent="KAwFPLsBhcUulmADAOpw-2">
          <mxGeometry x="416" width="127" height="40" as="geometry">
            <mxRectangle width="127" height="40" as="alternateBounds" />
          </mxGeometry>
        </mxCell>
        <mxCell id="KAwFPLsBhcUulmADAOpw-5" value="&lt;b&gt;VERSION&lt;/b&gt;" style="shape=partialRectangle;html=1;whiteSpace=wrap;connectable=0;overflow=hidden;fillColor=none;top=0;left=0;bottom=0;right=0;pointerEvents=1;fontFamily=Roboto;fontSource=https://fonts.googleapis.com/css?family=Roboto;fontSize=16;strokeWidth=1;" vertex="1" parent="KAwFPLsBhcUulmADAOpw-2">
          <mxGeometry x="543" width="94" height="40" as="geometry">
            <mxRectangle width="94" height="40" as="alternateBounds" />
          </mxGeometry>
        </mxCell>
        <mxCell id="KAwFPLsBhcUulmADAOpw-6" value="&lt;b&gt;COMENTARIO&lt;/b&gt;" style="shape=partialRectangle;html=1;whiteSpace=wrap;connectable=0;overflow=hidden;fillColor=none;top=0;left=0;bottom=0;right=0;pointerEvents=1;fontFamily=Roboto;fontSource=https://fonts.googleapis.com/css?family=Roboto;fontSize=16;strokeWidth=1;" vertex="1" parent="KAwFPLsBhcUulmADAOpw-2">
          <mxGeometry x="637" width="543" height="40" as="geometry">
            <mxRectangle width="543" height="40" as="alternateBounds" />
          </mxGeometry>
        </mxCell>
        <mxCell id="KAwFPLsBhcUulmADAOpw-7" value="" style="shape=partialRectangle;collapsible=0;dropTarget=0;pointerEvents=0;fillColor=none;top=0;left=0;bottom=0;right=0;points=[[0,0.5],[1,0.5]];portConstraint=eastwest;fontFamily=Roboto;fontSource=https://fonts.googleapis.com/css?family=Roboto;fontSize=16;strokeWidth=1;" vertex="1" parent="KAwFPLsBhcUulmADAOpw-1">
          <mxGeometry y="40" width="1180" height="40" as="geometry" />
        </mxCell>
        <mxCell id="KAwFPLsBhcUulmADAOpw-8" value="Christopher Valencia Mendoza" style="shape=partialRectangle;html=1;whiteSpace=wrap;connectable=0;overflow=hidden;fillColor=none;top=0;left=0;bottom=0;right=0;pointerEvents=1;fontFamily=Roboto;fontSource=https://fonts.googleapis.com/css?family=Roboto;fontSize=16;strokeWidth=1;" vertex="1" parent="KAwFPLsBhcUulmADAOpw-7">
          <mxGeometry width="416" height="40" as="geometry">
            <mxRectangle width="416" height="40" as="alternateBounds" />
          </mxGeometry>
        </mxCell>
        <mxCell id="KAwFPLsBhcUulmADAOpw-9" value="24/07/2025" style="shape=partialRectangle;html=1;whiteSpace=wrap;connectable=0;overflow=hidden;fillColor=none;top=0;left=0;bottom=0;right=0;pointerEvents=1;fontFamily=Roboto;fontSource=https://fonts.googleapis.com/css?family=Roboto;fontSize=16;strokeWidth=1;" vertex="1" parent="KAwFPLsBhcUulmADAOpw-7">
          <mxGeometry x="416" width="127" height="40" as="geometry">
            <mxRectangle width="127" height="40" as="alternateBounds" />
          </mxGeometry>
        </mxCell>
        <mxCell id="KAwFPLsBhcUulmADAOpw-10" value="1.0" style="shape=partialRectangle;html=1;whiteSpace=wrap;connectable=0;overflow=hidden;fillColor=none;top=0;left=0;bottom=0;right=0;pointerEvents=1;fontFamily=Roboto;fontSource=https://fonts.googleapis.com/css?family=Roboto;fontSize=16;strokeWidth=1;" vertex="1" parent="KAwFPLsBhcUulmADAOpw-7">
          <mxGeometry x="543" width="94" height="40" as="geometry">
            <mxRectangle width="94" height="40" as="alternateBounds" />
          </mxGeometry>
        </mxCell>
        <mxCell id="KAwFPLsBhcUulmADAOpw-11" value="CreaciÃ³n del Documento" style="shape=partialRectangle;html=1;whiteSpace=wrap;connectable=0;overflow=hidden;fillColor=none;top=0;left=0;bottom=0;right=0;pointerEvents=1;fontFamily=Roboto;fontSource=https://fonts.googleapis.com/css?family=Roboto;fontSize=16;strokeWidth=1;align=left;" vertex="1" parent="KAwFPLsBhcUulmADAOpw-7">
          <mxGeometry x="637" width="543" height="40" as="geometry">
            <mxRectangle width="543" height="40" as="alternateBounds" />
          </mxGeometry>
        </mxCell>
        <mxCell id="KAwFPLsBhcUulmADAOpw-12" value="" style="shape=partialRectangle;collapsible=0;dropTarget=0;pointerEvents=0;fillColor=none;top=0;left=0;bottom=0;right=0;points=[[0,0.5],[1,0.5]];portConstraint=eastwest;fontFamily=Roboto;fontSource=https://fonts.googleapis.com/css?family=Roboto;fontSize=16;strokeWidth=1;" vertex="1" parent="KAwFPLsBhcUulmADAOpw-1">
          <mxGeometry y="80" width="1180" height="40" as="geometry" />
        </mxCell>
        <mxCell id="KAwFPLsBhcUulmADAOpw-13" value="Christopher Valencia Mendoza" style="shape=partialRectangle;html=1;whiteSpace=wrap;connectable=0;overflow=hidden;fillColor=none;top=0;left=0;bottom=0;right=0;pointerEvents=1;fontFamily=Roboto;fontSource=https://fonts.googleapis.com/css?family=Roboto;fontSize=16;strokeWidth=1;" vertex="1" parent="KAwFPLsBhcUulmADAOpw-12">
          <mxGeometry width="416" height="40" as="geometry">
            <mxRectangle width="416" height="40" as="alternateBounds" />
          </mxGeometry>
        </mxCell>
        <mxCell id="KAwFPLsBhcUulmADAOpw-14" value="24/07/2025" style="shape=partialRectangle;html=1;whiteSpace=wrap;connectable=0;overflow=hidden;fillColor=none;top=0;left=0;bottom=0;right=0;pointerEvents=1;fontFamily=Roboto;fontSource=https://fonts.googleapis.com/css?family=Roboto;fontSize=16;strokeWidth=1;" vertex="1" parent="KAwFPLsBhcUulmADAOpw-12">
          <mxGeometry x="416" width="127" height="40" as="geometry">
            <mxRectangle width="127" height="40" as="alternateBounds" />
          </mxGeometry>
        </mxCell>
        <mxCell id="KAwFPLsBhcUulmADAOpw-15" value="2.0" style="shape=partialRectangle;html=1;whiteSpace=wrap;connectable=0;overflow=hidden;fillColor=none;top=0;left=0;bottom=0;right=0;pointerEvents=1;fontFamily=Roboto;fontSource=https://fonts.googleapis.com/css?family=Roboto;fontSize=16;strokeWidth=1;" vertex="1" parent="KAwFPLsBhcUulmADAOpw-12">
          <mxGeometry x="543" width="94" height="40" as="geometry">
            <mxRectangle width="94" height="40" as="alternateBounds" />
          </mxGeometry>
        </mxCell>
        <mxCell id="KAwFPLsBhcUulmADAOpw-16" value="Diagrama de Secuencia - Consulta de Tarjeta de Datos de Tarjeta de ATM" style="shape=partialRectangle;html=1;whiteSpace=wrap;connectable=0;overflow=hidden;fillColor=none;top=0;left=0;bottom=0;right=0;pointerEvents=1;fontFamily=Roboto;fontSource=https://fonts.googleapis.com/css?family=Roboto;fontSize=16;strokeWidth=1;align=left;" vertex="1" parent="KAwFPLsBhcUulmADAOpw-12">
          <mxGeometry x="637" width="543" height="40" as="geometry">
            <mxRectangle width="543" height="40" as="alternateBounds" />
          </mxGeometry>
        </mxCell>
        <mxCell id="KAwFPLsBhcUulmADAOpw-17" style="shape=partialRectangle;collapsible=0;dropTarget=0;pointerEvents=0;fillColor=none;top=0;left=0;bottom=0;right=0;points=[[0,0.5],[1,0.5]];portConstraint=eastwest;fontFamily=Roboto;fontSource=https://fonts.googleapis.com/css?family=Roboto;fontSize=16;strokeWidth=1;" vertex="1" parent="KAwFPLsBhcUulmADAOpw-1">
          <mxGeometry y="120" width="1180" height="40" as="geometry" />
        </mxCell>
        <mxCell id="KAwFPLsBhcUulmADAOpw-18" value="" style="shape=partialRectangle;html=1;whiteSpace=wrap;connectable=0;overflow=hidden;fillColor=none;top=0;left=0;bottom=0;right=0;pointerEvents=1;fontFamily=Roboto;fontSource=https://fonts.googleapis.com/css?family=Roboto;fontSize=16;strokeWidth=1;" vertex="1" parent="KAwFPLsBhcUulmADAOpw-17">
          <mxGeometry width="416" height="40" as="geometry">
            <mxRectangle width="416" height="40" as="alternateBounds" />
          </mxGeometry>
        </mxCell>
        <mxCell id="KAwFPLsBhcUulmADAOpw-19" value="" style="shape=partialRectangle;html=1;whiteSpace=wrap;connectable=0;overflow=hidden;fillColor=none;top=0;left=0;bottom=0;right=0;pointerEvents=1;fontFamily=Roboto;fontSource=https://fonts.googleapis.com/css?family=Roboto;fontSize=16;strokeWidth=1;" vertex="1" parent="KAwFPLsBhcUulmADAOpw-17">
          <mxGeometry x="416" width="127" height="40" as="geometry">
            <mxRectangle width="127" height="40" as="alternateBounds" />
          </mxGeometry>
        </mxCell>
        <mxCell id="KAwFPLsBhcUulmADAOpw-20" value="" style="shape=partialRectangle;html=1;whiteSpace=wrap;connectable=0;overflow=hidden;fillColor=none;top=0;left=0;bottom=0;right=0;pointerEvents=1;fontFamily=Roboto;fontSource=https://fonts.googleapis.com/css?family=Roboto;fontSize=16;strokeWidth=1;" vertex="1" parent="KAwFPLsBhcUulmADAOpw-17">
          <mxGeometry x="543" width="94" height="40" as="geometry">
            <mxRectangle width="94" height="40" as="alternateBounds" />
          </mxGeometry>
        </mxCell>
        <mxCell id="KAwFPLsBhcUulmADAOpw-21" value="" style="shape=partialRectangle;html=1;whiteSpace=wrap;connectable=0;overflow=hidden;fillColor=none;top=0;left=0;bottom=0;right=0;pointerEvents=1;fontFamily=Roboto;fontSource=https://fonts.googleapis.com/css?family=Roboto;fontSize=16;strokeWidth=1;align=left;" vertex="1" parent="KAwFPLsBhcUulmADAOpw-17">
          <mxGeometry x="637" width="543" height="40" as="geometry">
            <mxRectangle width="543" height="40" as="alternateBounds" />
          </mxGeometry>
        </mxCell>
        <mxCell id="KAwFPLsBhcUulmADAOpw-22" style="shape=partialRectangle;collapsible=0;dropTarget=0;pointerEvents=0;fillColor=none;top=0;left=0;bottom=0;right=0;points=[[0,0.5],[1,0.5]];portConstraint=eastwest;fontFamily=Roboto;fontSource=https://fonts.googleapis.com/css?family=Roboto;fontSize=16;strokeWidth=1;" vertex="1" parent="KAwFPLsBhcUulmADAOpw-1">
          <mxGeometry y="160" width="1180" height="40" as="geometry" />
        </mxCell>
        <mxCell id="KAwFPLsBhcUulmADAOpw-23" style="shape=partialRectangle;html=1;whiteSpace=wrap;connectable=0;overflow=hidden;fillColor=none;top=0;left=0;bottom=0;right=0;pointerEvents=1;fontFamily=Roboto;fontSource=https://fonts.googleapis.com/css?family=Roboto;fontSize=16;strokeWidth=1;" vertex="1" parent="KAwFPLsBhcUulmADAOpw-22">
          <mxGeometry width="416" height="40" as="geometry">
            <mxRectangle width="416" height="40" as="alternateBounds" />
          </mxGeometry>
        </mxCell>
        <mxCell id="KAwFPLsBhcUulmADAOpw-24" style="shape=partialRectangle;html=1;whiteSpace=wrap;connectable=0;overflow=hidden;fillColor=none;top=0;left=0;bottom=0;right=0;pointerEvents=1;fontFamily=Roboto;fontSource=https://fonts.googleapis.com/css?family=Roboto;fontSize=16;strokeWidth=1;" vertex="1" parent="KAwFPLsBhcUulmADAOpw-22">
          <mxGeometry x="416" width="127" height="40" as="geometry">
            <mxRectangle width="127" height="40" as="alternateBounds" />
          </mxGeometry>
        </mxCell>
        <mxCell id="KAwFPLsBhcUulmADAOpw-25" style="shape=partialRectangle;html=1;whiteSpace=wrap;connectable=0;overflow=hidden;fillColor=none;top=0;left=0;bottom=0;right=0;pointerEvents=1;fontFamily=Roboto;fontSource=https://fonts.googleapis.com/css?family=Roboto;fontSize=16;strokeWidth=1;" vertex="1" parent="KAwFPLsBhcUulmADAOpw-22">
          <mxGeometry x="543" width="94" height="40" as="geometry">
            <mxRectangle width="94" height="40" as="alternateBounds" />
          </mxGeometry>
        </mxCell>
        <mxCell id="KAwFPLsBhcUulmADAOpw-26" style="shape=partialRectangle;html=1;whiteSpace=wrap;connectable=0;overflow=hidden;fillColor=none;top=0;left=0;bottom=0;right=0;pointerEvents=1;fontFamily=Roboto;fontSource=https://fonts.googleapis.com/css?family=Roboto;fontSize=16;strokeWidth=1;align=left;" vertex="1" parent="KAwFPLsBhcUulmADAOpw-22">
          <mxGeometry x="637" width="543" height="40" as="geometry">
            <mxRectangle width="543" height="40" as="alternateBounds" />
          </mxGeometry>
        </mxCell>
        <mxCell id="KAwFPLsBhcUulmADAOpw-27" value="&lt;font style=&quot;font-size: 20px;&quot;&gt;CONTROL DE VERSIONES&lt;/font&gt;" style="rounded=0;whiteSpace=wrap;html=1;fontColor=#FFFFFF;labelBackgroundColor=none;fillColor=#36393D;fontSize=20;align=left;" vertex="1" parent="1">
          <mxGeometry x="310" y="250" width="1180" height="41" as="geometry" />
        </mxCell>
      </root>
    </mxGraphModel>
  </diagram>
  <diagram id="frkRDei-CcCvEwHwvsAJ" name="MFS ATM">
    <mxGraphModel dx="1209" dy="-7418" grid="1" gridSize="10" guides="1" tooltips="1" connect="1" arrows="1" fold="1" page="1" pageScale="1" pageWidth="827" pageHeight="1169" math="0" shadow="0">
      <root>
        <mxCell id="0" />
        <mxCell id="1" parent="0" />
        <mxCell id="oPqHsAZIXMs3M_WpcZgG-1" value="&lt;font style=&quot;font-size: 14px;&quot;&gt;PLARD Consulta Datos de Tarjeta&lt;/font&gt;" style="shape=umlFrame;whiteSpace=wrap;html=1;pointerEvents=0;recursiveResize=0;container=1;collapsible=0;width=310;height=44;fontStyle=1;fontSize=13;strokeColor=#000000;strokeWidth=2;" vertex="1" parent="1">
          <mxGeometry x="11" y="9137" width="1799" height="2310" as="geometry" />
        </mxCell>
        <mxCell id="oPqHsAZIXMs3M_WpcZgG-2" style="edgeStyle=orthogonalEdgeStyle;rounded=0;orthogonalLoop=1;jettySize=auto;html=1;curved=0;exitX=0.505;exitY=0.805;exitDx=0;exitDy=0;exitPerimeter=0;entryX=0.503;entryY=0.802;entryDx=0;entryDy=0;entryPerimeter=0;" edge="1" parent="oPqHsAZIXMs3M_WpcZgG-1">
          <mxGeometry relative="1" as="geometry">
            <Array as="points">
              <mxPoint x="956" y="1857" />
            </Array>
            <mxPoint x="956.1600000000001" y="1855.119999999999" as="sourcePoint" />
            <mxPoint x="1128.48" y="1856.8379999999997" as="targetPoint" />
          </mxGeometry>
        </mxCell>
        <mxCell id="oPqHsAZIXMs3M_WpcZgG-3" style="edgeStyle=orthogonalEdgeStyle;rounded=0;orthogonalLoop=1;jettySize=auto;html=1;curved=0;exitX=0.502;exitY=0.805;exitDx=0;exitDy=0;exitPerimeter=0;entryX=0.513;entryY=0.886;entryDx=0;entryDy=0;entryPerimeter=0;" edge="1" parent="oPqHsAZIXMs3M_WpcZgG-1">
          <mxGeometry relative="1" as="geometry">
            <Array as="points">
              <mxPoint x="887" y="1855" />
            </Array>
            <mxPoint x="789.3199999999999" y="1855.119999999999" as="sourcePoint" />
            <mxPoint x="955.0799999999999" y="1854.384" as="targetPoint" />
          </mxGeometry>
        </mxCell>
        <mxCell id="oPqHsAZIXMs3M_WpcZgG-4" style="edgeStyle=orthogonalEdgeStyle;rounded=0;orthogonalLoop=1;jettySize=auto;html=1;curved=0;entryX=0.509;entryY=0.875;entryDx=0;entryDy=0;entryPerimeter=0;exitX=0.51;exitY=0.879;exitDx=0;exitDy=0;exitPerimeter=0;" edge="1" parent="oPqHsAZIXMs3M_WpcZgG-1">
          <mxGeometry relative="1" as="geometry">
            <mxPoint x="790.6000000000001" y="2016.735999999999" as="sourcePoint" />
            <mxPoint x="1481.4580000000005" y="2017" as="targetPoint" />
            <Array as="points" />
          </mxGeometry>
        </mxCell>
        <mxCell id="oPqHsAZIXMs3M_WpcZgG-5" style="edgeStyle=orthogonalEdgeStyle;rounded=0;orthogonalLoop=1;jettySize=auto;html=1;curved=0;entryX=0.502;entryY=0.389;entryDx=0;entryDy=0;entryPerimeter=0;dashed=1;dashPattern=8 8;exitX=0.501;exitY=0.386;exitDx=0;exitDy=0;exitPerimeter=0;" edge="1" parent="oPqHsAZIXMs3M_WpcZgG-1">
          <mxGeometry relative="1" as="geometry">
            <mxPoint x="1140.16" y="926.134" as="sourcePoint" />
            <mxPoint x="966" y="925.996000000001" as="targetPoint" />
            <Array as="points" />
          </mxGeometry>
        </mxCell>
        <mxCell id="oPqHsAZIXMs3M_WpcZgG-6" style="edgeStyle=orthogonalEdgeStyle;rounded=0;orthogonalLoop=1;jettySize=auto;html=1;curved=0;entryX=0.502;entryY=0.389;entryDx=0;entryDy=0;entryPerimeter=0;dashed=1;dashPattern=8 8;exitX=0.511;exitY=0.389;exitDx=0;exitDy=0;exitPerimeter=0;" edge="1" parent="oPqHsAZIXMs3M_WpcZgG-1" source="oPqHsAZIXMs3M_WpcZgG-9">
          <mxGeometry relative="1" as="geometry">
            <mxPoint x="974.3199999999999" y="928.6900000000005" as="sourcePoint" />
            <mxPoint x="795.3199999999999" y="925.5760000000009" as="targetPoint" />
            <Array as="points">
              <mxPoint x="949" y="926" />
              <mxPoint x="949" y="926" />
            </Array>
          </mxGeometry>
        </mxCell>
        <mxCell id="oPqHsAZIXMs3M_WpcZgG-7" value="Obtiene informaciÃ³n de RIBs&amp;nbsp;" style="edgeLabel;html=1;align=center;verticalAlign=middle;resizable=0;points=[];fontColor=default;" vertex="1" connectable="0" parent="oPqHsAZIXMs3M_WpcZgG-6">
          <mxGeometry x="0.1847" relative="1" as="geometry">
            <mxPoint x="-406" y="-12" as="offset" />
          </mxGeometry>
        </mxCell>
        <mxCell id="oPqHsAZIXMs3M_WpcZgG-8" style="edgeStyle=orthogonalEdgeStyle;rounded=0;orthogonalLoop=1;jettySize=auto;html=1;curved=0;" edge="1" parent="oPqHsAZIXMs3M_WpcZgG-1">
          <mxGeometry relative="1" as="geometry">
            <mxPoint x="948.62" y="843" as="sourcePoint" />
            <mxPoint x="1128.62" y="843" as="targetPoint" />
          </mxGeometry>
        </mxCell>
        <mxCell id="oPqHsAZIXMs3M_WpcZgG-9" value="&lt;b&gt;&amp;lt;&amp;lt;Repositorio&amp;gt;&amp;gt;&lt;/b&gt;&lt;div&gt;&lt;b&gt;Redis Stream&lt;/b&gt;&lt;/div&gt;" style="shape=umlLifeline;perimeter=lifelinePerimeter;whiteSpace=wrap;html=1;container=1;dropTarget=0;collapsible=0;recursiveResize=0;outlineConnect=0;portConstraint=eastwest;newEdgeStyle={&quot;edgeStyle&quot;:&quot;elbowEdgeStyle&quot;,&quot;elbow&quot;:&quot;vertical&quot;,&quot;curved&quot;:0,&quot;rounded&quot;:0};align=center;" vertex="1" parent="oPqHsAZIXMs3M_WpcZgG-1">
          <mxGeometry x="880.36" y="76" width="160" height="2184" as="geometry" />
        </mxCell>
        <mxCell id="oPqHsAZIXMs3M_WpcZgG-10" value="" style="html=1;points=[[0,0,0,0,5],[0,1,0,0,-5],[1,0,0,0,5],[1,1,0,0,-5]];perimeter=orthogonalPerimeter;outlineConnect=0;targetShapes=umlLifeline;portConstraint=eastwest;newEdgeStyle={&quot;curved&quot;:0,&quot;rounded&quot;:0};labelBackgroundColor=#E8A6A6;fillColor=default;strokeColor=default;" vertex="1" parent="oPqHsAZIXMs3M_WpcZgG-9">
          <mxGeometry x="75" y="754.25" width="10" height="135.75" as="geometry" />
        </mxCell>
        <mxCell id="oPqHsAZIXMs3M_WpcZgG-11" style="edgeStyle=orthogonalEdgeStyle;rounded=0;orthogonalLoop=1;jettySize=auto;html=1;curved=0;exitX=0.498;exitY=0.846;exitDx=0;exitDy=0;exitPerimeter=0;entryX=0.501;entryY=0.843;entryDx=0;entryDy=0;entryPerimeter=0;dashed=1;dashPattern=8 8;" edge="1" parent="oPqHsAZIXMs3M_WpcZgG-1">
          <mxGeometry relative="1" as="geometry">
            <mxPoint x="797.1599999999999" y="1945.112000000001" as="targetPoint" />
            <mxPoint x="960.04" y="1944.6640000000007" as="sourcePoint" />
            <Array as="points" />
          </mxGeometry>
        </mxCell>
        <mxCell id="oPqHsAZIXMs3M_WpcZgG-12" value="Obtiene informaciÃ³n del cliente" style="edgeLabel;html=1;align=center;verticalAlign=middle;resizable=0;points=[];fontColor=default;labelBackgroundColor=none;" vertex="1" connectable="0" parent="oPqHsAZIXMs3M_WpcZgG-11">
          <mxGeometry x="0.3975" y="1" relative="1" as="geometry">
            <mxPoint x="30" y="-12" as="offset" />
          </mxGeometry>
        </mxCell>
        <mxCell id="oPqHsAZIXMs3M_WpcZgG-13" style="edgeStyle=orthogonalEdgeStyle;rounded=0;orthogonalLoop=1;jettySize=auto;html=1;curved=0;exitX=0.51;exitY=0.843;exitDx=0;exitDy=0;exitPerimeter=0;entryX=0.508;entryY=0.839;entryDx=0;entryDy=0;entryPerimeter=0;dashed=1;dashPattern=8 8;" edge="1" parent="oPqHsAZIXMs3M_WpcZgG-1">
          <mxGeometry relative="1" as="geometry">
            <mxPoint x="621.788" y="1944.7659999999996" as="targetPoint" />
            <mxPoint x="793.6000000000001" y="1945.112000000001" as="sourcePoint" />
            <Array as="points" />
          </mxGeometry>
        </mxCell>
        <mxCell id="oPqHsAZIXMs3M_WpcZgG-14" value="Obtiene informaciÃ³n del cliente" style="edgeLabel;html=1;align=center;verticalAlign=middle;resizable=0;points=[];fontColor=default;labelBackgroundColor=none;" vertex="1" connectable="0" parent="oPqHsAZIXMs3M_WpcZgG-13">
          <mxGeometry x="0.3975" y="1" relative="1" as="geometry">
            <mxPoint x="33" y="-12" as="offset" />
          </mxGeometry>
        </mxCell>
        <mxCell id="oPqHsAZIXMs3M_WpcZgG-15" style="edgeStyle=orthogonalEdgeStyle;rounded=0;orthogonalLoop=1;jettySize=auto;html=1;curved=0;exitX=0.515;exitY=0.446;exitDx=0;exitDy=0;exitPerimeter=0;entryX=0.504;entryY=0.448;entryDx=0;entryDy=0;entryPerimeter=0;dashed=1;dashPattern=8 8;" edge="1" parent="oPqHsAZIXMs3M_WpcZgG-1">
          <mxGeometry relative="1" as="geometry">
            <mxPoint x="794.6399999999999" y="1061.4320000000007" as="targetPoint" />
            <mxPoint x="1488.4299999999998" y="1061.7739999999994" as="sourcePoint" />
            <Array as="points" />
          </mxGeometry>
        </mxCell>
        <mxCell id="oPqHsAZIXMs3M_WpcZgG-16" style="edgeStyle=orthogonalEdgeStyle;rounded=0;orthogonalLoop=1;jettySize=auto;html=1;curved=0;exitX=0.499;exitY=0.446;exitDx=0;exitDy=0;exitPerimeter=0;entryX=0.504;entryY=0.448;entryDx=0;entryDy=0;entryPerimeter=0;dashed=1;dashPattern=8 8;" edge="1" parent="oPqHsAZIXMs3M_WpcZgG-1">
          <mxGeometry relative="1" as="geometry">
            <mxPoint x="1490.7999999999997" y="1061.2520000000004" as="targetPoint" />
            <mxPoint x="1668" y="1061.344000000001" as="sourcePoint" />
            <Array as="points">
              <mxPoint x="1640.1599999999999" y="1061.8199999999997" />
              <mxPoint x="1620.1599999999999" y="1060.8199999999997" />
            </Array>
          </mxGeometry>
        </mxCell>
        <mxCell id="oPqHsAZIXMs3M_WpcZgG-17" style="edgeStyle=orthogonalEdgeStyle;rounded=0;orthogonalLoop=1;jettySize=auto;html=1;curved=0;exitX=0.498;exitY=0.387;exitDx=0;exitDy=0;exitPerimeter=0;dashed=1;dashPattern=8 8;" edge="1" parent="oPqHsAZIXMs3M_WpcZgG-1">
          <mxGeometry relative="1" as="geometry">
            <mxPoint x="1138.3200000000002" y="926.25" as="targetPoint" />
            <mxPoint x="1314.75" y="926.3279999999995" as="sourcePoint" />
            <Array as="points">
              <mxPoint x="1137.3200000000002" y="926.25" />
            </Array>
          </mxGeometry>
        </mxCell>
        <mxCell id="oPqHsAZIXMs3M_WpcZgG-18" value="EnvÃ­a respuesta con&amp;nbsp;&lt;div&gt;informaciÃ³n de RIBs&lt;/div&gt;" style="edgeLabel;html=1;align=center;verticalAlign=middle;resizable=0;points=[];fontColor=default;labelBackgroundColor=none;" vertex="1" connectable="0" parent="oPqHsAZIXMs3M_WpcZgG-17">
          <mxGeometry x="0.3975" y="1" relative="1" as="geometry">
            <mxPoint x="30" y="-18" as="offset" />
          </mxGeometry>
        </mxCell>
        <mxCell id="oPqHsAZIXMs3M_WpcZgG-19" style="edgeStyle=orthogonalEdgeStyle;rounded=0;orthogonalLoop=1;jettySize=auto;html=1;curved=0;entryX=0.501;entryY=0.387;entryDx=0;entryDy=0;entryPerimeter=0;dashed=1;dashPattern=8 8;exitX=0.499;exitY=0.389;exitDx=0;exitDy=0;exitPerimeter=0;" edge="1" parent="oPqHsAZIXMs3M_WpcZgG-1">
          <mxGeometry relative="1" as="geometry">
            <mxPoint x="794.8400000000001" y="925.5760000000009" as="sourcePoint" />
            <mxPoint x="623.6610000000001" y="925.0779999999995" as="targetPoint" />
            <Array as="points">
              <mxPoint x="723" y="926" />
            </Array>
          </mxGeometry>
        </mxCell>
        <mxCell id="oPqHsAZIXMs3M_WpcZgG-20" style="edgeStyle=orthogonalEdgeStyle;rounded=0;orthogonalLoop=1;jettySize=auto;html=1;curved=0;exitX=0.509;exitY=0.905;exitDx=0;exitDy=0;exitPerimeter=0;entryX=0.508;entryY=0.906;entryDx=0;entryDy=0;entryPerimeter=0;dashed=1;dashPattern=8 8;" edge="1" parent="oPqHsAZIXMs3M_WpcZgG-1">
          <mxGeometry relative="1" as="geometry">
            <mxPoint x="794.28" y="2082.7039999999997" as="targetPoint" />
            <mxPoint x="1487.4580000000005" y="2082.8199999999997" as="sourcePoint" />
            <Array as="points" />
          </mxGeometry>
        </mxCell>
        <mxCell id="oPqHsAZIXMs3M_WpcZgG-21" style="edgeStyle=orthogonalEdgeStyle;rounded=0;orthogonalLoop=1;jettySize=auto;html=1;curved=0;exitX=0.5;exitY=0.99;exitDx=0;exitDy=0;exitPerimeter=0;dashed=1;dashPattern=8 8;" edge="1" parent="oPqHsAZIXMs3M_WpcZgG-1">
          <mxGeometry relative="1" as="geometry">
            <mxPoint x="312" y="2215.460000000001" as="sourcePoint" />
            <mxPoint x="95.77777777777806" y="2215.5555555555547" as="targetPoint" />
            <Array as="points">
              <mxPoint x="287" y="2216" />
              <mxPoint x="277" y="2215" />
            </Array>
          </mxGeometry>
        </mxCell>
        <mxCell id="oPqHsAZIXMs3M_WpcZgG-22" value="Solicita NIP de la tarjeta" style="edgeLabel;html=1;align=center;verticalAlign=middle;resizable=0;points=[];labelBackgroundColor=none;" vertex="1" connectable="0" parent="oPqHsAZIXMs3M_WpcZgG-21">
          <mxGeometry x="-0.0083" y="-2" relative="1" as="geometry">
            <mxPoint x="-10" y="-7" as="offset" />
          </mxGeometry>
        </mxCell>
        <mxCell id="oPqHsAZIXMs3M_WpcZgG-23" value="&lt;div&gt;&lt;span style=&quot;background-color: initial;&quot;&gt;&amp;lt;&amp;lt;Queque&amp;gt;&amp;gt;&lt;/span&gt;&lt;br&gt;&lt;/div&gt;&lt;font color=&quot;#000000&quot;&gt;MQ 390&lt;/font&gt;" style="shape=umlLifeline;perimeter=lifelinePerimeter;whiteSpace=wrap;html=1;container=1;dropTarget=0;collapsible=0;recursiveResize=0;outlineConnect=0;portConstraint=eastwest;newEdgeStyle={&quot;edgeStyle&quot;:&quot;elbowEdgeStyle&quot;,&quot;elbow&quot;:&quot;vertical&quot;,&quot;curved&quot;:0,&quot;rounded&quot;:0};align=center;labelBorderColor=none;fontStyle=1" vertex="1" parent="oPqHsAZIXMs3M_WpcZgG-1">
          <mxGeometry x="1405" y="76.25" width="162" height="2194" as="geometry" />
        </mxCell>
        <mxCell id="oPqHsAZIXMs3M_WpcZgG-24" style="edgeStyle=orthogonalEdgeStyle;rounded=0;orthogonalLoop=1;jettySize=auto;html=1;curved=0;" edge="1" parent="oPqHsAZIXMs3M_WpcZgG-1">
          <mxGeometry relative="1" as="geometry">
            <mxPoint x="1125" y="843.25" as="sourcePoint" />
            <mxPoint x="1305" y="843.25" as="targetPoint" />
          </mxGeometry>
        </mxCell>
        <mxCell id="oPqHsAZIXMs3M_WpcZgG-25" value="&lt;font&gt;Consultar&amp;nbsp;&lt;span style=&quot;background-color: initial;&quot;&gt;API PLARD&lt;/span&gt;&lt;/font&gt;" style="edgeLabel;html=1;align=center;verticalAlign=middle;resizable=0;points=[];labelBackgroundColor=none;fontStyle=0;fontColor=default;" vertex="1" connectable="0" parent="oPqHsAZIXMs3M_WpcZgG-24">
          <mxGeometry x="-0.3434" y="-2" relative="1" as="geometry">
            <mxPoint x="35" y="-12" as="offset" />
          </mxGeometry>
        </mxCell>
        <mxCell id="oPqHsAZIXMs3M_WpcZgG-26" style="edgeStyle=orthogonalEdgeStyle;rounded=0;orthogonalLoop=1;jettySize=auto;html=1;curved=0;exitX=0.502;exitY=0.839;exitDx=0;exitDy=0;exitPerimeter=0;entryX=0.51;entryY=0.877;entryDx=0;entryDy=0;entryPerimeter=0;dashed=1;dashPattern=8 8;" edge="1" parent="oPqHsAZIXMs3M_WpcZgG-1">
          <mxGeometry relative="1" as="geometry">
            <mxPoint x="308.9000000000001" y="1945.058000000001" as="targetPoint" />
            <mxPoint x="618.8220000000001" y="1944.7659999999996" as="sourcePoint" />
            <Array as="points" />
          </mxGeometry>
        </mxCell>
        <mxCell id="oPqHsAZIXMs3M_WpcZgG-27" value="Obtiene informaciÃ³n del cliente" style="edgeLabel;html=1;align=center;verticalAlign=middle;resizable=0;points=[];fontColor=default;labelBackgroundColor=none;" vertex="1" connectable="0" parent="oPqHsAZIXMs3M_WpcZgG-26">
          <mxGeometry x="0.3975" y="1" relative="1" as="geometry">
            <mxPoint x="46" y="-12" as="offset" />
          </mxGeometry>
        </mxCell>
        <mxCell id="oPqHsAZIXMs3M_WpcZgG-28" style="edgeStyle=orthogonalEdgeStyle;rounded=0;orthogonalLoop=1;jettySize=auto;html=1;curved=0;exitX=0.483;exitY=0.812;exitDx=0;exitDy=0;exitPerimeter=0;entryX=0.502;entryY=0.864;entryDx=0;entryDy=0;entryPerimeter=0;" edge="1" parent="oPqHsAZIXMs3M_WpcZgG-1">
          <mxGeometry relative="1" as="geometry">
            <Array as="points">
              <mxPoint x="1292" y="1856.25" />
            </Array>
            <mxPoint x="1131.2800000000002" y="1855.938" as="sourcePoint" />
            <mxPoint x="1305.07" y="1855.3860000000004" as="targetPoint" />
          </mxGeometry>
        </mxCell>
        <mxCell id="oPqHsAZIXMs3M_WpcZgG-29" style="edgeStyle=orthogonalEdgeStyle;rounded=0;orthogonalLoop=1;jettySize=auto;html=1;curved=0;entryX=0.502;entryY=0.463;entryDx=0;entryDy=0;entryPerimeter=0;dashed=1;dashPattern=8 8;exitX=0.504;exitY=0.447;exitDx=0;exitDy=0;exitPerimeter=0;" edge="1" parent="oPqHsAZIXMs3M_WpcZgG-1">
          <mxGeometry relative="1" as="geometry">
            <mxPoint x="790.6399999999999" y="1059.2479999999996" as="sourcePoint" />
            <mxPoint x="308.3800000000001" y="1062.3019999999997" as="targetPoint" />
            <Array as="points">
              <mxPoint x="791" y="1062" />
            </Array>
          </mxGeometry>
        </mxCell>
        <mxCell id="oPqHsAZIXMs3M_WpcZgG-30" value="Obtiene informacion Valida informacion solicitada de RIBs&amp;nbsp;" style="edgeLabel;html=1;align=center;verticalAlign=middle;resizable=0;points=[];fontColor=default;" vertex="1" connectable="0" parent="oPqHsAZIXMs3M_WpcZgG-29">
          <mxGeometry x="0.1847" relative="1" as="geometry">
            <mxPoint x="12" y="-15" as="offset" />
          </mxGeometry>
        </mxCell>
        <mxCell id="oPqHsAZIXMs3M_WpcZgG-31" style="edgeStyle=orthogonalEdgeStyle;rounded=0;orthogonalLoop=1;jettySize=auto;html=1;curved=0;exitX=0.505;exitY=0.906;exitDx=0;exitDy=0;exitPerimeter=0;entryX=0.477;entryY=0.894;entryDx=0;entryDy=0;entryPerimeter=0;dashed=1;dashPattern=8 8;" edge="1" parent="oPqHsAZIXMs3M_WpcZgG-1">
          <mxGeometry relative="1" as="geometry">
            <mxPoint x="308.6300000000001" y="2082.7960000000003" as="targetPoint" />
            <Array as="points" />
            <mxPoint x="790.7999999999997" y="2082.7040000000015" as="sourcePoint" />
          </mxGeometry>
        </mxCell>
        <mxCell id="oPqHsAZIXMs3M_WpcZgG-32" value="Obtiene informacion de la tarjeta del cliente" style="edgeLabel;html=1;align=center;verticalAlign=middle;resizable=0;points=[];labelBackgroundColor=none;" vertex="1" connectable="0" parent="oPqHsAZIXMs3M_WpcZgG-31">
          <mxGeometry x="0.1847" relative="1" as="geometry">
            <mxPoint x="-85" y="-777" as="offset" />
          </mxGeometry>
        </mxCell>
        <mxCell id="oPqHsAZIXMs3M_WpcZgG-33" value="&lt;b style=&quot;font-size: 11px;&quot;&gt;&amp;lt;&amp;lt;CaaS Integration Layer&amp;gt;&lt;span style=&quot;background-color: initial; font-size: 11px;&quot;&gt;&amp;gt;&lt;/span&gt;&lt;/b&gt;&lt;div style=&quot;&quot;&gt;&lt;span style=&quot;font-weight: 700; text-wrap: nowrap;&quot;&gt;card-data-retriever&lt;/span&gt;&lt;br&gt;&lt;/div&gt;" style="shape=umlLifeline;perimeter=lifelinePerimeter;whiteSpace=wrap;html=1;container=1;dropTarget=0;collapsible=0;recursiveResize=0;outlineConnect=0;portConstraint=eastwest;newEdgeStyle={&quot;edgeStyle&quot;:&quot;elbowEdgeStyle&quot;,&quot;elbow&quot;:&quot;vertical&quot;,&quot;curved&quot;:0,&quot;rounded&quot;:0};align=center;fontSize=11;" vertex="1" parent="oPqHsAZIXMs3M_WpcZgG-1">
          <mxGeometry x="1053" y="76.25" width="160" height="2194" as="geometry" />
        </mxCell>
        <mxCell id="oPqHsAZIXMs3M_WpcZgG-34" value="" style="html=1;points=[[0,0,0,0,5],[0,1,0,0,-5],[1,0,0,0,5],[1,1,0,0,-5]];perimeter=orthogonalPerimeter;outlineConnect=0;targetShapes=umlLifeline;portConstraint=eastwest;newEdgeStyle={&quot;curved&quot;:0,&quot;rounded&quot;:0};labelBackgroundColor=#E8A6A6;fillColor=default;strokeColor=default;" vertex="1" parent="oPqHsAZIXMs3M_WpcZgG-33">
          <mxGeometry x="74.62" y="754" width="10" height="136" as="geometry" />
        </mxCell>
        <mxCell id="oPqHsAZIXMs3M_WpcZgG-35" value="" style="html=1;points=[[0,0,0,0,5],[0,1,0,0,-5],[1,0,0,0,5],[1,1,0,0,-5]];perimeter=orthogonalPerimeter;outlineConnect=0;targetShapes=umlLifeline;portConstraint=eastwest;newEdgeStyle={&quot;curved&quot;:0,&quot;rounded&quot;:0};labelBackgroundColor=default;fillColor=default;strokeColor=default;" vertex="1" parent="oPqHsAZIXMs3M_WpcZgG-1">
          <mxGeometry x="1128.62" y="1843.25" width="10" height="117.75" as="geometry" />
        </mxCell>
        <mxCell id="oPqHsAZIXMs3M_WpcZgG-36" style="edgeStyle=orthogonalEdgeStyle;rounded=0;orthogonalLoop=1;jettySize=auto;html=1;curved=0;exitX=0.511;exitY=0.88;exitDx=0;exitDy=0;exitPerimeter=0;entryX=0.504;entryY=0.866;entryDx=0;entryDy=0;entryPerimeter=0;dashed=1;dashPattern=8 8;" edge="1" parent="oPqHsAZIXMs3M_WpcZgG-1">
          <mxGeometry relative="1" as="geometry">
            <mxPoint x="1135.6399999999999" y="1944.594000000001" as="targetPoint" />
            <mxPoint x="1311.5099999999998" y="1944.9700000000012" as="sourcePoint" />
          </mxGeometry>
        </mxCell>
        <mxCell id="oPqHsAZIXMs3M_WpcZgG-37" value="EnvÃ­a respuesta con&amp;nbsp;&lt;div&gt;informaciÃ³n del cliente&lt;/div&gt;" style="edgeLabel;html=1;align=center;verticalAlign=middle;resizable=0;points=[];fontColor=default;labelBackgroundColor=none;" vertex="1" connectable="0" parent="oPqHsAZIXMs3M_WpcZgG-36">
          <mxGeometry x="0.3975" y="1" relative="1" as="geometry">
            <mxPoint x="32" y="-18" as="offset" />
          </mxGeometry>
        </mxCell>
        <mxCell id="oPqHsAZIXMs3M_WpcZgG-38" value="&lt;div style=&quot;&quot;&gt;&amp;lt;&amp;lt;Plataforma SaaS&amp;gt;&amp;gt;&lt;/div&gt;&lt;span style=&quot;&quot;&gt;PLARD&lt;/span&gt;" style="shape=umlLifeline;perimeter=lifelinePerimeter;whiteSpace=wrap;html=1;container=1;dropTarget=0;collapsible=0;recursiveResize=0;outlineConnect=0;portConstraint=eastwest;newEdgeStyle={&quot;edgeStyle&quot;:&quot;elbowEdgeStyle&quot;,&quot;elbow&quot;:&quot;vertical&quot;,&quot;curved&quot;:0,&quot;rounded&quot;:0};align=center;fontStyle=1" vertex="1" parent="oPqHsAZIXMs3M_WpcZgG-1">
          <mxGeometry x="1229.75" y="76.25" width="160" height="2194" as="geometry" />
        </mxCell>
        <mxCell id="oPqHsAZIXMs3M_WpcZgG-39" value="" style="html=1;points=[[0,0,0,0,5],[0,1,0,0,-5],[1,0,0,0,5],[1,1,0,0,-5]];perimeter=orthogonalPerimeter;outlineConnect=0;targetShapes=umlLifeline;portConstraint=eastwest;newEdgeStyle={&quot;curved&quot;:0,&quot;rounded&quot;:0};labelBackgroundColor=#E8A6A6;" vertex="1" parent="oPqHsAZIXMs3M_WpcZgG-38">
          <mxGeometry x="75.25" y="753" width="10" height="137" as="geometry" />
        </mxCell>
        <mxCell id="oPqHsAZIXMs3M_WpcZgG-40" value="&lt;b&gt;&amp;lt;&amp;lt;Componente&amp;gt;&amp;gt;&lt;/b&gt;&lt;div&gt;&lt;b&gt;Launcher&lt;/b&gt;&lt;/div&gt;" style="shape=umlLifeline;perimeter=lifelinePerimeter;whiteSpace=wrap;html=1;container=1;dropTarget=0;collapsible=0;recursiveResize=0;outlineConnect=0;portConstraint=eastwest;newEdgeStyle={&quot;edgeStyle&quot;:&quot;elbowEdgeStyle&quot;,&quot;elbow&quot;:&quot;vertical&quot;,&quot;curved&quot;:0,&quot;rounded&quot;:0};align=center;" vertex="1" parent="oPqHsAZIXMs3M_WpcZgG-1">
          <mxGeometry x="710" y="76" width="160" height="2184" as="geometry" />
        </mxCell>
        <mxCell id="oPqHsAZIXMs3M_WpcZgG-41" value="" style="html=1;points=[[0,0,0,0,5],[0,1,0,0,-5],[1,0,0,0,5],[1,1,0,0,-5]];perimeter=orthogonalPerimeter;outlineConnect=0;targetShapes=umlLifeline;portConstraint=eastwest;newEdgeStyle={&quot;curved&quot;:0,&quot;rounded&quot;:0};labelBackgroundColor=#E8A6A6;fillColor=default;strokeColor=default;" vertex="1" parent="oPqHsAZIXMs3M_WpcZgG-1">
          <mxGeometry x="786" y="1845" width="10" height="253" as="geometry" />
        </mxCell>
        <mxCell id="oPqHsAZIXMs3M_WpcZgG-42" value="&lt;span style=&quot;&quot;&gt;&lt;b&gt;&amp;lt;&amp;lt;Componente&amp;gt;&amp;gt;&lt;/b&gt;&lt;/span&gt;&lt;div style=&quot;&quot;&gt;&lt;b&gt;Agave&lt;/b&gt;&lt;/div&gt;" style="shape=umlLifeline;perimeter=lifelinePerimeter;whiteSpace=wrap;html=1;container=1;dropTarget=0;collapsible=0;recursiveResize=0;outlineConnect=0;portConstraint=eastwest;newEdgeStyle={&quot;edgeStyle&quot;:&quot;elbowEdgeStyle&quot;,&quot;elbow&quot;:&quot;vertical&quot;,&quot;curved&quot;:0,&quot;rounded&quot;:0};align=center;" vertex="1" parent="oPqHsAZIXMs3M_WpcZgG-1">
          <mxGeometry x="538" y="76" width="161" height="2194" as="geometry" />
        </mxCell>
        <mxCell id="oPqHsAZIXMs3M_WpcZgG-43" style="edgeStyle=orthogonalEdgeStyle;rounded=0;orthogonalLoop=1;jettySize=auto;html=1;curved=0;exitX=0.5;exitY=0.678;exitDx=0;exitDy=0;exitPerimeter=0;dashed=1;entryX=0.506;entryY=0.702;entryDx=0;entryDy=0;entryPerimeter=0;" edge="1" parent="oPqHsAZIXMs3M_WpcZgG-1">
          <mxGeometry relative="1" as="geometry">
            <mxPoint x="312" y="1579.0020000000004" as="sourcePoint" />
            <mxPoint x="96.4659999999999" y="1580.648000000001" as="targetPoint" />
            <Array as="points">
              <mxPoint x="304" y="1579" />
              <mxPoint x="304" y="1581" />
            </Array>
          </mxGeometry>
        </mxCell>
        <mxCell id="oPqHsAZIXMs3M_WpcZgG-44" value="&lt;span style=&quot;&quot;&gt;Muestra menÃº RED&amp;nbsp;&lt;/span&gt;&lt;div style=&quot;&quot;&gt;ATM&lt;/div&gt;" style="edgeLabel;html=1;align=center;verticalAlign=middle;resizable=0;points=[];labelBackgroundColor=none;" vertex="1" connectable="0" parent="oPqHsAZIXMs3M_WpcZgG-43">
          <mxGeometry x="-0.0083" y="-2" relative="1" as="geometry">
            <mxPoint x="-51" y="-13" as="offset" />
          </mxGeometry>
        </mxCell>
        <mxCell id="oPqHsAZIXMs3M_WpcZgG-45" style="edgeStyle=orthogonalEdgeStyle;rounded=0;orthogonalLoop=1;jettySize=auto;html=1;curved=0;exitX=1;exitY=0;exitDx=0;exitDy=5;exitPerimeter=0;" edge="1" parent="oPqHsAZIXMs3M_WpcZgG-1">
          <mxGeometry relative="1" as="geometry">
            <mxPoint x="299.5" y="184" as="targetPoint" />
            <Array as="points">
              <mxPoint x="245" y="184" />
              <mxPoint x="245" y="184" />
            </Array>
            <mxPoint x="90.5" y="176" as="sourcePoint" />
          </mxGeometry>
        </mxCell>
        <mxCell id="oPqHsAZIXMs3M_WpcZgG-46" value="&lt;b&gt;&amp;nbsp; Cliente Santander&lt;/b&gt;&lt;div&gt;&lt;b&gt;TDD&lt;/b&gt;&lt;/div&gt;" style="shape=umlLifeline;perimeter=lifelinePerimeter;whiteSpace=wrap;html=1;container=1;dropTarget=0;collapsible=0;recursiveResize=0;outlineConnect=0;portConstraint=eastwest;newEdgeStyle={&quot;edgeStyle&quot;:&quot;elbowEdgeStyle&quot;,&quot;elbow&quot;:&quot;vertical&quot;,&quot;curved&quot;:0,&quot;rounded&quot;:0};fillColor=#FFFFFF;strokeColor=#000000;align=center;gradientColor=#ffffff;" vertex="1" parent="oPqHsAZIXMs3M_WpcZgG-1">
          <mxGeometry x="10" y="70.5" width="161" height="2199.5" as="geometry" />
        </mxCell>
        <mxCell id="oPqHsAZIXMs3M_WpcZgG-47" value="" style="html=1;points=[[0,0,0,0,5],[0,1,0,0,-5],[1,0,0,0,5],[1,1,0,0,-5]];perimeter=orthogonalPerimeter;outlineConnect=0;targetShapes=umlLifeline;portConstraint=eastwest;newEdgeStyle={&quot;curved&quot;:0,&quot;rounded&quot;:0};" vertex="1" parent="oPqHsAZIXMs3M_WpcZgG-1">
          <mxGeometry x="85.5" y="171" width="10" height="2059" as="geometry" />
        </mxCell>
        <mxCell id="oPqHsAZIXMs3M_WpcZgG-48" style="edgeStyle=orthogonalEdgeStyle;rounded=0;orthogonalLoop=1;jettySize=auto;html=1;curved=0;exitX=0.5;exitY=0.678;exitDx=0;exitDy=0;exitPerimeter=0;dashed=1;entryX=0.498;entryY=0.639;entryDx=0;entryDy=0;entryPerimeter=0;" edge="1" parent="oPqHsAZIXMs3M_WpcZgG-1">
          <mxGeometry relative="1" as="geometry">
            <mxPoint x="315" y="1459.812" as="sourcePoint" />
            <mxPoint x="94.17800000000011" y="1459.5905000000002" as="targetPoint" />
            <Array as="points">
              <mxPoint x="303" y="1460" />
            </Array>
          </mxGeometry>
        </mxCell>
        <mxCell id="oPqHsAZIXMs3M_WpcZgG-49" value="&lt;span style=&quot;&quot;&gt;Muestra menÃº RED&amp;nbsp;&lt;/span&gt;&lt;div style=&quot;&quot;&gt;ATM&lt;/div&gt;" style="edgeLabel;html=1;align=center;verticalAlign=middle;resizable=0;points=[];labelBackgroundColor=none;" vertex="1" connectable="0" parent="oPqHsAZIXMs3M_WpcZgG-48">
          <mxGeometry x="-0.0083" y="-2" relative="1" as="geometry">
            <mxPoint x="-47" y="-13" as="offset" />
          </mxGeometry>
        </mxCell>
        <mxCell id="oPqHsAZIXMs3M_WpcZgG-50" style="edgeStyle=orthogonalEdgeStyle;rounded=0;orthogonalLoop=1;jettySize=auto;html=1;curved=0;exitX=0.5;exitY=0.631;exitDx=0;exitDy=0;exitPerimeter=0;entryX=0.499;entryY=0.646;entryDx=0;entryDy=0;entryPerimeter=0;" edge="1" parent="oPqHsAZIXMs3M_WpcZgG-1">
          <mxGeometry relative="1" as="geometry">
            <mxPoint x="309" y="1375.1240000000003" as="sourcePoint" />
            <mxPoint x="308.80999999999995" y="1404.4339999999997" as="targetPoint" />
            <Array as="points">
              <mxPoint x="510" y="1375" />
              <mxPoint x="510" y="1404" />
            </Array>
          </mxGeometry>
        </mxCell>
        <mxCell id="oPqHsAZIXMs3M_WpcZgG-51" style="edgeStyle=orthogonalEdgeStyle;rounded=0;orthogonalLoop=1;jettySize=auto;html=1;curved=0;exitX=0.507;exitY=0.6;exitDx=0;exitDy=0;exitPerimeter=0;entryX=0.503;entryY=0.615;entryDx=0;entryDy=0;entryPerimeter=0;" edge="1" parent="oPqHsAZIXMs3M_WpcZgG-1">
          <mxGeometry relative="1" as="geometry">
            <mxPoint x="308.3299999999999" y="1318.3999999999996" as="sourcePoint" />
            <mxPoint x="307.56999999999994" y="1347.7099999999991" as="targetPoint" />
            <Array as="points">
              <mxPoint x="510" y="1318" />
              <mxPoint x="510" y="1348" />
            </Array>
          </mxGeometry>
        </mxCell>
        <mxCell id="oPqHsAZIXMs3M_WpcZgG-52" style="edgeStyle=orthogonalEdgeStyle;rounded=0;orthogonalLoop=1;jettySize=auto;html=1;curved=0;entryX=0.5;entryY=0.583;entryDx=0;entryDy=0;entryPerimeter=0;" edge="1" parent="oPqHsAZIXMs3M_WpcZgG-1">
          <mxGeometry relative="1" as="geometry">
            <mxPoint x="306.5" y="1261" as="sourcePoint" />
            <mxPoint x="308" y="1285.1820000000007" as="targetPoint" />
            <Array as="points">
              <mxPoint x="510" y="1261" />
              <mxPoint x="510" y="1285" />
            </Array>
          </mxGeometry>
        </mxCell>
        <mxCell id="oPqHsAZIXMs3M_WpcZgG-53" value="Consulta Tabla Backend ATM&amp;nbsp;&lt;br&gt;&lt;div&gt;&lt;span style=&quot;background-color: initial;&quot;&gt;BINES&lt;/span&gt;&lt;span style=&quot;background-color: initial;&quot;&gt;&amp;nbsp;&lt;/span&gt;&lt;span style=&quot;background-color: initial;&quot;&gt;Exentos de comisiÃ³n&lt;/span&gt;&lt;/div&gt;" style="edgeLabel;html=1;align=center;verticalAlign=middle;resizable=0;points=[];labelBackgroundColor=none;" vertex="1" connectable="0" parent="oPqHsAZIXMs3M_WpcZgG-52">
          <mxGeometry x="-0.1011" y="-1" relative="1" as="geometry">
            <mxPoint x="-99" y="-15" as="offset" />
          </mxGeometry>
        </mxCell>
        <mxCell id="oPqHsAZIXMs3M_WpcZgG-54" value="" style="edgeStyle=elbowEdgeStyle;fontSize=12;html=1;endArrow=blockThin;endFill=1;rounded=0;exitX=0.501;exitY=0.42;exitDx=0;exitDy=0;exitPerimeter=0;entryX=0.493;entryY=0.415;entryDx=0;entryDy=0;entryPerimeter=0;" edge="1" parent="oPqHsAZIXMs3M_WpcZgG-1" source="oPqHsAZIXMs3M_WpcZgG-40">
          <mxGeometry width="160" relative="1" as="geometry">
            <mxPoint x="781.44" y="993.3460000000001" as="sourcePoint" />
            <mxPoint x="1481.8659999999995" y="993.7600000000002" as="targetPoint" />
            <Array as="points">
              <mxPoint x="847.32" y="981.3400000000007" />
            </Array>
          </mxGeometry>
        </mxCell>
        <mxCell id="oPqHsAZIXMs3M_WpcZgG-55" value="" style="edgeStyle=elbowEdgeStyle;fontSize=12;html=1;endArrow=blockThin;endFill=1;rounded=0;" edge="1" parent="oPqHsAZIXMs3M_WpcZgG-1">
          <mxGeometry width="160" relative="1" as="geometry">
            <mxPoint x="785.0028571428569" y="842.5" as="sourcePoint" />
            <mxPoint x="957.36" y="842.5" as="targetPoint" />
            <Array as="points">
              <mxPoint x="847.36" y="829.5" />
            </Array>
          </mxGeometry>
        </mxCell>
        <mxCell id="oPqHsAZIXMs3M_WpcZgG-56" value="" style="html=1;points=[[0,0,0,0,5],[0,1,0,0,-5],[1,0,0,0,5],[1,1,0,0,-5]];perimeter=orthogonalPerimeter;outlineConnect=0;targetShapes=umlLifeline;portConstraint=eastwest;newEdgeStyle={&quot;curved&quot;:0,&quot;rounded&quot;:0};labelBackgroundColor=#E8A6A6;fillColor=default;strokeColor=default;" vertex="1" parent="oPqHsAZIXMs3M_WpcZgG-1">
          <mxGeometry x="785" y="803" width="10" height="267" as="geometry" />
        </mxCell>
        <mxCell id="oPqHsAZIXMs3M_WpcZgG-57" value="&lt;div&gt;&lt;span style=&quot;background-color: initial;&quot;&gt;&amp;lt;&amp;lt;Altair 390&amp;gt;&amp;gt;&lt;/span&gt;&lt;br&gt;&lt;/div&gt;&lt;font color=&quot;#000000&quot;&gt;PAMPA&lt;/font&gt;" style="shape=umlLifeline;perimeter=lifelinePerimeter;whiteSpace=wrap;html=1;container=1;dropTarget=0;collapsible=0;recursiveResize=0;outlineConnect=0;portConstraint=eastwest;newEdgeStyle={&quot;edgeStyle&quot;:&quot;elbowEdgeStyle&quot;,&quot;elbow&quot;:&quot;vertical&quot;,&quot;curved&quot;:0,&quot;rounded&quot;:0};align=center;fontStyle=1" vertex="1" parent="oPqHsAZIXMs3M_WpcZgG-1">
          <mxGeometry x="1584.25" y="76.25" width="162" height="2184" as="geometry" />
        </mxCell>
        <mxCell id="oPqHsAZIXMs3M_WpcZgG-58" style="edgeStyle=orthogonalEdgeStyle;rounded=0;orthogonalLoop=1;jettySize=auto;html=1;curved=0;entryX=0.5;entryY=0.874;entryDx=0;entryDy=0;entryPerimeter=0;exitX=0.504;exitY=0.853;exitDx=0;exitDy=0;exitPerimeter=0;" edge="1" parent="oPqHsAZIXMs3M_WpcZgG-57">
          <mxGeometry relative="1" as="geometry">
            <mxPoint x="-103.60199999999986" y="1941.2720000000008" as="sourcePoint" />
            <mxPoint x="77" y="1940.8160000000007" as="targetPoint" />
            <Array as="points">
              <mxPoint x="-84" y="1941" />
            </Array>
          </mxGeometry>
        </mxCell>
        <mxCell id="oPqHsAZIXMs3M_WpcZgG-59" value="" style="html=1;points=[[0,0,0,0,5],[0,1,0,0,-5],[1,0,0,0,5],[1,1,0,0,-5]];perimeter=orthogonalPerimeter;outlineConnect=0;targetShapes=umlLifeline;portConstraint=eastwest;newEdgeStyle={&quot;curved&quot;:0,&quot;rounded&quot;:0};verticalAlign=top;" vertex="1" parent="oPqHsAZIXMs3M_WpcZgG-1">
          <mxGeometry x="1660" y="982.75" width="10" height="91.5" as="geometry" />
        </mxCell>
        <mxCell id="oPqHsAZIXMs3M_WpcZgG-60" value="&lt;div style=&quot;&quot;&gt;&lt;span style=&quot;background-color: initial;&quot;&gt;&amp;lt;&amp;lt;Canal&amp;gt;&amp;gt;&amp;nbsp;&amp;nbsp;&lt;/span&gt;&lt;/div&gt;&lt;div style=&quot;&quot;&gt;Cajero AutomÃ¡tico&lt;/div&gt;" style="shape=umlLifeline;perimeter=lifelinePerimeter;whiteSpace=wrap;html=1;container=1;dropTarget=0;collapsible=0;recursiveResize=0;outlineConnect=0;portConstraint=eastwest;newEdgeStyle={&quot;edgeStyle&quot;:&quot;elbowEdgeStyle&quot;,&quot;elbow&quot;:&quot;vertical&quot;,&quot;curved&quot;:0,&quot;rounded&quot;:0};align=center;fontStyle=1" vertex="1" parent="oPqHsAZIXMs3M_WpcZgG-1">
          <mxGeometry x="210" y="70.5" width="190" height="2199.5" as="geometry" />
        </mxCell>
        <mxCell id="oPqHsAZIXMs3M_WpcZgG-61" style="edgeStyle=orthogonalEdgeStyle;rounded=0;orthogonalLoop=1;jettySize=auto;html=1;curved=0;" edge="1" parent="oPqHsAZIXMs3M_WpcZgG-1">
          <mxGeometry relative="1" as="geometry">
            <mxPoint x="1479.6428571428564" y="993.25" as="sourcePoint" />
            <mxPoint x="1666" y="993.25" as="targetPoint" />
            <Array as="points">
              <mxPoint x="1619" y="993.25" />
            </Array>
          </mxGeometry>
        </mxCell>
        <mxCell id="oPqHsAZIXMs3M_WpcZgG-62" style="edgeStyle=orthogonalEdgeStyle;rounded=0;orthogonalLoop=1;jettySize=auto;html=1;curved=0;" edge="1" parent="oPqHsAZIXMs3M_WpcZgG-1">
          <mxGeometry relative="1" as="geometry">
            <mxPoint x="309.1666666666665" y="185" as="sourcePoint" />
            <mxPoint x="309.1666666666665" y="210" as="targetPoint" />
            <Array as="points">
              <mxPoint x="505" y="185" />
              <mxPoint x="505" y="210" />
            </Array>
          </mxGeometry>
        </mxCell>
        <mxCell id="oPqHsAZIXMs3M_WpcZgG-63" value="&lt;font style=&quot;font-size: 12px;&quot;&gt;Valida tarjeta&amp;nbsp;&lt;span style=&quot;background-color: initial;&quot;&gt;del cliente&lt;/span&gt;&lt;/font&gt;" style="edgeLabel;html=1;align=center;verticalAlign=middle;resizable=0;points=[];labelBackgroundColor=none;" vertex="1" connectable="0" parent="oPqHsAZIXMs3M_WpcZgG-62">
          <mxGeometry x="-0.0246" y="2" relative="1" as="geometry">
            <mxPoint x="-95" y="-19" as="offset" />
          </mxGeometry>
        </mxCell>
        <mxCell id="oPqHsAZIXMs3M_WpcZgG-64" value="&lt;span style=&quot;font-size: 12px;&quot;&gt;Ingresa tarjeta a ATM&lt;/span&gt;" style="edgeLabel;html=1;align=center;verticalAlign=middle;resizable=0;points=[];labelBackgroundColor=none;fontSize=12;" vertex="1" connectable="0" parent="oPqHsAZIXMs3M_WpcZgG-1">
          <mxGeometry x="210" y="171.00241379310376" as="geometry">
            <mxPoint x="-13" y="5" as="offset" />
          </mxGeometry>
        </mxCell>
        <mxCell id="oPqHsAZIXMs3M_WpcZgG-65" style="edgeStyle=orthogonalEdgeStyle;rounded=0;orthogonalLoop=1;jettySize=auto;html=1;curved=0;" edge="1" parent="oPqHsAZIXMs3M_WpcZgG-1">
          <mxGeometry relative="1" as="geometry">
            <mxPoint x="308.1666666666665" y="248" as="sourcePoint" />
            <mxPoint x="308.1666666666665" y="278" as="targetPoint" />
            <Array as="points">
              <mxPoint x="504" y="248" />
              <mxPoint x="504" y="278" />
            </Array>
          </mxGeometry>
        </mxCell>
        <mxCell id="oPqHsAZIXMs3M_WpcZgG-66" value="&lt;div&gt;Valida PAN de la tarjeta&lt;/div&gt;&lt;div&gt;[16 DIGITOS]&lt;/div&gt;" style="edgeLabel;html=1;align=center;verticalAlign=middle;resizable=0;points=[];labelBackgroundColor=none;" vertex="1" connectable="0" parent="oPqHsAZIXMs3M_WpcZgG-65">
          <mxGeometry x="-0.0083" y="-2" relative="1" as="geometry">
            <mxPoint x="-92" y="-27" as="offset" />
          </mxGeometry>
        </mxCell>
        <mxCell id="oPqHsAZIXMs3M_WpcZgG-67" value="Identifica tipo de Tarjeta&amp;nbsp;&lt;div style=&quot;&quot;&gt;(TDD, TDC, tarjeta otros bancos)&amp;nbsp;&lt;/div&gt;" style="edgeLabel;html=1;align=center;verticalAlign=middle;resizable=0;points=[];labelBackgroundColor=none;" vertex="1" connectable="0" parent="oPqHsAZIXMs3M_WpcZgG-1">
          <mxGeometry x="361" y="276.00222222222214" as="geometry">
            <mxPoint x="45" y="23" as="offset" />
          </mxGeometry>
        </mxCell>
        <mxCell id="oPqHsAZIXMs3M_WpcZgG-68" value="Consulta RIB de la tarjeta" style="edgeLabel;html=1;align=center;verticalAlign=middle;resizable=0;points=[];labelBackgroundColor=none;" vertex="1" connectable="0" parent="oPqHsAZIXMs3M_WpcZgG-1">
          <mxGeometry x="459.9961552140331" y="766.5047344081868" as="geometry" />
        </mxCell>
        <mxCell id="oPqHsAZIXMs3M_WpcZgG-69" value="EnvÃ­a solicitud de peticiÃ³n&amp;nbsp;&lt;div&gt;de consulta&lt;/div&gt;" style="edgeLabel;html=1;align=center;verticalAlign=middle;resizable=0;points=[];labelBackgroundColor=none;" vertex="1" connectable="0" parent="oPqHsAZIXMs3M_WpcZgG-1">
          <mxGeometry x="880.356155214033" y="825.0047344081868" as="geometry" />
        </mxCell>
        <mxCell id="oPqHsAZIXMs3M_WpcZgG-70" value="EnvÃ­a solicitud de peticiÃ³n&amp;nbsp;&lt;div&gt;de consulta&lt;/div&gt;" style="edgeLabel;html=1;align=center;verticalAlign=middle;resizable=0;points=[];labelBackgroundColor=none;" vertex="1" connectable="0" parent="oPqHsAZIXMs3M_WpcZgG-1">
          <mxGeometry x="709.996155214033" y="798.0047344081868" as="geometry" />
        </mxCell>
        <mxCell id="oPqHsAZIXMs3M_WpcZgG-71" value="&lt;font style=&quot;font-size: 15px;&quot;&gt;alt&lt;/font&gt;" style="shape=umlFrame;whiteSpace=wrap;html=1;pointerEvents=0;" vertex="1" parent="oPqHsAZIXMs3M_WpcZgG-1">
          <mxGeometry x="210" y="630" width="1550" height="1010" as="geometry" />
        </mxCell>
        <mxCell id="oPqHsAZIXMs3M_WpcZgG-72" style="edgeStyle=orthogonalEdgeStyle;rounded=0;orthogonalLoop=1;jettySize=auto;html=1;curved=0;exitX=0.5;exitY=0.666;exitDx=0;exitDy=0;exitPerimeter=0;entryX=0.5;entryY=0.682;entryDx=0;entryDy=0;entryPerimeter=0;" edge="1" parent="oPqHsAZIXMs3M_WpcZgG-1">
          <mxGeometry relative="1" as="geometry">
            <mxPoint x="309" y="1428.0239999999997" as="sourcePoint" />
            <mxPoint x="309" y="1459.2880000000007" as="targetPoint" />
            <Array as="points">
              <mxPoint x="510" y="1428" />
              <mxPoint x="510" y="1459" />
            </Array>
          </mxGeometry>
        </mxCell>
        <mxCell id="oPqHsAZIXMs3M_WpcZgG-73" value="Prepara menÃº RED" style="edgeLabel;html=1;align=center;verticalAlign=middle;resizable=0;points=[];" vertex="1" connectable="0" parent="oPqHsAZIXMs3M_WpcZgG-72">
          <mxGeometry x="-0.0083" y="-2" relative="1" as="geometry">
            <mxPoint x="-104" y="-23" as="offset" />
          </mxGeometry>
        </mxCell>
        <mxCell id="oPqHsAZIXMs3M_WpcZgG-74" style="edgeStyle=orthogonalEdgeStyle;rounded=0;orthogonalLoop=1;jettySize=auto;html=1;curved=0;" edge="1" parent="oPqHsAZIXMs3M_WpcZgG-1">
          <mxGeometry relative="1" as="geometry">
            <mxPoint x="308.9" y="1192" as="sourcePoint" />
            <mxPoint x="309" y="1224" as="targetPoint" />
            <Array as="points">
              <mxPoint x="510" y="1192" />
              <mxPoint x="510" y="1224" />
            </Array>
          </mxGeometry>
        </mxCell>
        <mxCell id="oPqHsAZIXMs3M_WpcZgG-75" value="[BIN == Grupo Santander Internacional&amp;nbsp;&lt;div&gt;&amp;amp;&amp;amp; exento de comisiÃ³n = = Verdadero]&lt;/div&gt;" style="edgeLabel;html=1;align=center;verticalAlign=middle;resizable=0;points=[];labelBackgroundColor=none;" vertex="1" connectable="0" parent="oPqHsAZIXMs3M_WpcZgG-74">
          <mxGeometry x="-0.0083" y="-2" relative="1" as="geometry">
            <mxPoint x="-86" y="-59" as="offset" />
          </mxGeometry>
        </mxCell>
        <mxCell id="oPqHsAZIXMs3M_WpcZgG-76" value="Registra operaciÃ³n excenta de&amp;nbsp;&amp;nbsp;&lt;span style=&quot;background-color: initial;&quot;&gt;cobro de comisiÃ³n&lt;/span&gt;" style="edgeLabel;html=1;align=center;verticalAlign=middle;resizable=0;points=[];labelBackgroundColor=none;" vertex="1" connectable="0" parent="oPqHsAZIXMs3M_WpcZgG-74">
          <mxGeometry x="-0.1011" y="-1" relative="1" as="geometry">
            <mxPoint x="-64" y="171" as="offset" />
          </mxGeometry>
        </mxCell>
        <mxCell id="oPqHsAZIXMs3M_WpcZgG-77" value="" style="endArrow=none;dashed=1;html=1;rounded=0;exitX=0;exitY=0.967;exitDx=0;exitDy=0;exitPerimeter=0;entryX=1.001;entryY=0.688;entryDx=0;entryDy=0;entryPerimeter=0;" edge="1" parent="oPqHsAZIXMs3M_WpcZgG-1">
          <mxGeometry width="50" height="50" relative="1" as="geometry">
            <mxPoint x="10.000000000000114" y="1658.5349999999999" as="sourcePoint" />
            <mxPoint x="1781.77" y="1658.5840000000007" as="targetPoint" />
          </mxGeometry>
        </mxCell>
        <mxCell id="oPqHsAZIXMs3M_WpcZgG-78" style="edgeStyle=orthogonalEdgeStyle;rounded=0;orthogonalLoop=1;jettySize=auto;html=1;curved=0;exitX=0.504;exitY=0.728;exitDx=0;exitDy=0;exitPerimeter=0;entryX=0.506;entryY=0.744;entryDx=0;entryDy=0;entryPerimeter=0;" edge="1" parent="oPqHsAZIXMs3M_WpcZgG-1">
          <mxGeometry relative="1" as="geometry">
            <mxPoint x="308.75999999999976" y="1548.5120000000006" as="sourcePoint" />
            <mxPoint x="309.1399999999999" y="1579.7759999999998" as="targetPoint" />
            <Array as="points">
              <mxPoint x="510" y="1549" />
              <mxPoint x="510" y="1580" />
            </Array>
          </mxGeometry>
        </mxCell>
        <mxCell id="oPqHsAZIXMs3M_WpcZgG-79" value="Prepara menÃº RED" style="edgeLabel;html=1;align=center;verticalAlign=middle;resizable=0;points=[];labelBackgroundColor=none;" vertex="1" connectable="0" parent="oPqHsAZIXMs3M_WpcZgG-78">
          <mxGeometry x="-0.0083" y="-2" relative="1" as="geometry">
            <mxPoint x="-88" y="-23" as="offset" />
          </mxGeometry>
        </mxCell>
        <mxCell id="oPqHsAZIXMs3M_WpcZgG-80" value="[BIN &amp;lt;&amp;gt;&amp;nbsp; Grupo Santander Internacional&lt;span style=&quot;background-color: initial;&quot;&gt;]&lt;/span&gt;" style="edgeLabel;html=1;align=center;verticalAlign=middle;resizable=0;points=[];labelBackgroundColor=none;" vertex="1" connectable="0" parent="oPqHsAZIXMs3M_WpcZgG-78">
          <mxGeometry x="-0.0083" y="-2" relative="1" as="geometry">
            <mxPoint x="-83" y="-52" as="offset" />
          </mxGeometry>
        </mxCell>
        <mxCell id="oPqHsAZIXMs3M_WpcZgG-81" style="edgeStyle=orthogonalEdgeStyle;rounded=0;orthogonalLoop=1;jettySize=auto;html=1;curved=0;exitX=0.5;exitY=0.82;exitDx=0;exitDy=0;exitPerimeter=0;" edge="1" parent="oPqHsAZIXMs3M_WpcZgG-1">
          <mxGeometry relative="1" as="geometry">
            <mxPoint x="312" y="1759.2799999999988" as="sourcePoint" />
            <mxPoint x="309.6428571428569" y="1788.1428571428569" as="targetPoint" />
            <Array as="points">
              <mxPoint x="509" y="1759" />
              <mxPoint x="509" y="1788" />
            </Array>
          </mxGeometry>
        </mxCell>
        <mxCell id="oPqHsAZIXMs3M_WpcZgG-82" value="Consulta informacion del cliente" style="edgeLabel;html=1;align=center;verticalAlign=middle;resizable=0;points=[];labelBackgroundColor=none;" vertex="1" connectable="0" parent="oPqHsAZIXMs3M_WpcZgG-81">
          <mxGeometry x="-0.0246" y="2" relative="1" as="geometry">
            <mxPoint x="-89" y="38" as="offset" />
          </mxGeometry>
        </mxCell>
        <mxCell id="oPqHsAZIXMs3M_WpcZgG-83" style="edgeStyle=orthogonalEdgeStyle;rounded=0;orthogonalLoop=1;jettySize=auto;html=1;curved=0;exitX=0.496;exitY=0.868;exitDx=0;exitDy=0;exitPerimeter=0;" edge="1" parent="oPqHsAZIXMs3M_WpcZgG-1">
          <mxGeometry relative="1" as="geometry">
            <Array as="points">
              <mxPoint x="728" y="1854" />
              <mxPoint x="728" y="1854" />
            </Array>
            <mxPoint x="615.8559999999998" y="1854.3919999999998" as="sourcePoint" />
            <mxPoint x="787.5" y="1854.3919999999998" as="targetPoint" />
          </mxGeometry>
        </mxCell>
        <mxCell id="oPqHsAZIXMs3M_WpcZgG-84" value="&lt;span style=&quot;&quot;&gt;EnvÃ­a solicitud de peticiÃ³n&amp;nbsp;&lt;/span&gt;&lt;div style=&quot;&quot;&gt;de consulta&lt;/div&gt;" style="edgeLabel;html=1;align=center;verticalAlign=middle;resizable=0;points=[];labelBackgroundColor=none;" vertex="1" connectable="0" parent="oPqHsAZIXMs3M_WpcZgG-83">
          <mxGeometry x="-0.3279" relative="1" as="geometry">
            <mxPoint x="34" y="-16" as="offset" />
          </mxGeometry>
        </mxCell>
        <mxCell id="oPqHsAZIXMs3M_WpcZgG-85" style="edgeStyle=orthogonalEdgeStyle;rounded=0;orthogonalLoop=1;jettySize=auto;html=1;curved=0;exitX=0.501;exitY=0.945;exitDx=0;exitDy=0;exitPerimeter=0;entryX=0.498;entryY=0.957;entryDx=0;entryDy=0;entryPerimeter=0;" edge="1" parent="oPqHsAZIXMs3M_WpcZgG-1">
          <mxGeometry relative="1" as="geometry">
            <mxPoint x="311.19000000000005" y="2189.630000000001" as="sourcePoint" />
            <mxPoint x="310.6199999999999" y="2215.238000000001" as="targetPoint" />
            <Array as="points">
              <mxPoint x="358" y="2190" />
              <mxPoint x="428" y="2190" />
              <mxPoint x="428" y="2215" />
            </Array>
          </mxGeometry>
        </mxCell>
        <mxCell id="oPqHsAZIXMs3M_WpcZgG-86" value="&lt;div&gt;&lt;br&gt;&lt;/div&gt;Valida BIN Excento de comision" style="edgeLabel;html=1;align=left;verticalAlign=middle;resizable=0;points=[];labelBackgroundColor=none;" vertex="1" connectable="0" parent="oPqHsAZIXMs3M_WpcZgG-85">
          <mxGeometry x="-0.0246" y="2" relative="1" as="geometry">
            <mxPoint x="-92" y="-1003" as="offset" />
          </mxGeometry>
        </mxCell>
        <mxCell id="oPqHsAZIXMs3M_WpcZgG-87" value="ExcepciÃ³n de&amp;nbsp;&lt;div style=&quot;font-size: 8px;&quot;&gt;pago de comisiÃ³n&amp;nbsp;&lt;div style=&quot;font-size: 8px;&quot;&gt;&lt;/div&gt;&lt;/div&gt;" style="edgeLabel;html=1;align=left;verticalAlign=middle;resizable=0;points=[];labelBackgroundColor=none;fontSize=8;" vertex="1" connectable="0" parent="oPqHsAZIXMs3M_WpcZgG-85">
          <mxGeometry x="-0.0246" y="2" relative="1" as="geometry">
            <mxPoint x="-198" y="-1029" as="offset" />
          </mxGeometry>
        </mxCell>
        <mxCell id="oPqHsAZIXMs3M_WpcZgG-88" value="" style="html=1;points=[[0,0,0,0,5],[0,1,0,0,-5],[1,0,0,0,5],[1,1,0,0,-5]];perimeter=orthogonalPerimeter;outlineConnect=0;targetShapes=umlLifeline;portConstraint=eastwest;newEdgeStyle={&quot;curved&quot;:0,&quot;rounded&quot;:0};labelBackgroundColor=#E8A6A6;fillColor=default;strokeColor=default;" vertex="1" parent="oPqHsAZIXMs3M_WpcZgG-1">
          <mxGeometry x="612" y="1811" width="10" height="144" as="geometry" />
        </mxCell>
        <mxCell id="oPqHsAZIXMs3M_WpcZgG-89" value="&lt;font style=&quot;font-size: 15px;&quot;&gt;alt&lt;/font&gt;" style="shape=umlFrame;whiteSpace=wrap;html=1;pointerEvents=0;" vertex="1" parent="oPqHsAZIXMs3M_WpcZgG-1">
          <mxGeometry x="230" y="1105" width="360.75" height="507" as="geometry" />
        </mxCell>
        <mxCell id="oPqHsAZIXMs3M_WpcZgG-90" value="&lt;div style=&quot;font-size: 10px;&quot;&gt;&lt;div style=&quot;forced-color-adjust: none; color: rgb(0, 0, 0); font-family: Helvetica; font-style: normal; font-variant-ligatures: normal; font-variant-caps: normal; font-weight: 400; letter-spacing: normal; orphans: 2; text-indent: 0px; text-transform: none; widows: 2; word-spacing: 0px; -webkit-text-stroke-width: 0px; white-space: nowrap; text-decoration-thickness: initial; text-decoration-style: initial; text-decoration-color: initial; font-size: 10px;&quot;&gt;&lt;span style=&quot;forced-color-adjust: none; color: rgb(33, 37, 41); font-family: Santander, sans-serif; text-wrap: wrap; font-size: 10px;&quot;&gt;[API PLARD -&amp;nbsp;&lt;/span&gt;&lt;span style=&quot;color: rgb(33, 37, 41); font-family: Santander, sans-serif; text-wrap: wrap; font-size: 10px;&quot;&gt;Life Cycle services]&lt;/span&gt;&lt;/div&gt;&lt;div style=&quot;forced-color-adjust: none; color: rgb(0, 0, 0); font-family: Helvetica; font-style: normal; font-variant-ligatures: normal; font-variant-caps: normal; letter-spacing: normal; orphans: 2; text-indent: 0px; text-transform: none; widows: 2; word-spacing: 0px; -webkit-text-stroke-width: 0px; white-space: nowrap; text-decoration-thickness: initial; text-decoration-style: initial; text-decoration-color: initial; font-size: 10px;&quot;&gt;&lt;span style=&quot;forced-color-adjust: none; text-wrap: wrap; font-size: 10px;&quot;&gt;&lt;font style=&quot;forced-color-adjust: none; font-size: 10px;&quot; color=&quot;#212529&quot; face=&quot;Santander, sans-serif&quot;&gt;&lt;div style=&quot;forced-color-adjust: none; font-size: 10px;&quot;&gt;&lt;b style=&quot;font-size: 10px;&quot;&gt;GET /v3/devices/details&lt;/b&gt;&lt;/div&gt;&lt;/font&gt;&lt;/span&gt;&lt;/div&gt;&lt;/div&gt;" style="text;whiteSpace=wrap;html=1;align=center;fontSize=10;labelBackgroundColor=none;" vertex="1" parent="oPqHsAZIXMs3M_WpcZgG-1">
          <mxGeometry x="1140.62" y="1858.25" width="160.75" height="35" as="geometry" />
        </mxCell>
        <mxCell id="oPqHsAZIXMs3M_WpcZgG-91" value="Consulta trx LMM8" style="edgeLabel;html=1;align=center;verticalAlign=middle;resizable=0;points=[];labelBackgroundColor=none;" vertex="1" connectable="0" parent="oPqHsAZIXMs3M_WpcZgG-1">
          <mxGeometry x="1574.9981498247325" y="1999.2535497588342" as="geometry">
            <mxPoint y="3" as="offset" />
          </mxGeometry>
        </mxCell>
        <mxCell id="oPqHsAZIXMs3M_WpcZgG-92" value="Valida informacion de tarjeta" style="edgeLabel;html=1;align=center;verticalAlign=middle;resizable=0;points=[];labelBackgroundColor=none;" vertex="1" connectable="0" parent="oPqHsAZIXMs3M_WpcZgG-1">
          <mxGeometry x="415" y="1750.0033263956648" as="geometry" />
        </mxCell>
        <mxCell id="oPqHsAZIXMs3M_WpcZgG-93" value="Obtiene informacion del cliente" style="edgeLabel;html=1;align=center;verticalAlign=middle;resizable=0;points=[];fontColor=default;" vertex="1" connectable="0" parent="oPqHsAZIXMs3M_WpcZgG-1">
          <mxGeometry x="459.9920735861583" y="2066.998801330854" as="geometry">
            <mxPoint x="10" y="2" as="offset" />
          </mxGeometry>
        </mxCell>
        <mxCell id="oPqHsAZIXMs3M_WpcZgG-94" value="Valida informaciÃ³n del Cliente&amp;nbsp;" style="edgeLabel;html=1;align=center;verticalAlign=middle;resizable=0;points=[];labelBackgroundColor=none;" vertex="1" connectable="0" parent="oPqHsAZIXMs3M_WpcZgG-1">
          <mxGeometry x="405.9966666666666" y="2179.9966662332026" as="geometry" />
        </mxCell>
        <mxCell id="oPqHsAZIXMs3M_WpcZgG-95" value="&lt;h1 style=&quot;margin-top: 0px; font-size: 11px;&quot;&gt;&lt;font style=&quot;font-size: 11px;&quot;&gt;else&lt;/font&gt;&lt;/h1&gt;&lt;h1 style=&quot;margin-top: 0px; font-size: 11px;&quot;&gt;&lt;br style=&quot;font-size: 11px;&quot;&gt;&lt;/h1&gt;" style="text;html=1;whiteSpace=wrap;overflow=hidden;rounded=0;fontSize=11;" vertex="1" parent="oPqHsAZIXMs3M_WpcZgG-1">
          <mxGeometry x="219" y="945.5" width="49.25" height="29.5" as="geometry" />
        </mxCell>
        <mxCell id="oPqHsAZIXMs3M_WpcZgG-96" value="&lt;span style=&quot;&quot;&gt;Consulta trx LMCH&lt;/span&gt;" style="edgeLabel;html=1;align=center;verticalAlign=middle;resizable=0;points=[];labelBackgroundColor=none;" vertex="1" connectable="0" parent="oPqHsAZIXMs3M_WpcZgG-1">
          <mxGeometry x="1574.996155214033" y="982.2547344081875" as="geometry" />
        </mxCell>
        <mxCell id="oPqHsAZIXMs3M_WpcZgG-97" value="" style="html=1;points=[[0,0,0,0,5],[0,1,0,0,-5],[1,0,0,0,5],[1,1,0,0,-5]];perimeter=orthogonalPerimeter;outlineConnect=0;targetShapes=umlLifeline;portConstraint=eastwest;newEdgeStyle={&quot;curved&quot;:0,&quot;rounded&quot;:0};labelBackgroundColor=#E8A6A6;" vertex="1" parent="oPqHsAZIXMs3M_WpcZgG-1">
          <mxGeometry x="1481" y="982.75" width="10" height="92" as="geometry" />
        </mxCell>
        <mxCell id="oPqHsAZIXMs3M_WpcZgG-98" value="&lt;font style=&quot;font-size: 14px;&quot;&gt;alt&lt;/font&gt;" style="shape=umlFrame;whiteSpace=wrap;html=1;pointerEvents=0;" vertex="1" parent="oPqHsAZIXMs3M_WpcZgG-1">
          <mxGeometry x="10" y="604" width="1770" height="1543" as="geometry" />
        </mxCell>
        <mxCell id="oPqHsAZIXMs3M_WpcZgG-99" style="edgeStyle=orthogonalEdgeStyle;rounded=0;orthogonalLoop=1;jettySize=auto;html=1;curved=0;exitX=0.502;exitY=0.318;exitDx=0;exitDy=0;exitPerimeter=0;" edge="1" parent="oPqHsAZIXMs3M_WpcZgG-1">
          <mxGeometry relative="1" as="geometry">
            <mxPoint x="309.3800000000001" y="677.3719999999994" as="sourcePoint" />
            <mxPoint x="306.6428571428569" y="728" as="targetPoint" />
            <Array as="points">
              <mxPoint x="510" y="677" />
              <mxPoint x="510" y="728" />
            </Array>
          </mxGeometry>
        </mxCell>
        <mxCell id="oPqHsAZIXMs3M_WpcZgG-100" style="edgeStyle=orthogonalEdgeStyle;rounded=0;orthogonalLoop=1;jettySize=auto;html=1;curved=0;" edge="1" parent="oPqHsAZIXMs3M_WpcZgG-1">
          <mxGeometry relative="1" as="geometry">
            <mxPoint x="309.1666666666665" y="389" as="sourcePoint" />
            <mxPoint x="309.1666666666665" y="429" as="targetPoint" />
            <Array as="points">
              <mxPoint x="505" y="389" />
              <mxPoint x="505" y="429" />
            </Array>
          </mxGeometry>
        </mxCell>
        <mxCell id="oPqHsAZIXMs3M_WpcZgG-101" value="Valida BIN de la&amp;nbsp;&lt;span style=&quot;background-color: initial;&quot;&gt;Tarjeta&lt;/span&gt;&lt;div&gt;[6 DIGITOS INICIO]&lt;/div&gt;" style="edgeLabel;html=1;align=center;verticalAlign=middle;resizable=0;points=[];labelBackgroundColor=none;" vertex="1" connectable="0" parent="oPqHsAZIXMs3M_WpcZgG-100">
          <mxGeometry x="-0.0083" y="-2" relative="1" as="geometry">
            <mxPoint x="-90" y="-33" as="offset" />
          </mxGeometry>
        </mxCell>
        <mxCell id="oPqHsAZIXMs3M_WpcZgG-102" value="alt" style="shape=umlFrame;whiteSpace=wrap;html=1;pointerEvents=0;width=60;height=30;" vertex="1" parent="oPqHsAZIXMs3M_WpcZgG-1">
          <mxGeometry x="210" y="1681" width="1550" height="447" as="geometry" />
        </mxCell>
        <mxCell id="oPqHsAZIXMs3M_WpcZgG-103" value="" style="endArrow=none;dashed=1;html=1;rounded=0;exitX=0.002;exitY=0.7;exitDx=0;exitDy=0;exitPerimeter=0;entryX=1;entryY=0.669;entryDx=0;entryDy=0;entryPerimeter=0;" edge="1" parent="oPqHsAZIXMs3M_WpcZgG-1" target="oPqHsAZIXMs3M_WpcZgG-102">
          <mxGeometry width="50" height="50" relative="1" as="geometry">
            <mxPoint x="212.7199999999998" y="1976" as="sourcePoint" />
            <mxPoint x="1570" y="1978.8199999999997" as="targetPoint" />
          </mxGeometry>
        </mxCell>
        <mxCell id="oPqHsAZIXMs3M_WpcZgG-104" value="" style="endArrow=none;dashed=1;html=1;rounded=0;exitX=0.001;exitY=0.312;exitDx=0;exitDy=0;exitPerimeter=0;entryX=0.999;entryY=0.318;entryDx=0;entryDy=0;entryPerimeter=0;" edge="1" parent="oPqHsAZIXMs3M_WpcZgG-1" source="oPqHsAZIXMs3M_WpcZgG-71" target="oPqHsAZIXMs3M_WpcZgG-71">
          <mxGeometry width="50" height="50" relative="1" as="geometry">
            <mxPoint x="210" y="944.1039999999994" as="sourcePoint" />
            <mxPoint x="1570" y="944.1039999999994" as="targetPoint" />
            <Array as="points">
              <mxPoint x="730" y="944" />
            </Array>
          </mxGeometry>
        </mxCell>
        <mxCell id="oPqHsAZIXMs3M_WpcZgG-105" value="Valida BIN&amp;nbsp;" style="edgeLabel;html=1;align=center;verticalAlign=middle;resizable=0;points=[];labelBackgroundColor=none;" vertex="1" connectable="0" parent="oPqHsAZIXMs3M_WpcZgG-1">
          <mxGeometry x="400" y="661.9966628646362" as="geometry">
            <mxPoint x="1" y="2" as="offset" />
          </mxGeometry>
        </mxCell>
        <mxCell id="oPqHsAZIXMs3M_WpcZgG-106" value="" style="endArrow=none;dashed=1;html=1;rounded=0;exitX=0;exitY=0.717;exitDx=0;exitDy=0;exitPerimeter=0;entryX=1.001;entryY=0.717;entryDx=0;entryDy=0;entryPerimeter=0;" edge="1" parent="oPqHsAZIXMs3M_WpcZgG-1">
          <mxGeometry width="50" height="50" relative="1" as="geometry">
            <mxPoint x="230" y="1489.5190000000002" as="sourcePoint" />
            <mxPoint x="591.1107499999998" y="1489.5190000000002" as="targetPoint" />
          </mxGeometry>
        </mxCell>
        <mxCell id="oPqHsAZIXMs3M_WpcZgG-107" style="edgeStyle=orthogonalEdgeStyle;rounded=0;orthogonalLoop=1;jettySize=auto;html=1;curved=0;" edge="1" parent="oPqHsAZIXMs3M_WpcZgG-1">
          <mxGeometry relative="1" as="geometry">
            <mxPoint x="309.1666666666665" y="313" as="sourcePoint" />
            <mxPoint x="309.1666666666665" y="353" as="targetPoint" />
            <Array as="points">
              <mxPoint x="505" y="313" />
              <mxPoint x="505" y="353" />
            </Array>
          </mxGeometry>
        </mxCell>
        <mxCell id="oPqHsAZIXMs3M_WpcZgG-108" style="edgeStyle=orthogonalEdgeStyle;rounded=0;orthogonalLoop=1;jettySize=auto;html=1;curved=0;" edge="1" parent="oPqHsAZIXMs3M_WpcZgG-1">
          <mxGeometry relative="1" as="geometry">
            <mxPoint x="309.1666666666665" y="524" as="sourcePoint" />
            <mxPoint x="309.1666666666665" y="554" as="targetPoint" />
            <Array as="points">
              <mxPoint x="510" y="524" />
              <mxPoint x="510" y="554" />
            </Array>
          </mxGeometry>
        </mxCell>
        <mxCell id="oPqHsAZIXMs3M_WpcZgG-109" value="Valida origen de la tarjeta" style="edgeLabel;html=1;align=center;verticalAlign=middle;resizable=0;points=[];labelBackgroundColor=none;" vertex="1" connectable="0" parent="oPqHsAZIXMs3M_WpcZgG-108">
          <mxGeometry x="-0.0246" y="2" relative="1" as="geometry">
            <mxPoint x="-94" y="-18" as="offset" />
          </mxGeometry>
        </mxCell>
        <mxCell id="oPqHsAZIXMs3M_WpcZgG-110" style="edgeStyle=orthogonalEdgeStyle;rounded=0;orthogonalLoop=1;jettySize=auto;html=1;curved=0;" edge="1" parent="oPqHsAZIXMs3M_WpcZgG-1">
          <mxGeometry relative="1" as="geometry">
            <mxPoint x="309.1666666666665" y="468" as="sourcePoint" />
            <mxPoint x="309.1666666666665" y="498" as="targetPoint" />
            <Array as="points">
              <mxPoint x="510" y="468" />
              <mxPoint x="510" y="498" />
            </Array>
          </mxGeometry>
        </mxCell>
        <mxCell id="oPqHsAZIXMs3M_WpcZgG-111" value="Consulta tabla de BINES&lt;div&gt;(Actualizacion diaria&amp;nbsp;&lt;span style=&quot;background-color: initial;&quot;&gt;Proceso manual)&lt;/span&gt;&lt;/div&gt;" style="edgeLabel;html=1;align=center;verticalAlign=middle;resizable=0;points=[];labelBackgroundColor=none;" vertex="1" connectable="0" parent="oPqHsAZIXMs3M_WpcZgG-110">
          <mxGeometry x="-0.0246" y="2" relative="1" as="geometry">
            <mxPoint x="-94" y="-25" as="offset" />
          </mxGeometry>
        </mxCell>
        <mxCell id="oPqHsAZIXMs3M_WpcZgG-112" value="&lt;span style=&quot;color: rgb(0, 0, 0); font-family: Helvetica; font-size: 11px; font-style: normal; font-variant-ligatures: normal; font-variant-caps: normal; font-weight: 400; letter-spacing: normal; orphans: 2; text-indent: 0px; text-transform: none; widows: 2; word-spacing: 0px; -webkit-text-stroke-width: 0px; white-space: nowrap; background-color: rgb(251, 251, 251); text-decoration-thickness: initial; text-decoration-style: initial; text-decoration-color: initial; float: none; display: inline !important;&quot;&gt;Consulta API PLARD&amp;nbsp;&lt;/span&gt;" style="text;whiteSpace=wrap;html=1;align=center;" vertex="1" parent="oPqHsAZIXMs3M_WpcZgG-1">
          <mxGeometry x="1149" y="1827.25" width="140" height="23" as="geometry" />
        </mxCell>
        <mxCell id="oPqHsAZIXMs3M_WpcZgG-113" value="TARJETA SANTANDER&amp;nbsp;&lt;div style=&quot;font-size: 6px;&quot;&gt;INTERNACIONAL&amp;nbsp;&lt;/div&gt;" style="edgeLabel;html=1;align=center;verticalAlign=middle;resizable=0;points=[];labelBackgroundColor=none;fontSize=6;" vertex="1" connectable="0" parent="oPqHsAZIXMs3M_WpcZgG-1">
          <mxGeometry x="46.63" y="652.996666666666" as="geometry" />
        </mxCell>
        <mxCell id="oPqHsAZIXMs3M_WpcZgG-114" value="&lt;div&gt;BIN == PLARD&lt;/div&gt;" style="edgeLabel;html=1;align=center;verticalAlign=middle;resizable=0;points=[];labelBackgroundColor=none;" vertex="1" connectable="0" parent="oPqHsAZIXMs3M_WpcZgG-1">
          <mxGeometry x="241.16" y="559.9966628646362" as="geometry">
            <mxPoint x="12" y="113" as="offset" />
          </mxGeometry>
        </mxCell>
        <mxCell id="oPqHsAZIXMs3M_WpcZgG-115" value="TARJETA SANTANDER&amp;nbsp;&lt;div&gt;NACIONAL&lt;/div&gt;" style="edgeLabel;html=1;align=center;verticalAlign=middle;resizable=0;points=[];labelBackgroundColor=none;fontSize=6;" vertex="1" connectable="0" parent="oPqHsAZIXMs3M_WpcZgG-1">
          <mxGeometry x="46.629999999999995" y="1692.996666666666" as="geometry">
            <mxPoint x="-1" y="2" as="offset" />
          </mxGeometry>
        </mxCell>
        <mxCell id="oPqHsAZIXMs3M_WpcZgG-116" value="&lt;h1 style=&quot;margin-top: 0px; font-size: 11px;&quot;&gt;&lt;font style=&quot;font-size: 11px;&quot;&gt;else&lt;/font&gt;&lt;/h1&gt;&lt;h1 style=&quot;margin-top: 0px; font-size: 11px;&quot;&gt;&lt;br style=&quot;font-size: 11px;&quot;&gt;&lt;/h1&gt;" style="text;html=1;whiteSpace=wrap;overflow=hidden;rounded=0;fontSize=11;" vertex="1" parent="oPqHsAZIXMs3M_WpcZgG-1">
          <mxGeometry x="241.16" y="1491.25" width="49.25" height="29.5" as="geometry" />
        </mxCell>
        <mxCell id="oPqHsAZIXMs3M_WpcZgG-117" value="&lt;h1 style=&quot;margin-top: 0px; font-size: 11px;&quot;&gt;&lt;font style=&quot;font-size: 11px;&quot;&gt;else&lt;/font&gt;&lt;/h1&gt;&lt;h1 style=&quot;margin-top: 0px; font-size: 11px;&quot;&gt;&lt;br style=&quot;font-size: 11px;&quot;&gt;&lt;/h1&gt;" style="text;html=1;whiteSpace=wrap;overflow=hidden;rounded=0;fontSize=11;" vertex="1" parent="oPqHsAZIXMs3M_WpcZgG-1">
          <mxGeometry x="22.00999999999997" y="1659" width="49.25" height="29.5" as="geometry" />
        </mxCell>
        <mxCell id="oPqHsAZIXMs3M_WpcZgG-118" value="&lt;h1 style=&quot;margin-top: 0px; font-size: 11px;&quot;&gt;&lt;font style=&quot;font-size: 11px;&quot;&gt;else&lt;/font&gt;&lt;/h1&gt;&lt;h1 style=&quot;margin-top: 0px; font-size: 11px;&quot;&gt;&lt;br style=&quot;font-size: 11px;&quot;&gt;&lt;/h1&gt;" style="text;html=1;whiteSpace=wrap;overflow=hidden;rounded=0;fontSize=11;" vertex="1" parent="oPqHsAZIXMs3M_WpcZgG-1">
          <mxGeometry x="218.99999999999997" y="1984.25" width="49.25" height="29.5" as="geometry" />
        </mxCell>
        <mxCell id="oPqHsAZIXMs3M_WpcZgG-119" style="edgeStyle=orthogonalEdgeStyle;rounded=0;orthogonalLoop=1;jettySize=auto;html=1;curved=0;entryX=0.503;entryY=0.853;entryDx=0;entryDy=0;entryPerimeter=0;" edge="1" parent="oPqHsAZIXMs3M_WpcZgG-1">
          <mxGeometry relative="1" as="geometry">
            <mxPoint x="301.97368421052624" y="1818.21052631579" as="sourcePoint" />
            <mxPoint x="613.9829999999997" y="1818.232" as="targetPoint" />
            <Array as="points">
              <mxPoint x="585" y="1818" />
            </Array>
          </mxGeometry>
        </mxCell>
        <mxCell id="oPqHsAZIXMs3M_WpcZgG-120" value="&lt;div&gt;&lt;br&gt;&lt;/div&gt;" style="edgeLabel;html=1;align=left;verticalAlign=middle;resizable=0;points=[];labelBackgroundColor=#FFD966;" vertex="1" connectable="0" parent="oPqHsAZIXMs3M_WpcZgG-119">
          <mxGeometry x="-0.0246" y="2" relative="1" as="geometry">
            <mxPoint x="-71" y="-20" as="offset" />
          </mxGeometry>
        </mxCell>
        <mxCell id="oPqHsAZIXMs3M_WpcZgG-121" style="edgeStyle=orthogonalEdgeStyle;rounded=0;orthogonalLoop=1;jettySize=auto;html=1;curved=0;exitX=0.502;exitY=0.389;exitDx=0;exitDy=0;exitPerimeter=0;entryX=0.506;entryY=0.389;entryDx=0;entryDy=0;entryPerimeter=0;" edge="1" parent="oPqHsAZIXMs3M_WpcZgG-1">
          <mxGeometry relative="1" as="geometry">
            <mxPoint x="613.8220000000001" y="812.2160000000003" as="sourcePoint" />
            <mxPoint x="785.96" y="812.2160000000003" as="targetPoint" />
            <Array as="points" />
          </mxGeometry>
        </mxCell>
        <mxCell id="oPqHsAZIXMs3M_WpcZgG-122" value="" style="html=1;points=[[0,0,0,0,5],[0,1,0,0,-5],[1,0,0,0,5],[1,1,0,0,-5]];perimeter=orthogonalPerimeter;outlineConnect=0;targetShapes=umlLifeline;portConstraint=eastwest;newEdgeStyle={&quot;curved&quot;:0,&quot;rounded&quot;:0};labelBackgroundColor=#E8A6A6;fillColor=default;strokeColor=default;" vertex="1" parent="oPqHsAZIXMs3M_WpcZgG-1">
          <mxGeometry x="614" y="764" width="10" height="170" as="geometry" />
        </mxCell>
        <mxCell id="oPqHsAZIXMs3M_WpcZgG-123" value="" style="html=1;verticalAlign=bottom;endArrow=block;curved=0;rounded=0;labelBackgroundColor=none;" edge="1" parent="oPqHsAZIXMs3M_WpcZgG-1" source="oPqHsAZIXMs3M_WpcZgG-126">
          <mxGeometry x="0.0021" width="80" relative="1" as="geometry">
            <mxPoint x="297.6428571428569" y="775.5" as="sourcePoint" />
            <mxPoint x="618.5" y="775.5" as="targetPoint" />
            <mxPoint as="offset" />
          </mxGeometry>
        </mxCell>
        <mxCell id="oPqHsAZIXMs3M_WpcZgG-124" value="&lt;span data-teams=&quot;true&quot;&gt;[API TBD]&amp;nbsp;&lt;/span&gt;" style="edgeLabel;html=1;align=center;verticalAlign=middle;resizable=0;points=[];labelBackgroundColor=none;fontStyle=1" vertex="1" connectable="0" parent="oPqHsAZIXMs3M_WpcZgG-1">
          <mxGeometry x="1213.0004347826086" y="859.25" as="geometry">
            <mxPoint x="5" y="-3" as="offset" />
          </mxGeometry>
        </mxCell>
        <mxCell id="oPqHsAZIXMs3M_WpcZgG-125" value="&lt;div&gt;BIN == PLARD&lt;/div&gt;" style="edgeLabel;html=1;align=center;verticalAlign=middle;resizable=0;points=[];labelBackgroundColor=none;" vertex="1" connectable="0" parent="oPqHsAZIXMs3M_WpcZgG-1">
          <mxGeometry x="241.16" y="1620.9966628646362" as="geometry">
            <mxPoint x="12" y="113" as="offset" />
          </mxGeometry>
        </mxCell>
        <mxCell id="oPqHsAZIXMs3M_WpcZgG-126" value="" style="html=1;points=[[0,0,0,0,5],[0,1,0,0,-5],[1,0,0,0,5],[1,1,0,0,-5]];perimeter=orthogonalPerimeter;outlineConnect=0;targetShapes=umlLifeline;portConstraint=eastwest;newEdgeStyle={&quot;curved&quot;:0,&quot;rounded&quot;:0};" vertex="1" parent="oPqHsAZIXMs3M_WpcZgG-1">
          <mxGeometry x="299.99999999999994" y="171" width="10" height="2062.5" as="geometry" />
        </mxCell>
        <mxCell id="oPqHsAZIXMs3M_WpcZgG-127" value="EnvÃ­a respuesta con&amp;nbsp;&lt;div&gt;informaciÃ³n de RIBs&lt;/div&gt;" style="edgeLabel;html=1;align=center;verticalAlign=middle;resizable=0;points=[];fontColor=default;labelBackgroundColor=none;" vertex="1" connectable="0" parent="oPqHsAZIXMs3M_WpcZgG-1">
          <mxGeometry x="880.3515458899659" y="910.003847308024" as="geometry" />
        </mxCell>
        <mxCell id="oPqHsAZIXMs3M_WpcZgG-128" value="EnvÃ­a respuesta con&amp;nbsp;&lt;div&gt;informaciÃ³n de RIBs&lt;/div&gt;" style="edgeLabel;html=1;align=center;verticalAlign=middle;resizable=0;points=[];fontColor=default;labelBackgroundColor=none;" vertex="1" connectable="0" parent="oPqHsAZIXMs3M_WpcZgG-1">
          <mxGeometry x="709.9915458899659" y="903.003847308024" as="geometry">
            <mxPoint x="-10" y="5" as="offset" />
          </mxGeometry>
        </mxCell>
        <mxCell id="oPqHsAZIXMs3M_WpcZgG-129" value="EnvÃ­a solicitud de peticiÃ³n&amp;nbsp;&lt;span style=&quot;background-color: initial;&quot;&gt;de consulta&lt;/span&gt;" style="edgeLabel;html=1;align=center;verticalAlign=middle;resizable=0;points=[];labelBackgroundColor=none;" vertex="1" connectable="0" parent="oPqHsAZIXMs3M_WpcZgG-1">
          <mxGeometry x="1057.616155214033" y="984.7547344081868" as="geometry" />
        </mxCell>
        <mxCell id="oPqHsAZIXMs3M_WpcZgG-130" value="EnvÃ­a respuesta con&amp;nbsp;&lt;div&gt;informaciÃ³n de RIBs&lt;/div&gt;" style="edgeLabel;html=1;align=center;verticalAlign=middle;resizable=0;points=[];fontColor=default;labelBackgroundColor=none;" vertex="1" connectable="0" parent="oPqHsAZIXMs3M_WpcZgG-1">
          <mxGeometry x="1574.9962365864235" y="1045.2534699123116" as="geometry" />
        </mxCell>
        <mxCell id="oPqHsAZIXMs3M_WpcZgG-131" value="EnvÃ­a respuesta con&amp;nbsp;&lt;span style=&quot;background-color: initial;&quot;&gt;informaciÃ³n de RIBs&lt;/span&gt;" style="edgeLabel;html=1;align=center;verticalAlign=middle;resizable=0;points=[];fontColor=default;labelBackgroundColor=none;" vertex="1" connectable="0" parent="oPqHsAZIXMs3M_WpcZgG-1">
          <mxGeometry x="1197.6162365864234" y="1060.0034699123116" as="geometry">
            <mxPoint x="4" y="-8" as="offset" />
          </mxGeometry>
        </mxCell>
        <mxCell id="oPqHsAZIXMs3M_WpcZgG-132" value="" style="html=1;points=[[0,0,0,0,5],[0,1,0,0,-5],[1,0,0,0,5],[1,1,0,0,-5]];perimeter=orthogonalPerimeter;outlineConnect=0;targetShapes=umlLifeline;portConstraint=eastwest;newEdgeStyle={&quot;curved&quot;:0,&quot;rounded&quot;:0};labelBackgroundColor=#E8A6A6;" vertex="1" parent="oPqHsAZIXMs3M_WpcZgG-1">
          <mxGeometry x="1305" y="1847.25" width="10" height="113.75" as="geometry" />
        </mxCell>
        <mxCell id="oPqHsAZIXMs3M_WpcZgG-133" value="&lt;span style=&quot;&quot;&gt;EnvÃ­a solicitud de peticiÃ³n&amp;nbsp;&lt;/span&gt;&lt;div style=&quot;&quot;&gt;de consulta&lt;/div&gt;" style="edgeLabel;html=1;align=center;verticalAlign=middle;resizable=0;points=[];labelBackgroundColor=none;" vertex="1" connectable="0" parent="oPqHsAZIXMs3M_WpcZgG-1">
          <mxGeometry x="880.3537714598062" y="1838.4990199308522" as="geometry" />
        </mxCell>
        <mxCell id="oPqHsAZIXMs3M_WpcZgG-134" value="&lt;span style=&quot;&quot;&gt;EnvÃ­a solicitud de peticiÃ³n&amp;nbsp;&lt;/span&gt;&lt;span style=&quot;background-color: initial;&quot;&gt;de consulta&lt;/span&gt;" style="edgeLabel;html=1;align=center;verticalAlign=middle;resizable=0;points=[];labelBackgroundColor=none;" vertex="1" connectable="0" parent="oPqHsAZIXMs3M_WpcZgG-1">
          <mxGeometry x="1057.6137714598062" y="2006.7490199308522" as="geometry" />
        </mxCell>
        <mxCell id="oPqHsAZIXMs3M_WpcZgG-135" value="&lt;span style=&quot;&quot;&gt;EnvÃ­a respuesta con&amp;nbsp;&lt;/span&gt;&lt;span style=&quot;background-color: initial;&quot;&gt;informaciÃ³n del cliente&lt;/span&gt;" style="edgeLabel;html=1;align=center;verticalAlign=middle;resizable=0;points=[];labelBackgroundColor=none;fontColor=default;" vertex="1" connectable="0" parent="oPqHsAZIXMs3M_WpcZgG-1">
          <mxGeometry x="1248.9960757140939" y="2067.2525214326633" as="geometry" />
        </mxCell>
        <mxCell id="oPqHsAZIXMs3M_WpcZgG-136" style="edgeStyle=orthogonalEdgeStyle;rounded=0;orthogonalLoop=1;jettySize=auto;html=1;curved=0;exitX=0.496;exitY=0.906;exitDx=0;exitDy=0;exitPerimeter=0;entryX=0.499;entryY=0.902;entryDx=0;entryDy=0;entryPerimeter=0;dashed=1;dashPattern=8 8;" edge="1" parent="oPqHsAZIXMs3M_WpcZgG-1">
          <mxGeometry relative="1" as="geometry">
            <mxPoint x="1491.838" y="2083.2379999999994" as="targetPoint" />
            <mxPoint x="1676.6019999999999" y="2082.9539999999997" as="sourcePoint" />
            <Array as="points" />
          </mxGeometry>
        </mxCell>
        <mxCell id="oPqHsAZIXMs3M_WpcZgG-137" value="" style="html=1;points=[[0,0,0,0,5],[0,1,0,0,-5],[1,0,0,0,5],[1,1,0,0,-5]];perimeter=orthogonalPerimeter;outlineConnect=0;targetShapes=umlLifeline;portConstraint=eastwest;newEdgeStyle={&quot;curved&quot;:0,&quot;rounded&quot;:0};labelBackgroundColor=#E8A6A6;" vertex="1" parent="oPqHsAZIXMs3M_WpcZgG-1">
          <mxGeometry x="1481" y="2011" width="10" height="80" as="geometry" />
        </mxCell>
        <mxCell id="oPqHsAZIXMs3M_WpcZgG-138" value="" style="html=1;points=[[0,0,0,0,5],[0,1,0,0,-5],[1,0,0,0,5],[1,1,0,0,-5]];perimeter=orthogonalPerimeter;outlineConnect=0;targetShapes=umlLifeline;portConstraint=eastwest;newEdgeStyle={&quot;curved&quot;:0,&quot;rounded&quot;:0};verticalAlign=top;" vertex="1" parent="oPqHsAZIXMs3M_WpcZgG-1">
          <mxGeometry x="1660.25" y="2006.75" width="10" height="88.5" as="geometry" />
        </mxCell>
        <mxCell id="oPqHsAZIXMs3M_WpcZgG-139" value="&lt;span style=&quot;&quot;&gt;EnvÃ­a respuesta con&amp;nbsp;&lt;/span&gt;&lt;div&gt;&lt;span style=&quot;&quot;&gt;informaciÃ³n del cliente&lt;/span&gt;&lt;/div&gt;" style="edgeLabel;html=1;align=center;verticalAlign=middle;resizable=0;points=[];labelBackgroundColor=none;fontColor=default;" vertex="1" connectable="0" parent="oPqHsAZIXMs3M_WpcZgG-1">
          <mxGeometry x="1578.9967624448325" y="2065.2495543282876" as="geometry" />
        </mxCell>
        <mxCell id="oPqHsAZIXMs3M_WpcZgG-140" value="EnvÃ­a solicitud de peticiÃ³n&amp;nbsp;&lt;div&gt;de consulta&lt;/div&gt;" style="edgeLabel;html=1;align=center;verticalAlign=middle;resizable=0;points=[];labelBackgroundColor=none;" vertex="1" connectable="0" parent="oPqHsAZIXMs3M_WpcZgG-1">
          <mxGeometry x="1052.996155214033" y="825.0047344081868" as="geometry" />
        </mxCell>
        <mxCell id="oPqHsAZIXMs3M_WpcZgG-141" value="EnvÃ­a respuesta con&amp;nbsp;&lt;div&gt;informaciÃ³n de RIBs&lt;/div&gt;" style="edgeLabel;html=1;align=center;verticalAlign=middle;resizable=0;points=[];fontColor=default;labelBackgroundColor=none;" vertex="1" connectable="0" parent="oPqHsAZIXMs3M_WpcZgG-1">
          <mxGeometry x="1052.9928206786637" y="910.005948545393" as="geometry" />
        </mxCell>
        <mxCell id="oPqHsAZIXMs3M_WpcZgG-142" value="" style="html=1;points=[[0,0,0,0,5],[0,1,0,0,-5],[1,0,0,0,5],[1,1,0,0,-5]];perimeter=orthogonalPerimeter;outlineConnect=0;targetShapes=umlLifeline;portConstraint=eastwest;newEdgeStyle={&quot;curved&quot;:0,&quot;rounded&quot;:0};labelBackgroundColor=#E8A6A6;fillColor=default;strokeColor=default;" vertex="1" parent="oPqHsAZIXMs3M_WpcZgG-1">
          <mxGeometry x="955.36" y="1845" width="10" height="116" as="geometry" />
        </mxCell>
        <mxCell id="oPqHsAZIXMs3M_WpcZgG-143" style="edgeStyle=orthogonalEdgeStyle;rounded=0;orthogonalLoop=1;jettySize=auto;html=1;curved=0;exitX=0.498;exitY=0.846;exitDx=0;exitDy=0;exitPerimeter=0;entryX=0.501;entryY=0.843;entryDx=0;entryDy=0;entryPerimeter=0;dashed=1;dashPattern=8 8;" edge="1" parent="oPqHsAZIXMs3M_WpcZgG-1">
          <mxGeometry relative="1" as="geometry">
            <mxPoint x="965.7799999999999" y="1944.112000000001" as="targetPoint" />
            <mxPoint x="1128.62" y="1944" as="sourcePoint" />
            <Array as="points" />
          </mxGeometry>
        </mxCell>
        <mxCell id="oPqHsAZIXMs3M_WpcZgG-144" value="Obtiene informaciÃ³n del cliente" style="edgeLabel;html=1;align=center;verticalAlign=middle;resizable=0;points=[];fontColor=default;labelBackgroundColor=none;" vertex="1" connectable="0" parent="oPqHsAZIXMs3M_WpcZgG-143">
          <mxGeometry x="0.3975" y="1" relative="1" as="geometry">
            <mxPoint x="30" y="-12" as="offset" />
          </mxGeometry>
        </mxCell>
        <mxCell id="oPqHsAZIXMs3M_WpcZgG-145" value="&lt;span style=&quot;&quot;&gt;EnvÃ­a solicitud de peticiÃ³n&amp;nbsp;&lt;/span&gt;&lt;div style=&quot;&quot;&gt;de consulta&lt;/div&gt;" style="edgeLabel;html=1;align=center;verticalAlign=middle;resizable=0;points=[];labelBackgroundColor=none;" vertex="1" connectable="0" parent="oPqHsAZIXMs3M_WpcZgG-1">
          <mxGeometry x="1049.0037714598063" y="1838.4990199308522" as="geometry" />
        </mxCell>
        <mxCell id="oPqHsAZIXMs3M_WpcZgG-146" value="MODELO FUNCIONAL DE SECUENCIA - PLARD: FUNCIONALIDAD 1" style="rounded=0;whiteSpace=wrap;html=1;align=center;fillColor=#FFFFFF;strokeColor=default;fontColor=#000000;fontSize=16;fontStyle=1;labelBackgroundColor=default;" vertex="1" parent="1">
          <mxGeometry x="11" y="9057" width="1799" height="79" as="geometry" />
        </mxCell>
      </root>
    </mxGraphModel>
  </diagram>
  <diagram name="MFS TF" id="gHUfBpgaeaMNVBautK9V">
    <mxGraphModel dx="1048" dy="-7520" grid="1" gridSize="10" guides="1" tooltips="1" connect="1" arrows="1" fold="1" page="1" pageScale="1" pageWidth="827" pageHeight="1169" math="0" shadow="0">
      <root>
        <mxCell id="CL8gz4CZqGIyAP5-wHCN-0" />
        <mxCell id="CL8gz4CZqGIyAP5-wHCN-1" parent="CL8gz4CZqGIyAP5-wHCN-0" />
        <mxCell id="CL8gz4CZqGIyAP5-wHCN-2" value="&lt;font style=&quot;font-size: 14px;&quot;&gt;PLARD Consulta Datos de Tarjeta&lt;/font&gt;" style="shape=umlFrame;whiteSpace=wrap;html=1;pointerEvents=0;recursiveResize=0;container=1;collapsible=0;width=310;height=44;fontStyle=1;fontSize=13;strokeColor=#000000;strokeWidth=2;" vertex="1" parent="CL8gz4CZqGIyAP5-wHCN-1">
          <mxGeometry x="11" y="9137" width="1799" height="2310" as="geometry" />
        </mxCell>
        <mxCell id="CL8gz4CZqGIyAP5-wHCN-3" style="edgeStyle=orthogonalEdgeStyle;rounded=0;orthogonalLoop=1;jettySize=auto;html=1;curved=0;exitX=0.505;exitY=0.805;exitDx=0;exitDy=0;exitPerimeter=0;entryX=0.503;entryY=0.802;entryDx=0;entryDy=0;entryPerimeter=0;" edge="1" parent="CL8gz4CZqGIyAP5-wHCN-2">
          <mxGeometry relative="1" as="geometry">
            <Array as="points">
              <mxPoint x="956" y="1857" />
            </Array>
            <mxPoint x="956.1600000000001" y="1855.119999999999" as="sourcePoint" />
            <mxPoint x="1128.48" y="1856.8379999999997" as="targetPoint" />
          </mxGeometry>
        </mxCell>
        <mxCell id="CL8gz4CZqGIyAP5-wHCN-4" style="edgeStyle=orthogonalEdgeStyle;rounded=0;orthogonalLoop=1;jettySize=auto;html=1;curved=0;exitX=0.502;exitY=0.805;exitDx=0;exitDy=0;exitPerimeter=0;entryX=0.513;entryY=0.886;entryDx=0;entryDy=0;entryPerimeter=0;" edge="1" parent="CL8gz4CZqGIyAP5-wHCN-2">
          <mxGeometry relative="1" as="geometry">
            <Array as="points">
              <mxPoint x="887" y="1855" />
            </Array>
            <mxPoint x="789.3199999999999" y="1855.119999999999" as="sourcePoint" />
            <mxPoint x="955.0799999999999" y="1854.384" as="targetPoint" />
          </mxGeometry>
        </mxCell>
        <mxCell id="CL8gz4CZqGIyAP5-wHCN-5" style="edgeStyle=orthogonalEdgeStyle;rounded=0;orthogonalLoop=1;jettySize=auto;html=1;curved=0;entryX=0.509;entryY=0.875;entryDx=0;entryDy=0;entryPerimeter=0;exitX=0.51;exitY=0.879;exitDx=0;exitDy=0;exitPerimeter=0;" edge="1" parent="CL8gz4CZqGIyAP5-wHCN-2">
          <mxGeometry relative="1" as="geometry">
            <mxPoint x="790.6000000000001" y="2016.735999999999" as="sourcePoint" />
            <mxPoint x="1481.4580000000005" y="2017" as="targetPoint" />
            <Array as="points" />
          </mxGeometry>
        </mxCell>
        <mxCell id="CL8gz4CZqGIyAP5-wHCN-6" style="edgeStyle=orthogonalEdgeStyle;rounded=0;orthogonalLoop=1;jettySize=auto;html=1;curved=0;entryX=0.502;entryY=0.389;entryDx=0;entryDy=0;entryPerimeter=0;dashed=1;dashPattern=8 8;exitX=0.501;exitY=0.386;exitDx=0;exitDy=0;exitPerimeter=0;" edge="1" parent="CL8gz4CZqGIyAP5-wHCN-2">
          <mxGeometry relative="1" as="geometry">
            <mxPoint x="1140.16" y="926.134" as="sourcePoint" />
            <mxPoint x="966" y="925.996000000001" as="targetPoint" />
            <Array as="points" />
          </mxGeometry>
        </mxCell>
        <mxCell id="CL8gz4CZqGIyAP5-wHCN-7" style="edgeStyle=orthogonalEdgeStyle;rounded=0;orthogonalLoop=1;jettySize=auto;html=1;curved=0;entryX=0.502;entryY=0.389;entryDx=0;entryDy=0;entryPerimeter=0;dashed=1;dashPattern=8 8;exitX=0.511;exitY=0.389;exitDx=0;exitDy=0;exitPerimeter=0;" edge="1" parent="CL8gz4CZqGIyAP5-wHCN-2" source="CL8gz4CZqGIyAP5-wHCN-10">
          <mxGeometry relative="1" as="geometry">
            <mxPoint x="974.3199999999999" y="928.6900000000005" as="sourcePoint" />
            <mxPoint x="795.3199999999999" y="925.5760000000009" as="targetPoint" />
            <Array as="points">
              <mxPoint x="949" y="926" />
              <mxPoint x="949" y="926" />
            </Array>
          </mxGeometry>
        </mxCell>
        <mxCell id="CL8gz4CZqGIyAP5-wHCN-8" value="Obtiene informaciÃ³n de RIBs&amp;nbsp;" style="edgeLabel;html=1;align=center;verticalAlign=middle;resizable=0;points=[];fontColor=default;" vertex="1" connectable="0" parent="CL8gz4CZqGIyAP5-wHCN-7">
          <mxGeometry x="0.1847" relative="1" as="geometry">
            <mxPoint x="-406" y="-12" as="offset" />
          </mxGeometry>
        </mxCell>
        <mxCell id="CL8gz4CZqGIyAP5-wHCN-9" style="edgeStyle=orthogonalEdgeStyle;rounded=0;orthogonalLoop=1;jettySize=auto;html=1;curved=0;" edge="1" parent="CL8gz4CZqGIyAP5-wHCN-2">
          <mxGeometry relative="1" as="geometry">
            <mxPoint x="948.62" y="843" as="sourcePoint" />
            <mxPoint x="1128.62" y="843" as="targetPoint" />
          </mxGeometry>
        </mxCell>
        <mxCell id="CL8gz4CZqGIyAP5-wHCN-10" value="&lt;b&gt;&amp;lt;&amp;lt;Repositorio&amp;gt;&amp;gt;&lt;/b&gt;&lt;div&gt;&lt;b&gt;Redis Stream&lt;/b&gt;&lt;/div&gt;" style="shape=umlLifeline;perimeter=lifelinePerimeter;whiteSpace=wrap;html=1;container=1;dropTarget=0;collapsible=0;recursiveResize=0;outlineConnect=0;portConstraint=eastwest;newEdgeStyle={&quot;edgeStyle&quot;:&quot;elbowEdgeStyle&quot;,&quot;elbow&quot;:&quot;vertical&quot;,&quot;curved&quot;:0,&quot;rounded&quot;:0};align=center;" vertex="1" parent="CL8gz4CZqGIyAP5-wHCN-2">
          <mxGeometry x="880.36" y="76" width="160" height="2184" as="geometry" />
        </mxCell>
        <mxCell id="CL8gz4CZqGIyAP5-wHCN-11" value="" style="html=1;points=[[0,0,0,0,5],[0,1,0,0,-5],[1,0,0,0,5],[1,1,0,0,-5]];perimeter=orthogonalPerimeter;outlineConnect=0;targetShapes=umlLifeline;portConstraint=eastwest;newEdgeStyle={&quot;curved&quot;:0,&quot;rounded&quot;:0};labelBackgroundColor=#E8A6A6;fillColor=default;strokeColor=default;" vertex="1" parent="CL8gz4CZqGIyAP5-wHCN-10">
          <mxGeometry x="75" y="754.25" width="10" height="135.75" as="geometry" />
        </mxCell>
        <mxCell id="CL8gz4CZqGIyAP5-wHCN-12" style="edgeStyle=orthogonalEdgeStyle;rounded=0;orthogonalLoop=1;jettySize=auto;html=1;curved=0;exitX=0.498;exitY=0.846;exitDx=0;exitDy=0;exitPerimeter=0;entryX=0.501;entryY=0.843;entryDx=0;entryDy=0;entryPerimeter=0;dashed=1;dashPattern=8 8;" edge="1" parent="CL8gz4CZqGIyAP5-wHCN-2">
          <mxGeometry relative="1" as="geometry">
            <mxPoint x="797.1599999999999" y="1945.112000000001" as="targetPoint" />
            <mxPoint x="960.04" y="1944.6640000000007" as="sourcePoint" />
            <Array as="points" />
          </mxGeometry>
        </mxCell>
        <mxCell id="CL8gz4CZqGIyAP5-wHCN-13" value="Obtiene informaciÃ³n del cliente" style="edgeLabel;html=1;align=center;verticalAlign=middle;resizable=0;points=[];fontColor=default;labelBackgroundColor=none;" vertex="1" connectable="0" parent="CL8gz4CZqGIyAP5-wHCN-12">
          <mxGeometry x="0.3975" y="1" relative="1" as="geometry">
            <mxPoint x="30" y="-12" as="offset" />
          </mxGeometry>
        </mxCell>
        <mxCell id="CL8gz4CZqGIyAP5-wHCN-14" style="edgeStyle=orthogonalEdgeStyle;rounded=0;orthogonalLoop=1;jettySize=auto;html=1;curved=0;exitX=0.51;exitY=0.843;exitDx=0;exitDy=0;exitPerimeter=0;entryX=0.508;entryY=0.839;entryDx=0;entryDy=0;entryPerimeter=0;dashed=1;dashPattern=8 8;" edge="1" parent="CL8gz4CZqGIyAP5-wHCN-2">
          <mxGeometry relative="1" as="geometry">
            <mxPoint x="621.788" y="1944.7659999999996" as="targetPoint" />
            <mxPoint x="793.6000000000001" y="1945.112000000001" as="sourcePoint" />
            <Array as="points" />
          </mxGeometry>
        </mxCell>
        <mxCell id="CL8gz4CZqGIyAP5-wHCN-15" value="Obtiene informaciÃ³n del cliente" style="edgeLabel;html=1;align=center;verticalAlign=middle;resizable=0;points=[];fontColor=default;labelBackgroundColor=none;" vertex="1" connectable="0" parent="CL8gz4CZqGIyAP5-wHCN-14">
          <mxGeometry x="0.3975" y="1" relative="1" as="geometry">
            <mxPoint x="33" y="-12" as="offset" />
          </mxGeometry>
        </mxCell>
        <mxCell id="CL8gz4CZqGIyAP5-wHCN-16" style="edgeStyle=orthogonalEdgeStyle;rounded=0;orthogonalLoop=1;jettySize=auto;html=1;curved=0;exitX=0.515;exitY=0.446;exitDx=0;exitDy=0;exitPerimeter=0;entryX=0.504;entryY=0.448;entryDx=0;entryDy=0;entryPerimeter=0;dashed=1;dashPattern=8 8;" edge="1" parent="CL8gz4CZqGIyAP5-wHCN-2">
          <mxGeometry relative="1" as="geometry">
            <mxPoint x="794.6399999999999" y="1061.4320000000007" as="targetPoint" />
            <mxPoint x="1488.4299999999998" y="1061.7739999999994" as="sourcePoint" />
            <Array as="points" />
          </mxGeometry>
        </mxCell>
        <mxCell id="CL8gz4CZqGIyAP5-wHCN-17" style="edgeStyle=orthogonalEdgeStyle;rounded=0;orthogonalLoop=1;jettySize=auto;html=1;curved=0;exitX=0.499;exitY=0.446;exitDx=0;exitDy=0;exitPerimeter=0;entryX=0.504;entryY=0.448;entryDx=0;entryDy=0;entryPerimeter=0;dashed=1;dashPattern=8 8;" edge="1" parent="CL8gz4CZqGIyAP5-wHCN-2">
          <mxGeometry relative="1" as="geometry">
            <mxPoint x="1490.7999999999997" y="1061.2520000000004" as="targetPoint" />
            <mxPoint x="1668" y="1061.344000000001" as="sourcePoint" />
            <Array as="points">
              <mxPoint x="1640.1599999999999" y="1061.8199999999997" />
              <mxPoint x="1620.1599999999999" y="1060.8199999999997" />
            </Array>
          </mxGeometry>
        </mxCell>
        <mxCell id="CL8gz4CZqGIyAP5-wHCN-18" style="edgeStyle=orthogonalEdgeStyle;rounded=0;orthogonalLoop=1;jettySize=auto;html=1;curved=0;exitX=0.498;exitY=0.387;exitDx=0;exitDy=0;exitPerimeter=0;dashed=1;dashPattern=8 8;" edge="1" parent="CL8gz4CZqGIyAP5-wHCN-2">
          <mxGeometry relative="1" as="geometry">
            <mxPoint x="1138.3200000000002" y="926.25" as="targetPoint" />
            <mxPoint x="1314.75" y="926.3279999999995" as="sourcePoint" />
            <Array as="points">
              <mxPoint x="1137.3200000000002" y="926.25" />
            </Array>
          </mxGeometry>
        </mxCell>
        <mxCell id="CL8gz4CZqGIyAP5-wHCN-19" value="EnvÃ­a respuesta con&amp;nbsp;&lt;div&gt;informaciÃ³n de RIBs&lt;/div&gt;" style="edgeLabel;html=1;align=center;verticalAlign=middle;resizable=0;points=[];fontColor=default;labelBackgroundColor=none;" vertex="1" connectable="0" parent="CL8gz4CZqGIyAP5-wHCN-18">
          <mxGeometry x="0.3975" y="1" relative="1" as="geometry">
            <mxPoint x="30" y="-18" as="offset" />
          </mxGeometry>
        </mxCell>
        <mxCell id="CL8gz4CZqGIyAP5-wHCN-20" style="edgeStyle=orthogonalEdgeStyle;rounded=0;orthogonalLoop=1;jettySize=auto;html=1;curved=0;entryX=0.501;entryY=0.387;entryDx=0;entryDy=0;entryPerimeter=0;dashed=1;dashPattern=8 8;exitX=0.499;exitY=0.389;exitDx=0;exitDy=0;exitPerimeter=0;" edge="1" parent="CL8gz4CZqGIyAP5-wHCN-2">
          <mxGeometry relative="1" as="geometry">
            <mxPoint x="794.8400000000001" y="925.5760000000009" as="sourcePoint" />
            <mxPoint x="623.6610000000001" y="925.0779999999995" as="targetPoint" />
            <Array as="points">
              <mxPoint x="723" y="926" />
            </Array>
          </mxGeometry>
        </mxCell>
        <mxCell id="CL8gz4CZqGIyAP5-wHCN-21" style="edgeStyle=orthogonalEdgeStyle;rounded=0;orthogonalLoop=1;jettySize=auto;html=1;curved=0;exitX=0.509;exitY=0.905;exitDx=0;exitDy=0;exitPerimeter=0;entryX=0.508;entryY=0.906;entryDx=0;entryDy=0;entryPerimeter=0;dashed=1;dashPattern=8 8;" edge="1" parent="CL8gz4CZqGIyAP5-wHCN-2">
          <mxGeometry relative="1" as="geometry">
            <mxPoint x="794.28" y="2082.7039999999997" as="targetPoint" />
            <mxPoint x="1487.4580000000005" y="2082.8199999999997" as="sourcePoint" />
            <Array as="points" />
          </mxGeometry>
        </mxCell>
        <mxCell id="CL8gz4CZqGIyAP5-wHCN-22" style="edgeStyle=orthogonalEdgeStyle;rounded=0;orthogonalLoop=1;jettySize=auto;html=1;curved=0;exitX=0.5;exitY=0.99;exitDx=0;exitDy=0;exitPerimeter=0;dashed=1;dashPattern=8 8;" edge="1" parent="CL8gz4CZqGIyAP5-wHCN-2">
          <mxGeometry relative="1" as="geometry">
            <mxPoint x="312" y="2215.460000000001" as="sourcePoint" />
            <mxPoint x="95.77777777777806" y="2215.5555555555547" as="targetPoint" />
            <Array as="points">
              <mxPoint x="287" y="2216" />
              <mxPoint x="277" y="2215" />
            </Array>
          </mxGeometry>
        </mxCell>
        <mxCell id="CL8gz4CZqGIyAP5-wHCN-23" value="Solicita NIP de la tarjeta" style="edgeLabel;html=1;align=center;verticalAlign=middle;resizable=0;points=[];labelBackgroundColor=none;" vertex="1" connectable="0" parent="CL8gz4CZqGIyAP5-wHCN-22">
          <mxGeometry x="-0.0083" y="-2" relative="1" as="geometry">
            <mxPoint x="-10" y="-7" as="offset" />
          </mxGeometry>
        </mxCell>
        <mxCell id="CL8gz4CZqGIyAP5-wHCN-24" value="&lt;div&gt;&lt;span style=&quot;background-color: initial;&quot;&gt;&amp;lt;&amp;lt;Queque&amp;gt;&amp;gt;&lt;/span&gt;&lt;br&gt;&lt;/div&gt;&lt;font color=&quot;#000000&quot;&gt;MQ 390&lt;/font&gt;" style="shape=umlLifeline;perimeter=lifelinePerimeter;whiteSpace=wrap;html=1;container=1;dropTarget=0;collapsible=0;recursiveResize=0;outlineConnect=0;portConstraint=eastwest;newEdgeStyle={&quot;edgeStyle&quot;:&quot;elbowEdgeStyle&quot;,&quot;elbow&quot;:&quot;vertical&quot;,&quot;curved&quot;:0,&quot;rounded&quot;:0};align=center;labelBorderColor=none;fontStyle=1" vertex="1" parent="CL8gz4CZqGIyAP5-wHCN-2">
          <mxGeometry x="1405" y="76.25" width="162" height="2194" as="geometry" />
        </mxCell>
        <mxCell id="CL8gz4CZqGIyAP5-wHCN-25" style="edgeStyle=orthogonalEdgeStyle;rounded=0;orthogonalLoop=1;jettySize=auto;html=1;curved=0;" edge="1" parent="CL8gz4CZqGIyAP5-wHCN-2">
          <mxGeometry relative="1" as="geometry">
            <mxPoint x="1125" y="843.25" as="sourcePoint" />
            <mxPoint x="1305" y="843.25" as="targetPoint" />
          </mxGeometry>
        </mxCell>
        <mxCell id="CL8gz4CZqGIyAP5-wHCN-26" value="&lt;font&gt;Consultar&amp;nbsp;&lt;span style=&quot;background-color: initial;&quot;&gt;API PLARD&lt;/span&gt;&lt;/font&gt;" style="edgeLabel;html=1;align=center;verticalAlign=middle;resizable=0;points=[];labelBackgroundColor=none;fontStyle=0;fontColor=default;" vertex="1" connectable="0" parent="CL8gz4CZqGIyAP5-wHCN-25">
          <mxGeometry x="-0.3434" y="-2" relative="1" as="geometry">
            <mxPoint x="35" y="-12" as="offset" />
          </mxGeometry>
        </mxCell>
        <mxCell id="CL8gz4CZqGIyAP5-wHCN-27" style="edgeStyle=orthogonalEdgeStyle;rounded=0;orthogonalLoop=1;jettySize=auto;html=1;curved=0;exitX=0.502;exitY=0.839;exitDx=0;exitDy=0;exitPerimeter=0;entryX=0.51;entryY=0.877;entryDx=0;entryDy=0;entryPerimeter=0;dashed=1;dashPattern=8 8;" edge="1" parent="CL8gz4CZqGIyAP5-wHCN-2">
          <mxGeometry relative="1" as="geometry">
            <mxPoint x="308.9000000000001" y="1945.058000000001" as="targetPoint" />
            <mxPoint x="618.8220000000001" y="1944.7659999999996" as="sourcePoint" />
            <Array as="points" />
          </mxGeometry>
        </mxCell>
        <mxCell id="CL8gz4CZqGIyAP5-wHCN-28" value="Obtiene informaciÃ³n del cliente" style="edgeLabel;html=1;align=center;verticalAlign=middle;resizable=0;points=[];fontColor=default;labelBackgroundColor=none;" vertex="1" connectable="0" parent="CL8gz4CZqGIyAP5-wHCN-27">
          <mxGeometry x="0.3975" y="1" relative="1" as="geometry">
            <mxPoint x="46" y="-12" as="offset" />
          </mxGeometry>
        </mxCell>
        <mxCell id="CL8gz4CZqGIyAP5-wHCN-29" style="edgeStyle=orthogonalEdgeStyle;rounded=0;orthogonalLoop=1;jettySize=auto;html=1;curved=0;exitX=0.483;exitY=0.812;exitDx=0;exitDy=0;exitPerimeter=0;entryX=0.502;entryY=0.864;entryDx=0;entryDy=0;entryPerimeter=0;" edge="1" parent="CL8gz4CZqGIyAP5-wHCN-2">
          <mxGeometry relative="1" as="geometry">
            <Array as="points">
              <mxPoint x="1292" y="1856.25" />
            </Array>
            <mxPoint x="1131.2800000000002" y="1855.938" as="sourcePoint" />
            <mxPoint x="1305.07" y="1855.3860000000004" as="targetPoint" />
          </mxGeometry>
        </mxCell>
        <mxCell id="CL8gz4CZqGIyAP5-wHCN-30" style="edgeStyle=orthogonalEdgeStyle;rounded=0;orthogonalLoop=1;jettySize=auto;html=1;curved=0;entryX=0.502;entryY=0.463;entryDx=0;entryDy=0;entryPerimeter=0;dashed=1;dashPattern=8 8;exitX=0.504;exitY=0.447;exitDx=0;exitDy=0;exitPerimeter=0;" edge="1" parent="CL8gz4CZqGIyAP5-wHCN-2">
          <mxGeometry relative="1" as="geometry">
            <mxPoint x="790.6399999999999" y="1059.2479999999996" as="sourcePoint" />
            <mxPoint x="308.3800000000001" y="1062.3019999999997" as="targetPoint" />
            <Array as="points">
              <mxPoint x="791" y="1062" />
            </Array>
          </mxGeometry>
        </mxCell>
        <mxCell id="CL8gz4CZqGIyAP5-wHCN-31" value="Obtiene informacion Valida informacion solicitada de RIBs&amp;nbsp;" style="edgeLabel;html=1;align=center;verticalAlign=middle;resizable=0;points=[];fontColor=default;" vertex="1" connectable="0" parent="CL8gz4CZqGIyAP5-wHCN-30">
          <mxGeometry x="0.1847" relative="1" as="geometry">
            <mxPoint x="12" y="-15" as="offset" />
          </mxGeometry>
        </mxCell>
        <mxCell id="CL8gz4CZqGIyAP5-wHCN-32" style="edgeStyle=orthogonalEdgeStyle;rounded=0;orthogonalLoop=1;jettySize=auto;html=1;curved=0;exitX=0.505;exitY=0.906;exitDx=0;exitDy=0;exitPerimeter=0;entryX=0.477;entryY=0.894;entryDx=0;entryDy=0;entryPerimeter=0;dashed=1;dashPattern=8 8;" edge="1" parent="CL8gz4CZqGIyAP5-wHCN-2">
          <mxGeometry relative="1" as="geometry">
            <mxPoint x="308.6300000000001" y="2082.7960000000003" as="targetPoint" />
            <Array as="points" />
            <mxPoint x="790.7999999999997" y="2082.7040000000015" as="sourcePoint" />
          </mxGeometry>
        </mxCell>
        <mxCell id="CL8gz4CZqGIyAP5-wHCN-33" value="Obtiene informacion de la tarjeta del cliente" style="edgeLabel;html=1;align=center;verticalAlign=middle;resizable=0;points=[];labelBackgroundColor=none;" vertex="1" connectable="0" parent="CL8gz4CZqGIyAP5-wHCN-32">
          <mxGeometry x="0.1847" relative="1" as="geometry">
            <mxPoint x="-85" y="-777" as="offset" />
          </mxGeometry>
        </mxCell>
        <mxCell id="CL8gz4CZqGIyAP5-wHCN-34" value="&lt;b style=&quot;font-size: 11px;&quot;&gt;&amp;lt;&amp;lt;CaaS Integration Layer&amp;gt;&lt;span style=&quot;background-color: initial; font-size: 11px;&quot;&gt;&amp;gt;&lt;/span&gt;&lt;/b&gt;&lt;div style=&quot;&quot;&gt;&lt;span style=&quot;font-weight: 700; text-wrap: nowrap;&quot;&gt;card-data-retriever&lt;/span&gt;&lt;br&gt;&lt;/div&gt;" style="shape=umlLifeline;perimeter=lifelinePerimeter;whiteSpace=wrap;html=1;container=1;dropTarget=0;collapsible=0;recursiveResize=0;outlineConnect=0;portConstraint=eastwest;newEdgeStyle={&quot;edgeStyle&quot;:&quot;elbowEdgeStyle&quot;,&quot;elbow&quot;:&quot;vertical&quot;,&quot;curved&quot;:0,&quot;rounded&quot;:0};align=center;fontSize=11;" vertex="1" parent="CL8gz4CZqGIyAP5-wHCN-2">
          <mxGeometry x="1053" y="76.25" width="160" height="2194" as="geometry" />
        </mxCell>
        <mxCell id="CL8gz4CZqGIyAP5-wHCN-35" value="" style="html=1;points=[[0,0,0,0,5],[0,1,0,0,-5],[1,0,0,0,5],[1,1,0,0,-5]];perimeter=orthogonalPerimeter;outlineConnect=0;targetShapes=umlLifeline;portConstraint=eastwest;newEdgeStyle={&quot;curved&quot;:0,&quot;rounded&quot;:0};labelBackgroundColor=#E8A6A6;fillColor=default;strokeColor=default;" vertex="1" parent="CL8gz4CZqGIyAP5-wHCN-34">
          <mxGeometry x="74.62" y="754" width="10" height="136" as="geometry" />
        </mxCell>
        <mxCell id="CL8gz4CZqGIyAP5-wHCN-36" value="" style="html=1;points=[[0,0,0,0,5],[0,1,0,0,-5],[1,0,0,0,5],[1,1,0,0,-5]];perimeter=orthogonalPerimeter;outlineConnect=0;targetShapes=umlLifeline;portConstraint=eastwest;newEdgeStyle={&quot;curved&quot;:0,&quot;rounded&quot;:0};labelBackgroundColor=default;fillColor=default;strokeColor=default;" vertex="1" parent="CL8gz4CZqGIyAP5-wHCN-2">
          <mxGeometry x="1128.62" y="1843.25" width="10" height="117.75" as="geometry" />
        </mxCell>
        <mxCell id="CL8gz4CZqGIyAP5-wHCN-37" style="edgeStyle=orthogonalEdgeStyle;rounded=0;orthogonalLoop=1;jettySize=auto;html=1;curved=0;exitX=0.511;exitY=0.88;exitDx=0;exitDy=0;exitPerimeter=0;entryX=0.504;entryY=0.866;entryDx=0;entryDy=0;entryPerimeter=0;dashed=1;dashPattern=8 8;" edge="1" parent="CL8gz4CZqGIyAP5-wHCN-2">
          <mxGeometry relative="1" as="geometry">
            <mxPoint x="1135.6399999999999" y="1944.594000000001" as="targetPoint" />
            <mxPoint x="1311.5099999999998" y="1944.9700000000012" as="sourcePoint" />
          </mxGeometry>
        </mxCell>
        <mxCell id="CL8gz4CZqGIyAP5-wHCN-38" value="EnvÃ­a respuesta con&amp;nbsp;&lt;div&gt;informaciÃ³n del cliente&lt;/div&gt;" style="edgeLabel;html=1;align=center;verticalAlign=middle;resizable=0;points=[];fontColor=default;labelBackgroundColor=none;" vertex="1" connectable="0" parent="CL8gz4CZqGIyAP5-wHCN-37">
          <mxGeometry x="0.3975" y="1" relative="1" as="geometry">
            <mxPoint x="32" y="-18" as="offset" />
          </mxGeometry>
        </mxCell>
        <mxCell id="CL8gz4CZqGIyAP5-wHCN-39" value="&lt;div style=&quot;&quot;&gt;&amp;lt;&amp;lt;Plataforma SaaS&amp;gt;&amp;gt;&lt;/div&gt;&lt;span style=&quot;&quot;&gt;PLARD&lt;/span&gt;" style="shape=umlLifeline;perimeter=lifelinePerimeter;whiteSpace=wrap;html=1;container=1;dropTarget=0;collapsible=0;recursiveResize=0;outlineConnect=0;portConstraint=eastwest;newEdgeStyle={&quot;edgeStyle&quot;:&quot;elbowEdgeStyle&quot;,&quot;elbow&quot;:&quot;vertical&quot;,&quot;curved&quot;:0,&quot;rounded&quot;:0};align=center;fontStyle=1" vertex="1" parent="CL8gz4CZqGIyAP5-wHCN-2">
          <mxGeometry x="1229.75" y="76.25" width="160" height="2194" as="geometry" />
        </mxCell>
        <mxCell id="CL8gz4CZqGIyAP5-wHCN-40" value="" style="html=1;points=[[0,0,0,0,5],[0,1,0,0,-5],[1,0,0,0,5],[1,1,0,0,-5]];perimeter=orthogonalPerimeter;outlineConnect=0;targetShapes=umlLifeline;portConstraint=eastwest;newEdgeStyle={&quot;curved&quot;:0,&quot;rounded&quot;:0};labelBackgroundColor=#E8A6A6;" vertex="1" parent="CL8gz4CZqGIyAP5-wHCN-39">
          <mxGeometry x="75.25" y="753" width="10" height="137" as="geometry" />
        </mxCell>
        <mxCell id="CL8gz4CZqGIyAP5-wHCN-41" value="&lt;b&gt;&amp;lt;&amp;lt;Componente&amp;gt;&amp;gt;&lt;/b&gt;&lt;div&gt;&lt;b&gt;Launcher&lt;/b&gt;&lt;/div&gt;" style="shape=umlLifeline;perimeter=lifelinePerimeter;whiteSpace=wrap;html=1;container=1;dropTarget=0;collapsible=0;recursiveResize=0;outlineConnect=0;portConstraint=eastwest;newEdgeStyle={&quot;edgeStyle&quot;:&quot;elbowEdgeStyle&quot;,&quot;elbow&quot;:&quot;vertical&quot;,&quot;curved&quot;:0,&quot;rounded&quot;:0};align=center;" vertex="1" parent="CL8gz4CZqGIyAP5-wHCN-2">
          <mxGeometry x="710" y="76" width="160" height="2184" as="geometry" />
        </mxCell>
        <mxCell id="CL8gz4CZqGIyAP5-wHCN-42" value="" style="html=1;points=[[0,0,0,0,5],[0,1,0,0,-5],[1,0,0,0,5],[1,1,0,0,-5]];perimeter=orthogonalPerimeter;outlineConnect=0;targetShapes=umlLifeline;portConstraint=eastwest;newEdgeStyle={&quot;curved&quot;:0,&quot;rounded&quot;:0};labelBackgroundColor=#E8A6A6;fillColor=default;strokeColor=default;" vertex="1" parent="CL8gz4CZqGIyAP5-wHCN-2">
          <mxGeometry x="786" y="1845" width="10" height="253" as="geometry" />
        </mxCell>
        <mxCell id="CL8gz4CZqGIyAP5-wHCN-43" value="&lt;span style=&quot;&quot;&gt;&lt;b&gt;&amp;lt;&amp;lt;Componente&amp;gt;&amp;gt;&lt;/b&gt;&lt;/span&gt;&lt;div style=&quot;&quot;&gt;&lt;b&gt;Agave&lt;/b&gt;&lt;/div&gt;" style="shape=umlLifeline;perimeter=lifelinePerimeter;whiteSpace=wrap;html=1;container=1;dropTarget=0;collapsible=0;recursiveResize=0;outlineConnect=0;portConstraint=eastwest;newEdgeStyle={&quot;edgeStyle&quot;:&quot;elbowEdgeStyle&quot;,&quot;elbow&quot;:&quot;vertical&quot;,&quot;curved&quot;:0,&quot;rounded&quot;:0};align=center;" vertex="1" parent="CL8gz4CZqGIyAP5-wHCN-2">
          <mxGeometry x="538" y="76" width="161" height="2194" as="geometry" />
        </mxCell>
        <mxCell id="CL8gz4CZqGIyAP5-wHCN-44" style="edgeStyle=orthogonalEdgeStyle;rounded=0;orthogonalLoop=1;jettySize=auto;html=1;curved=0;exitX=0.5;exitY=0.678;exitDx=0;exitDy=0;exitPerimeter=0;dashed=1;entryX=0.506;entryY=0.702;entryDx=0;entryDy=0;entryPerimeter=0;" edge="1" parent="CL8gz4CZqGIyAP5-wHCN-2">
          <mxGeometry relative="1" as="geometry">
            <mxPoint x="312" y="1579.0020000000004" as="sourcePoint" />
            <mxPoint x="96.4659999999999" y="1580.648000000001" as="targetPoint" />
            <Array as="points">
              <mxPoint x="304" y="1579" />
              <mxPoint x="304" y="1581" />
            </Array>
          </mxGeometry>
        </mxCell>
        <mxCell id="CL8gz4CZqGIyAP5-wHCN-45" value="&lt;span style=&quot;&quot;&gt;Muestra menÃº RED&amp;nbsp;&lt;/span&gt;&lt;div style=&quot;&quot;&gt;ATM&lt;/div&gt;" style="edgeLabel;html=1;align=center;verticalAlign=middle;resizable=0;points=[];labelBackgroundColor=none;" vertex="1" connectable="0" parent="CL8gz4CZqGIyAP5-wHCN-44">
          <mxGeometry x="-0.0083" y="-2" relative="1" as="geometry">
            <mxPoint x="-51" y="-13" as="offset" />
          </mxGeometry>
        </mxCell>
        <mxCell id="CL8gz4CZqGIyAP5-wHCN-46" style="edgeStyle=orthogonalEdgeStyle;rounded=0;orthogonalLoop=1;jettySize=auto;html=1;curved=0;exitX=1;exitY=0;exitDx=0;exitDy=5;exitPerimeter=0;" edge="1" parent="CL8gz4CZqGIyAP5-wHCN-2">
          <mxGeometry relative="1" as="geometry">
            <mxPoint x="299.5" y="184" as="targetPoint" />
            <Array as="points">
              <mxPoint x="245" y="184" />
              <mxPoint x="245" y="184" />
            </Array>
            <mxPoint x="90.5" y="176" as="sourcePoint" />
          </mxGeometry>
        </mxCell>
        <mxCell id="CL8gz4CZqGIyAP5-wHCN-47" value="&lt;b&gt;&amp;nbsp; Cliente Santander&lt;/b&gt;&lt;div&gt;&lt;b&gt;TDD&lt;/b&gt;&lt;/div&gt;" style="shape=umlLifeline;perimeter=lifelinePerimeter;whiteSpace=wrap;html=1;container=1;dropTarget=0;collapsible=0;recursiveResize=0;outlineConnect=0;portConstraint=eastwest;newEdgeStyle={&quot;edgeStyle&quot;:&quot;elbowEdgeStyle&quot;,&quot;elbow&quot;:&quot;vertical&quot;,&quot;curved&quot;:0,&quot;rounded&quot;:0};fillColor=#FFFFFF;strokeColor=#000000;align=center;gradientColor=#ffffff;" vertex="1" parent="CL8gz4CZqGIyAP5-wHCN-2">
          <mxGeometry x="10" y="70.5" width="161" height="2199.5" as="geometry" />
        </mxCell>
        <mxCell id="CL8gz4CZqGIyAP5-wHCN-48" value="" style="html=1;points=[[0,0,0,0,5],[0,1,0,0,-5],[1,0,0,0,5],[1,1,0,0,-5]];perimeter=orthogonalPerimeter;outlineConnect=0;targetShapes=umlLifeline;portConstraint=eastwest;newEdgeStyle={&quot;curved&quot;:0,&quot;rounded&quot;:0};" vertex="1" parent="CL8gz4CZqGIyAP5-wHCN-2">
          <mxGeometry x="85.5" y="171" width="10" height="2059" as="geometry" />
        </mxCell>
        <mxCell id="CL8gz4CZqGIyAP5-wHCN-49" style="edgeStyle=orthogonalEdgeStyle;rounded=0;orthogonalLoop=1;jettySize=auto;html=1;curved=0;exitX=0.5;exitY=0.678;exitDx=0;exitDy=0;exitPerimeter=0;dashed=1;entryX=0.498;entryY=0.639;entryDx=0;entryDy=0;entryPerimeter=0;" edge="1" parent="CL8gz4CZqGIyAP5-wHCN-2">
          <mxGeometry relative="1" as="geometry">
            <mxPoint x="315" y="1459.812" as="sourcePoint" />
            <mxPoint x="94.17800000000011" y="1459.5905000000002" as="targetPoint" />
            <Array as="points">
              <mxPoint x="303" y="1460" />
            </Array>
          </mxGeometry>
        </mxCell>
        <mxCell id="CL8gz4CZqGIyAP5-wHCN-50" value="&lt;span style=&quot;&quot;&gt;Muestra menÃº RED&amp;nbsp;&lt;/span&gt;&lt;div style=&quot;&quot;&gt;ATM&lt;/div&gt;" style="edgeLabel;html=1;align=center;verticalAlign=middle;resizable=0;points=[];labelBackgroundColor=none;" vertex="1" connectable="0" parent="CL8gz4CZqGIyAP5-wHCN-49">
          <mxGeometry x="-0.0083" y="-2" relative="1" as="geometry">
            <mxPoint x="-47" y="-13" as="offset" />
          </mxGeometry>
        </mxCell>
        <mxCell id="CL8gz4CZqGIyAP5-wHCN-51" style="edgeStyle=orthogonalEdgeStyle;rounded=0;orthogonalLoop=1;jettySize=auto;html=1;curved=0;exitX=0.5;exitY=0.631;exitDx=0;exitDy=0;exitPerimeter=0;entryX=0.499;entryY=0.646;entryDx=0;entryDy=0;entryPerimeter=0;" edge="1" parent="CL8gz4CZqGIyAP5-wHCN-2">
          <mxGeometry relative="1" as="geometry">
            <mxPoint x="309" y="1375.1240000000003" as="sourcePoint" />
            <mxPoint x="308.80999999999995" y="1404.4339999999997" as="targetPoint" />
            <Array as="points">
              <mxPoint x="510" y="1375" />
              <mxPoint x="510" y="1404" />
            </Array>
          </mxGeometry>
        </mxCell>
        <mxCell id="CL8gz4CZqGIyAP5-wHCN-52" style="edgeStyle=orthogonalEdgeStyle;rounded=0;orthogonalLoop=1;jettySize=auto;html=1;curved=0;exitX=0.507;exitY=0.6;exitDx=0;exitDy=0;exitPerimeter=0;entryX=0.503;entryY=0.615;entryDx=0;entryDy=0;entryPerimeter=0;" edge="1" parent="CL8gz4CZqGIyAP5-wHCN-2">
          <mxGeometry relative="1" as="geometry">
            <mxPoint x="308.3299999999999" y="1318.3999999999996" as="sourcePoint" />
            <mxPoint x="307.56999999999994" y="1347.7099999999991" as="targetPoint" />
            <Array as="points">
              <mxPoint x="510" y="1318" />
              <mxPoint x="510" y="1348" />
            </Array>
          </mxGeometry>
        </mxCell>
        <mxCell id="CL8gz4CZqGIyAP5-wHCN-53" style="edgeStyle=orthogonalEdgeStyle;rounded=0;orthogonalLoop=1;jettySize=auto;html=1;curved=0;entryX=0.5;entryY=0.583;entryDx=0;entryDy=0;entryPerimeter=0;" edge="1" parent="CL8gz4CZqGIyAP5-wHCN-2">
          <mxGeometry relative="1" as="geometry">
            <mxPoint x="306.5" y="1261" as="sourcePoint" />
            <mxPoint x="308" y="1285.1820000000007" as="targetPoint" />
            <Array as="points">
              <mxPoint x="510" y="1261" />
              <mxPoint x="510" y="1285" />
            </Array>
          </mxGeometry>
        </mxCell>
        <mxCell id="CL8gz4CZqGIyAP5-wHCN-54" value="Consulta Tabla Backend ATM&amp;nbsp;&lt;br&gt;&lt;div&gt;&lt;span style=&quot;background-color: initial;&quot;&gt;BINES&lt;/span&gt;&lt;span style=&quot;background-color: initial;&quot;&gt;&amp;nbsp;&lt;/span&gt;&lt;span style=&quot;background-color: initial;&quot;&gt;Exentos de comisiÃ³n&lt;/span&gt;&lt;/div&gt;" style="edgeLabel;html=1;align=center;verticalAlign=middle;resizable=0;points=[];labelBackgroundColor=none;" vertex="1" connectable="0" parent="CL8gz4CZqGIyAP5-wHCN-53">
          <mxGeometry x="-0.1011" y="-1" relative="1" as="geometry">
            <mxPoint x="-99" y="-15" as="offset" />
          </mxGeometry>
        </mxCell>
        <mxCell id="CL8gz4CZqGIyAP5-wHCN-55" value="" style="edgeStyle=elbowEdgeStyle;fontSize=12;html=1;endArrow=blockThin;endFill=1;rounded=0;exitX=0.501;exitY=0.42;exitDx=0;exitDy=0;exitPerimeter=0;entryX=0.493;entryY=0.415;entryDx=0;entryDy=0;entryPerimeter=0;" edge="1" parent="CL8gz4CZqGIyAP5-wHCN-2" source="CL8gz4CZqGIyAP5-wHCN-41">
          <mxGeometry width="160" relative="1" as="geometry">
            <mxPoint x="781.44" y="993.3460000000001" as="sourcePoint" />
            <mxPoint x="1481.8659999999995" y="993.7600000000002" as="targetPoint" />
            <Array as="points">
              <mxPoint x="847.32" y="981.3400000000007" />
            </Array>
          </mxGeometry>
        </mxCell>
        <mxCell id="CL8gz4CZqGIyAP5-wHCN-56" value="" style="edgeStyle=elbowEdgeStyle;fontSize=12;html=1;endArrow=blockThin;endFill=1;rounded=0;" edge="1" parent="CL8gz4CZqGIyAP5-wHCN-2">
          <mxGeometry width="160" relative="1" as="geometry">
            <mxPoint x="785.0028571428569" y="842.5" as="sourcePoint" />
            <mxPoint x="957.36" y="842.5" as="targetPoint" />
            <Array as="points">
              <mxPoint x="847.36" y="829.5" />
            </Array>
          </mxGeometry>
        </mxCell>
        <mxCell id="CL8gz4CZqGIyAP5-wHCN-57" value="" style="html=1;points=[[0,0,0,0,5],[0,1,0,0,-5],[1,0,0,0,5],[1,1,0,0,-5]];perimeter=orthogonalPerimeter;outlineConnect=0;targetShapes=umlLifeline;portConstraint=eastwest;newEdgeStyle={&quot;curved&quot;:0,&quot;rounded&quot;:0};labelBackgroundColor=#E8A6A6;fillColor=default;strokeColor=default;" vertex="1" parent="CL8gz4CZqGIyAP5-wHCN-2">
          <mxGeometry x="785" y="803" width="10" height="267" as="geometry" />
        </mxCell>
        <mxCell id="CL8gz4CZqGIyAP5-wHCN-58" value="&lt;div&gt;&lt;span style=&quot;background-color: initial;&quot;&gt;&amp;lt;&amp;lt;Altair 390&amp;gt;&amp;gt;&lt;/span&gt;&lt;br&gt;&lt;/div&gt;&lt;font color=&quot;#000000&quot;&gt;PAMPA&lt;/font&gt;" style="shape=umlLifeline;perimeter=lifelinePerimeter;whiteSpace=wrap;html=1;container=1;dropTarget=0;collapsible=0;recursiveResize=0;outlineConnect=0;portConstraint=eastwest;newEdgeStyle={&quot;edgeStyle&quot;:&quot;elbowEdgeStyle&quot;,&quot;elbow&quot;:&quot;vertical&quot;,&quot;curved&quot;:0,&quot;rounded&quot;:0};align=center;fontStyle=1" vertex="1" parent="CL8gz4CZqGIyAP5-wHCN-2">
          <mxGeometry x="1584.25" y="76.25" width="162" height="2184" as="geometry" />
        </mxCell>
        <mxCell id="CL8gz4CZqGIyAP5-wHCN-59" style="edgeStyle=orthogonalEdgeStyle;rounded=0;orthogonalLoop=1;jettySize=auto;html=1;curved=0;entryX=0.5;entryY=0.874;entryDx=0;entryDy=0;entryPerimeter=0;exitX=0.504;exitY=0.853;exitDx=0;exitDy=0;exitPerimeter=0;" edge="1" parent="CL8gz4CZqGIyAP5-wHCN-58">
          <mxGeometry relative="1" as="geometry">
            <mxPoint x="-103.60199999999986" y="1941.2720000000008" as="sourcePoint" />
            <mxPoint x="77" y="1940.8160000000007" as="targetPoint" />
            <Array as="points">
              <mxPoint x="-84" y="1941" />
            </Array>
          </mxGeometry>
        </mxCell>
        <mxCell id="CL8gz4CZqGIyAP5-wHCN-60" value="" style="html=1;points=[[0,0,0,0,5],[0,1,0,0,-5],[1,0,0,0,5],[1,1,0,0,-5]];perimeter=orthogonalPerimeter;outlineConnect=0;targetShapes=umlLifeline;portConstraint=eastwest;newEdgeStyle={&quot;curved&quot;:0,&quot;rounded&quot;:0};verticalAlign=top;" vertex="1" parent="CL8gz4CZqGIyAP5-wHCN-2">
          <mxGeometry x="1660" y="982.75" width="10" height="91.5" as="geometry" />
        </mxCell>
        <mxCell id="CL8gz4CZqGIyAP5-wHCN-61" value="&lt;div style=&quot;&quot;&gt;&lt;span style=&quot;background-color: initial;&quot;&gt;&amp;lt;&amp;lt;Canal&amp;gt;&amp;gt;&amp;nbsp;&amp;nbsp;&lt;/span&gt;&lt;/div&gt;&lt;div style=&quot;&quot;&gt;Cajero AutomÃ¡tico&lt;/div&gt;" style="shape=umlLifeline;perimeter=lifelinePerimeter;whiteSpace=wrap;html=1;container=1;dropTarget=0;collapsible=0;recursiveResize=0;outlineConnect=0;portConstraint=eastwest;newEdgeStyle={&quot;edgeStyle&quot;:&quot;elbowEdgeStyle&quot;,&quot;elbow&quot;:&quot;vertical&quot;,&quot;curved&quot;:0,&quot;rounded&quot;:0};align=center;fontStyle=1" vertex="1" parent="CL8gz4CZqGIyAP5-wHCN-2">
          <mxGeometry x="210" y="70.5" width="190" height="2199.5" as="geometry" />
        </mxCell>
        <mxCell id="CL8gz4CZqGIyAP5-wHCN-62" style="edgeStyle=orthogonalEdgeStyle;rounded=0;orthogonalLoop=1;jettySize=auto;html=1;curved=0;" edge="1" parent="CL8gz4CZqGIyAP5-wHCN-2">
          <mxGeometry relative="1" as="geometry">
            <mxPoint x="1479.6428571428564" y="993.25" as="sourcePoint" />
            <mxPoint x="1666" y="993.25" as="targetPoint" />
            <Array as="points">
              <mxPoint x="1619" y="993.25" />
            </Array>
          </mxGeometry>
        </mxCell>
        <mxCell id="CL8gz4CZqGIyAP5-wHCN-63" style="edgeStyle=orthogonalEdgeStyle;rounded=0;orthogonalLoop=1;jettySize=auto;html=1;curved=0;" edge="1" parent="CL8gz4CZqGIyAP5-wHCN-2">
          <mxGeometry relative="1" as="geometry">
            <mxPoint x="309.1666666666665" y="185" as="sourcePoint" />
            <mxPoint x="309.1666666666665" y="210" as="targetPoint" />
            <Array as="points">
              <mxPoint x="505" y="185" />
              <mxPoint x="505" y="210" />
            </Array>
          </mxGeometry>
        </mxCell>
        <mxCell id="CL8gz4CZqGIyAP5-wHCN-64" value="&lt;font style=&quot;font-size: 12px;&quot;&gt;Valida tarjeta&amp;nbsp;&lt;span style=&quot;background-color: initial;&quot;&gt;del cliente&lt;/span&gt;&lt;/font&gt;" style="edgeLabel;html=1;align=center;verticalAlign=middle;resizable=0;points=[];labelBackgroundColor=none;" vertex="1" connectable="0" parent="CL8gz4CZqGIyAP5-wHCN-63">
          <mxGeometry x="-0.0246" y="2" relative="1" as="geometry">
            <mxPoint x="-95" y="-19" as="offset" />
          </mxGeometry>
        </mxCell>
        <mxCell id="CL8gz4CZqGIyAP5-wHCN-65" value="&lt;span style=&quot;font-size: 12px;&quot;&gt;Ingresa tarjeta a ATM&lt;/span&gt;" style="edgeLabel;html=1;align=center;verticalAlign=middle;resizable=0;points=[];labelBackgroundColor=none;fontSize=12;" vertex="1" connectable="0" parent="CL8gz4CZqGIyAP5-wHCN-2">
          <mxGeometry x="210" y="171.00241379310376" as="geometry">
            <mxPoint x="-13" y="5" as="offset" />
          </mxGeometry>
        </mxCell>
        <mxCell id="CL8gz4CZqGIyAP5-wHCN-66" style="edgeStyle=orthogonalEdgeStyle;rounded=0;orthogonalLoop=1;jettySize=auto;html=1;curved=0;" edge="1" parent="CL8gz4CZqGIyAP5-wHCN-2">
          <mxGeometry relative="1" as="geometry">
            <mxPoint x="308.1666666666665" y="248" as="sourcePoint" />
            <mxPoint x="308.1666666666665" y="278" as="targetPoint" />
            <Array as="points">
              <mxPoint x="504" y="248" />
              <mxPoint x="504" y="278" />
            </Array>
          </mxGeometry>
        </mxCell>
        <mxCell id="CL8gz4CZqGIyAP5-wHCN-67" value="&lt;div&gt;Valida PAN de la tarjeta&lt;/div&gt;&lt;div&gt;[16 DIGITOS]&lt;/div&gt;" style="edgeLabel;html=1;align=center;verticalAlign=middle;resizable=0;points=[];labelBackgroundColor=none;" vertex="1" connectable="0" parent="CL8gz4CZqGIyAP5-wHCN-66">
          <mxGeometry x="-0.0083" y="-2" relative="1" as="geometry">
            <mxPoint x="-92" y="-27" as="offset" />
          </mxGeometry>
        </mxCell>
        <mxCell id="CL8gz4CZqGIyAP5-wHCN-68" value="Identifica tipo de Tarjeta&amp;nbsp;&lt;div style=&quot;&quot;&gt;(TDD, TDC, tarjeta otros bancos)&amp;nbsp;&lt;/div&gt;" style="edgeLabel;html=1;align=center;verticalAlign=middle;resizable=0;points=[];labelBackgroundColor=none;" vertex="1" connectable="0" parent="CL8gz4CZqGIyAP5-wHCN-2">
          <mxGeometry x="361" y="276.00222222222214" as="geometry">
            <mxPoint x="45" y="23" as="offset" />
          </mxGeometry>
        </mxCell>
        <mxCell id="CL8gz4CZqGIyAP5-wHCN-69" value="Consulta RIB de la tarjeta" style="edgeLabel;html=1;align=center;verticalAlign=middle;resizable=0;points=[];labelBackgroundColor=none;" vertex="1" connectable="0" parent="CL8gz4CZqGIyAP5-wHCN-2">
          <mxGeometry x="459.9961552140331" y="766.5047344081868" as="geometry" />
        </mxCell>
        <mxCell id="CL8gz4CZqGIyAP5-wHCN-70" value="EnvÃ­a solicitud de peticiÃ³n&amp;nbsp;&lt;div&gt;de consulta&lt;/div&gt;" style="edgeLabel;html=1;align=center;verticalAlign=middle;resizable=0;points=[];labelBackgroundColor=none;" vertex="1" connectable="0" parent="CL8gz4CZqGIyAP5-wHCN-2">
          <mxGeometry x="880.356155214033" y="825.0047344081868" as="geometry" />
        </mxCell>
        <mxCell id="CL8gz4CZqGIyAP5-wHCN-71" value="EnvÃ­a solicitud de peticiÃ³n&amp;nbsp;&lt;div&gt;de consulta&lt;/div&gt;" style="edgeLabel;html=1;align=center;verticalAlign=middle;resizable=0;points=[];labelBackgroundColor=none;" vertex="1" connectable="0" parent="CL8gz4CZqGIyAP5-wHCN-2">
          <mxGeometry x="709.996155214033" y="798.0047344081868" as="geometry" />
        </mxCell>
        <mxCell id="CL8gz4CZqGIyAP5-wHCN-72" value="&lt;font style=&quot;font-size: 15px;&quot;&gt;alt&lt;/font&gt;" style="shape=umlFrame;whiteSpace=wrap;html=1;pointerEvents=0;" vertex="1" parent="CL8gz4CZqGIyAP5-wHCN-2">
          <mxGeometry x="210" y="630" width="1550" height="1010" as="geometry" />
        </mxCell>
        <mxCell id="CL8gz4CZqGIyAP5-wHCN-73" style="edgeStyle=orthogonalEdgeStyle;rounded=0;orthogonalLoop=1;jettySize=auto;html=1;curved=0;exitX=0.5;exitY=0.666;exitDx=0;exitDy=0;exitPerimeter=0;entryX=0.5;entryY=0.682;entryDx=0;entryDy=0;entryPerimeter=0;" edge="1" parent="CL8gz4CZqGIyAP5-wHCN-2">
          <mxGeometry relative="1" as="geometry">
            <mxPoint x="309" y="1428.0239999999997" as="sourcePoint" />
            <mxPoint x="309" y="1459.2880000000007" as="targetPoint" />
            <Array as="points">
              <mxPoint x="510" y="1428" />
              <mxPoint x="510" y="1459" />
            </Array>
          </mxGeometry>
        </mxCell>
        <mxCell id="CL8gz4CZqGIyAP5-wHCN-74" value="Prepara menÃº RED" style="edgeLabel;html=1;align=center;verticalAlign=middle;resizable=0;points=[];" vertex="1" connectable="0" parent="CL8gz4CZqGIyAP5-wHCN-73">
          <mxGeometry x="-0.0083" y="-2" relative="1" as="geometry">
            <mxPoint x="-104" y="-23" as="offset" />
          </mxGeometry>
        </mxCell>
        <mxCell id="CL8gz4CZqGIyAP5-wHCN-75" style="edgeStyle=orthogonalEdgeStyle;rounded=0;orthogonalLoop=1;jettySize=auto;html=1;curved=0;" edge="1" parent="CL8gz4CZqGIyAP5-wHCN-2">
          <mxGeometry relative="1" as="geometry">
            <mxPoint x="308.9" y="1192" as="sourcePoint" />
            <mxPoint x="309" y="1224" as="targetPoint" />
            <Array as="points">
              <mxPoint x="510" y="1192" />
              <mxPoint x="510" y="1224" />
            </Array>
          </mxGeometry>
        </mxCell>
        <mxCell id="CL8gz4CZqGIyAP5-wHCN-76" value="[BIN == Grupo Santander Internacional&amp;nbsp;&lt;div&gt;&amp;amp;&amp;amp; exento de comisiÃ³n = = Verdadero]&lt;/div&gt;" style="edgeLabel;html=1;align=center;verticalAlign=middle;resizable=0;points=[];labelBackgroundColor=none;" vertex="1" connectable="0" parent="CL8gz4CZqGIyAP5-wHCN-75">
          <mxGeometry x="-0.0083" y="-2" relative="1" as="geometry">
            <mxPoint x="-86" y="-59" as="offset" />
          </mxGeometry>
        </mxCell>
        <mxCell id="CL8gz4CZqGIyAP5-wHCN-77" value="Registra operaciÃ³n excenta de&amp;nbsp;&amp;nbsp;&lt;span style=&quot;background-color: initial;&quot;&gt;cobro de comisiÃ³n&lt;/span&gt;" style="edgeLabel;html=1;align=center;verticalAlign=middle;resizable=0;points=[];labelBackgroundColor=none;" vertex="1" connectable="0" parent="CL8gz4CZqGIyAP5-wHCN-75">
          <mxGeometry x="-0.1011" y="-1" relative="1" as="geometry">
            <mxPoint x="-64" y="171" as="offset" />
          </mxGeometry>
        </mxCell>
        <mxCell id="CL8gz4CZqGIyAP5-wHCN-78" value="" style="endArrow=none;dashed=1;html=1;rounded=0;exitX=0;exitY=0.967;exitDx=0;exitDy=0;exitPerimeter=0;entryX=1.001;entryY=0.688;entryDx=0;entryDy=0;entryPerimeter=0;" edge="1" parent="CL8gz4CZqGIyAP5-wHCN-2">
          <mxGeometry width="50" height="50" relative="1" as="geometry">
            <mxPoint x="10.000000000000114" y="1658.5349999999999" as="sourcePoint" />
            <mxPoint x="1781.77" y="1658.5840000000007" as="targetPoint" />
          </mxGeometry>
        </mxCell>
        <mxCell id="CL8gz4CZqGIyAP5-wHCN-79" style="edgeStyle=orthogonalEdgeStyle;rounded=0;orthogonalLoop=1;jettySize=auto;html=1;curved=0;exitX=0.504;exitY=0.728;exitDx=0;exitDy=0;exitPerimeter=0;entryX=0.506;entryY=0.744;entryDx=0;entryDy=0;entryPerimeter=0;" edge="1" parent="CL8gz4CZqGIyAP5-wHCN-2">
          <mxGeometry relative="1" as="geometry">
            <mxPoint x="308.75999999999976" y="1548.5120000000006" as="sourcePoint" />
            <mxPoint x="309.1399999999999" y="1579.7759999999998" as="targetPoint" />
            <Array as="points">
              <mxPoint x="510" y="1549" />
              <mxPoint x="510" y="1580" />
            </Array>
          </mxGeometry>
        </mxCell>
        <mxCell id="CL8gz4CZqGIyAP5-wHCN-80" value="Prepara menÃº RED" style="edgeLabel;html=1;align=center;verticalAlign=middle;resizable=0;points=[];labelBackgroundColor=none;" vertex="1" connectable="0" parent="CL8gz4CZqGIyAP5-wHCN-79">
          <mxGeometry x="-0.0083" y="-2" relative="1" as="geometry">
            <mxPoint x="-88" y="-23" as="offset" />
          </mxGeometry>
        </mxCell>
        <mxCell id="CL8gz4CZqGIyAP5-wHCN-81" value="[BIN &amp;lt;&amp;gt;&amp;nbsp; Grupo Santander Internacional&lt;span style=&quot;background-color: initial;&quot;&gt;]&lt;/span&gt;" style="edgeLabel;html=1;align=center;verticalAlign=middle;resizable=0;points=[];labelBackgroundColor=none;" vertex="1" connectable="0" parent="CL8gz4CZqGIyAP5-wHCN-79">
          <mxGeometry x="-0.0083" y="-2" relative="1" as="geometry">
            <mxPoint x="-83" y="-52" as="offset" />
          </mxGeometry>
        </mxCell>
        <mxCell id="CL8gz4CZqGIyAP5-wHCN-82" style="edgeStyle=orthogonalEdgeStyle;rounded=0;orthogonalLoop=1;jettySize=auto;html=1;curved=0;exitX=0.5;exitY=0.82;exitDx=0;exitDy=0;exitPerimeter=0;" edge="1" parent="CL8gz4CZqGIyAP5-wHCN-2">
          <mxGeometry relative="1" as="geometry">
            <mxPoint x="312" y="1759.2799999999988" as="sourcePoint" />
            <mxPoint x="309.6428571428569" y="1788.1428571428569" as="targetPoint" />
            <Array as="points">
              <mxPoint x="509" y="1759" />
              <mxPoint x="509" y="1788" />
            </Array>
          </mxGeometry>
        </mxCell>
        <mxCell id="CL8gz4CZqGIyAP5-wHCN-83" value="Consulta informacion del cliente" style="edgeLabel;html=1;align=center;verticalAlign=middle;resizable=0;points=[];labelBackgroundColor=none;" vertex="1" connectable="0" parent="CL8gz4CZqGIyAP5-wHCN-82">
          <mxGeometry x="-0.0246" y="2" relative="1" as="geometry">
            <mxPoint x="-89" y="38" as="offset" />
          </mxGeometry>
        </mxCell>
        <mxCell id="CL8gz4CZqGIyAP5-wHCN-84" style="edgeStyle=orthogonalEdgeStyle;rounded=0;orthogonalLoop=1;jettySize=auto;html=1;curved=0;exitX=0.496;exitY=0.868;exitDx=0;exitDy=0;exitPerimeter=0;" edge="1" parent="CL8gz4CZqGIyAP5-wHCN-2">
          <mxGeometry relative="1" as="geometry">
            <Array as="points">
              <mxPoint x="728" y="1854" />
              <mxPoint x="728" y="1854" />
            </Array>
            <mxPoint x="615.8559999999998" y="1854.3919999999998" as="sourcePoint" />
            <mxPoint x="787.5" y="1854.3919999999998" as="targetPoint" />
          </mxGeometry>
        </mxCell>
        <mxCell id="CL8gz4CZqGIyAP5-wHCN-85" value="&lt;span style=&quot;&quot;&gt;EnvÃ­a solicitud de peticiÃ³n&amp;nbsp;&lt;/span&gt;&lt;div style=&quot;&quot;&gt;de consulta&lt;/div&gt;" style="edgeLabel;html=1;align=center;verticalAlign=middle;resizable=0;points=[];labelBackgroundColor=none;" vertex="1" connectable="0" parent="CL8gz4CZqGIyAP5-wHCN-84">
          <mxGeometry x="-0.3279" relative="1" as="geometry">
            <mxPoint x="34" y="-16" as="offset" />
          </mxGeometry>
        </mxCell>
        <mxCell id="CL8gz4CZqGIyAP5-wHCN-86" style="edgeStyle=orthogonalEdgeStyle;rounded=0;orthogonalLoop=1;jettySize=auto;html=1;curved=0;exitX=0.501;exitY=0.945;exitDx=0;exitDy=0;exitPerimeter=0;entryX=0.498;entryY=0.957;entryDx=0;entryDy=0;entryPerimeter=0;" edge="1" parent="CL8gz4CZqGIyAP5-wHCN-2">
          <mxGeometry relative="1" as="geometry">
            <mxPoint x="311.19000000000005" y="2189.630000000001" as="sourcePoint" />
            <mxPoint x="310.6199999999999" y="2215.238000000001" as="targetPoint" />
            <Array as="points">
              <mxPoint x="358" y="2190" />
              <mxPoint x="428" y="2190" />
              <mxPoint x="428" y="2215" />
            </Array>
          </mxGeometry>
        </mxCell>
        <mxCell id="CL8gz4CZqGIyAP5-wHCN-87" value="&lt;div&gt;&lt;br&gt;&lt;/div&gt;Valida BIN Excento de comision" style="edgeLabel;html=1;align=left;verticalAlign=middle;resizable=0;points=[];labelBackgroundColor=none;" vertex="1" connectable="0" parent="CL8gz4CZqGIyAP5-wHCN-86">
          <mxGeometry x="-0.0246" y="2" relative="1" as="geometry">
            <mxPoint x="-92" y="-1003" as="offset" />
          </mxGeometry>
        </mxCell>
        <mxCell id="CL8gz4CZqGIyAP5-wHCN-88" value="ExcepciÃ³n de&amp;nbsp;&lt;div style=&quot;font-size: 8px;&quot;&gt;pago de comisiÃ³n&amp;nbsp;&lt;div style=&quot;font-size: 8px;&quot;&gt;&lt;/div&gt;&lt;/div&gt;" style="edgeLabel;html=1;align=left;verticalAlign=middle;resizable=0;points=[];labelBackgroundColor=none;fontSize=8;" vertex="1" connectable="0" parent="CL8gz4CZqGIyAP5-wHCN-86">
          <mxGeometry x="-0.0246" y="2" relative="1" as="geometry">
            <mxPoint x="-198" y="-1029" as="offset" />
          </mxGeometry>
        </mxCell>
        <mxCell id="CL8gz4CZqGIyAP5-wHCN-89" value="" style="html=1;points=[[0,0,0,0,5],[0,1,0,0,-5],[1,0,0,0,5],[1,1,0,0,-5]];perimeter=orthogonalPerimeter;outlineConnect=0;targetShapes=umlLifeline;portConstraint=eastwest;newEdgeStyle={&quot;curved&quot;:0,&quot;rounded&quot;:0};labelBackgroundColor=#E8A6A6;fillColor=default;strokeColor=default;" vertex="1" parent="CL8gz4CZqGIyAP5-wHCN-2">
          <mxGeometry x="612" y="1811" width="10" height="144" as="geometry" />
        </mxCell>
        <mxCell id="CL8gz4CZqGIyAP5-wHCN-90" value="&lt;font style=&quot;font-size: 15px;&quot;&gt;alt&lt;/font&gt;" style="shape=umlFrame;whiteSpace=wrap;html=1;pointerEvents=0;" vertex="1" parent="CL8gz4CZqGIyAP5-wHCN-2">
          <mxGeometry x="230" y="1105" width="360.75" height="507" as="geometry" />
        </mxCell>
        <mxCell id="CL8gz4CZqGIyAP5-wHCN-91" value="&lt;div style=&quot;font-size: 10px;&quot;&gt;&lt;div style=&quot;forced-color-adjust: none; color: rgb(0, 0, 0); font-family: Helvetica; font-style: normal; font-variant-ligatures: normal; font-variant-caps: normal; font-weight: 400; letter-spacing: normal; orphans: 2; text-indent: 0px; text-transform: none; widows: 2; word-spacing: 0px; -webkit-text-stroke-width: 0px; white-space: nowrap; text-decoration-thickness: initial; text-decoration-style: initial; text-decoration-color: initial; font-size: 10px;&quot;&gt;&lt;span style=&quot;forced-color-adjust: none; color: rgb(33, 37, 41); font-family: Santander, sans-serif; text-wrap: wrap; font-size: 10px;&quot;&gt;[API PLARD -&amp;nbsp;&lt;/span&gt;&lt;span style=&quot;color: rgb(33, 37, 41); font-family: Santander, sans-serif; text-wrap: wrap; font-size: 10px;&quot;&gt;Life Cycle services]&lt;/span&gt;&lt;/div&gt;&lt;div style=&quot;forced-color-adjust: none; color: rgb(0, 0, 0); font-family: Helvetica; font-style: normal; font-variant-ligatures: normal; font-variant-caps: normal; letter-spacing: normal; orphans: 2; text-indent: 0px; text-transform: none; widows: 2; word-spacing: 0px; -webkit-text-stroke-width: 0px; white-space: nowrap; text-decoration-thickness: initial; text-decoration-style: initial; text-decoration-color: initial; font-size: 10px;&quot;&gt;&lt;span style=&quot;forced-color-adjust: none; text-wrap: wrap; font-size: 10px;&quot;&gt;&lt;font style=&quot;forced-color-adjust: none; font-size: 10px;&quot; color=&quot;#212529&quot; face=&quot;Santander, sans-serif&quot;&gt;&lt;div style=&quot;forced-color-adjust: none; font-size: 10px;&quot;&gt;&lt;b style=&quot;font-size: 10px;&quot;&gt;GET /v3/devices/details&lt;/b&gt;&lt;/div&gt;&lt;/font&gt;&lt;/span&gt;&lt;/div&gt;&lt;/div&gt;" style="text;whiteSpace=wrap;html=1;align=center;fontSize=10;labelBackgroundColor=none;" vertex="1" parent="CL8gz4CZqGIyAP5-wHCN-2">
          <mxGeometry x="1140.62" y="1858.25" width="160.75" height="35" as="geometry" />
        </mxCell>
        <mxCell id="CL8gz4CZqGIyAP5-wHCN-92" value="Consulta trx LMM8" style="edgeLabel;html=1;align=center;verticalAlign=middle;resizable=0;points=[];labelBackgroundColor=none;" vertex="1" connectable="0" parent="CL8gz4CZqGIyAP5-wHCN-2">
          <mxGeometry x="1574.9981498247325" y="1999.2535497588342" as="geometry">
            <mxPoint y="3" as="offset" />
          </mxGeometry>
        </mxCell>
        <mxCell id="CL8gz4CZqGIyAP5-wHCN-93" value="Valida informacion de tarjeta" style="edgeLabel;html=1;align=center;verticalAlign=middle;resizable=0;points=[];labelBackgroundColor=none;" vertex="1" connectable="0" parent="CL8gz4CZqGIyAP5-wHCN-2">
          <mxGeometry x="415" y="1750.0033263956648" as="geometry" />
        </mxCell>
        <mxCell id="CL8gz4CZqGIyAP5-wHCN-94" value="Obtiene informacion del cliente" style="edgeLabel;html=1;align=center;verticalAlign=middle;resizable=0;points=[];fontColor=default;" vertex="1" connectable="0" parent="CL8gz4CZqGIyAP5-wHCN-2">
          <mxGeometry x="459.9920735861583" y="2066.998801330854" as="geometry">
            <mxPoint x="10" y="2" as="offset" />
          </mxGeometry>
        </mxCell>
        <mxCell id="CL8gz4CZqGIyAP5-wHCN-95" value="Valida informaciÃ³n del Cliente&amp;nbsp;" style="edgeLabel;html=1;align=center;verticalAlign=middle;resizable=0;points=[];labelBackgroundColor=none;" vertex="1" connectable="0" parent="CL8gz4CZqGIyAP5-wHCN-2">
          <mxGeometry x="405.9966666666666" y="2179.9966662332026" as="geometry" />
        </mxCell>
        <mxCell id="CL8gz4CZqGIyAP5-wHCN-96" value="&lt;h1 style=&quot;margin-top: 0px; font-size: 11px;&quot;&gt;&lt;font style=&quot;font-size: 11px;&quot;&gt;else&lt;/font&gt;&lt;/h1&gt;&lt;h1 style=&quot;margin-top: 0px; font-size: 11px;&quot;&gt;&lt;br style=&quot;font-size: 11px;&quot;&gt;&lt;/h1&gt;" style="text;html=1;whiteSpace=wrap;overflow=hidden;rounded=0;fontSize=11;" vertex="1" parent="CL8gz4CZqGIyAP5-wHCN-2">
          <mxGeometry x="219" y="945.5" width="49.25" height="29.5" as="geometry" />
        </mxCell>
        <mxCell id="CL8gz4CZqGIyAP5-wHCN-97" value="&lt;span style=&quot;&quot;&gt;Consulta trx LMCH&lt;/span&gt;" style="edgeLabel;html=1;align=center;verticalAlign=middle;resizable=0;points=[];labelBackgroundColor=none;" vertex="1" connectable="0" parent="CL8gz4CZqGIyAP5-wHCN-2">
          <mxGeometry x="1574.996155214033" y="982.2547344081875" as="geometry" />
        </mxCell>
        <mxCell id="CL8gz4CZqGIyAP5-wHCN-98" value="" style="html=1;points=[[0,0,0,0,5],[0,1,0,0,-5],[1,0,0,0,5],[1,1,0,0,-5]];perimeter=orthogonalPerimeter;outlineConnect=0;targetShapes=umlLifeline;portConstraint=eastwest;newEdgeStyle={&quot;curved&quot;:0,&quot;rounded&quot;:0};labelBackgroundColor=#E8A6A6;" vertex="1" parent="CL8gz4CZqGIyAP5-wHCN-2">
          <mxGeometry x="1481" y="982.75" width="10" height="92" as="geometry" />
        </mxCell>
        <mxCell id="CL8gz4CZqGIyAP5-wHCN-99" value="&lt;font style=&quot;font-size: 14px;&quot;&gt;alt&lt;/font&gt;" style="shape=umlFrame;whiteSpace=wrap;html=1;pointerEvents=0;" vertex="1" parent="CL8gz4CZqGIyAP5-wHCN-2">
          <mxGeometry x="10" y="604" width="1770" height="1543" as="geometry" />
        </mxCell>
        <mxCell id="CL8gz4CZqGIyAP5-wHCN-100" style="edgeStyle=orthogonalEdgeStyle;rounded=0;orthogonalLoop=1;jettySize=auto;html=1;curved=0;exitX=0.502;exitY=0.318;exitDx=0;exitDy=0;exitPerimeter=0;" edge="1" parent="CL8gz4CZqGIyAP5-wHCN-2">
          <mxGeometry relative="1" as="geometry">
            <mxPoint x="309.3800000000001" y="677.3719999999994" as="sourcePoint" />
            <mxPoint x="306.6428571428569" y="728" as="targetPoint" />
            <Array as="points">
              <mxPoint x="510" y="677" />
              <mxPoint x="510" y="728" />
            </Array>
          </mxGeometry>
        </mxCell>
        <mxCell id="CL8gz4CZqGIyAP5-wHCN-101" style="edgeStyle=orthogonalEdgeStyle;rounded=0;orthogonalLoop=1;jettySize=auto;html=1;curved=0;" edge="1" parent="CL8gz4CZqGIyAP5-wHCN-2">
          <mxGeometry relative="1" as="geometry">
            <mxPoint x="309.1666666666665" y="389" as="sourcePoint" />
            <mxPoint x="309.1666666666665" y="429" as="targetPoint" />
            <Array as="points">
              <mxPoint x="505" y="389" />
              <mxPoint x="505" y="429" />
            </Array>
          </mxGeometry>
        </mxCell>
        <mxCell id="CL8gz4CZqGIyAP5-wHCN-102" value="Valida BIN de la&amp;nbsp;&lt;span style=&quot;background-color: initial;&quot;&gt;Tarjeta&lt;/span&gt;&lt;div&gt;[6 DIGITOS INICIO]&lt;/div&gt;" style="edgeLabel;html=1;align=center;verticalAlign=middle;resizable=0;points=[];labelBackgroundColor=none;" vertex="1" connectable="0" parent="CL8gz4CZqGIyAP5-wHCN-101">
          <mxGeometry x="-0.0083" y="-2" relative="1" as="geometry">
            <mxPoint x="-90" y="-33" as="offset" />
          </mxGeometry>
        </mxCell>
        <mxCell id="CL8gz4CZqGIyAP5-wHCN-103" value="alt" style="shape=umlFrame;whiteSpace=wrap;html=1;pointerEvents=0;width=60;height=30;" vertex="1" parent="CL8gz4CZqGIyAP5-wHCN-2">
          <mxGeometry x="210" y="1681" width="1550" height="447" as="geometry" />
        </mxCell>
        <mxCell id="CL8gz4CZqGIyAP5-wHCN-104" value="" style="endArrow=none;dashed=1;html=1;rounded=0;exitX=0.002;exitY=0.7;exitDx=0;exitDy=0;exitPerimeter=0;entryX=1;entryY=0.669;entryDx=0;entryDy=0;entryPerimeter=0;" edge="1" parent="CL8gz4CZqGIyAP5-wHCN-2" target="CL8gz4CZqGIyAP5-wHCN-103">
          <mxGeometry width="50" height="50" relative="1" as="geometry">
            <mxPoint x="212.7199999999998" y="1976" as="sourcePoint" />
            <mxPoint x="1570" y="1978.8199999999997" as="targetPoint" />
          </mxGeometry>
        </mxCell>
        <mxCell id="CL8gz4CZqGIyAP5-wHCN-105" value="" style="endArrow=none;dashed=1;html=1;rounded=0;exitX=0.001;exitY=0.312;exitDx=0;exitDy=0;exitPerimeter=0;entryX=0.999;entryY=0.318;entryDx=0;entryDy=0;entryPerimeter=0;" edge="1" parent="CL8gz4CZqGIyAP5-wHCN-2" source="CL8gz4CZqGIyAP5-wHCN-72" target="CL8gz4CZqGIyAP5-wHCN-72">
          <mxGeometry width="50" height="50" relative="1" as="geometry">
            <mxPoint x="210" y="944.1039999999994" as="sourcePoint" />
            <mxPoint x="1570" y="944.1039999999994" as="targetPoint" />
            <Array as="points">
              <mxPoint x="730" y="944" />
            </Array>
          </mxGeometry>
        </mxCell>
        <mxCell id="CL8gz4CZqGIyAP5-wHCN-106" value="Valida BIN&amp;nbsp;" style="edgeLabel;html=1;align=center;verticalAlign=middle;resizable=0;points=[];labelBackgroundColor=none;" vertex="1" connectable="0" parent="CL8gz4CZqGIyAP5-wHCN-2">
          <mxGeometry x="400" y="661.9966628646362" as="geometry">
            <mxPoint x="1" y="2" as="offset" />
          </mxGeometry>
        </mxCell>
        <mxCell id="CL8gz4CZqGIyAP5-wHCN-107" value="" style="endArrow=none;dashed=1;html=1;rounded=0;exitX=0;exitY=0.717;exitDx=0;exitDy=0;exitPerimeter=0;entryX=1.001;entryY=0.717;entryDx=0;entryDy=0;entryPerimeter=0;" edge="1" parent="CL8gz4CZqGIyAP5-wHCN-2">
          <mxGeometry width="50" height="50" relative="1" as="geometry">
            <mxPoint x="230" y="1489.5190000000002" as="sourcePoint" />
            <mxPoint x="591.1107499999998" y="1489.5190000000002" as="targetPoint" />
          </mxGeometry>
        </mxCell>
        <mxCell id="CL8gz4CZqGIyAP5-wHCN-108" style="edgeStyle=orthogonalEdgeStyle;rounded=0;orthogonalLoop=1;jettySize=auto;html=1;curved=0;" edge="1" parent="CL8gz4CZqGIyAP5-wHCN-2">
          <mxGeometry relative="1" as="geometry">
            <mxPoint x="309.1666666666665" y="313" as="sourcePoint" />
            <mxPoint x="309.1666666666665" y="353" as="targetPoint" />
            <Array as="points">
              <mxPoint x="505" y="313" />
              <mxPoint x="505" y="353" />
            </Array>
          </mxGeometry>
        </mxCell>
        <mxCell id="CL8gz4CZqGIyAP5-wHCN-109" style="edgeStyle=orthogonalEdgeStyle;rounded=0;orthogonalLoop=1;jettySize=auto;html=1;curved=0;" edge="1" parent="CL8gz4CZqGIyAP5-wHCN-2">
          <mxGeometry relative="1" as="geometry">
            <mxPoint x="309.1666666666665" y="524" as="sourcePoint" />
            <mxPoint x="309.1666666666665" y="554" as="targetPoint" />
            <Array as="points">
              <mxPoint x="510" y="524" />
              <mxPoint x="510" y="554" />
            </Array>
          </mxGeometry>
        </mxCell>
        <mxCell id="CL8gz4CZqGIyAP5-wHCN-110" value="Valida origen de la tarjeta" style="edgeLabel;html=1;align=center;verticalAlign=middle;resizable=0;points=[];labelBackgroundColor=none;" vertex="1" connectable="0" parent="CL8gz4CZqGIyAP5-wHCN-109">
          <mxGeometry x="-0.0246" y="2" relative="1" as="geometry">
            <mxPoint x="-94" y="-18" as="offset" />
          </mxGeometry>
        </mxCell>
        <mxCell id="CL8gz4CZqGIyAP5-wHCN-111" style="edgeStyle=orthogonalEdgeStyle;rounded=0;orthogonalLoop=1;jettySize=auto;html=1;curved=0;" edge="1" parent="CL8gz4CZqGIyAP5-wHCN-2">
          <mxGeometry relative="1" as="geometry">
            <mxPoint x="309.1666666666665" y="468" as="sourcePoint" />
            <mxPoint x="309.1666666666665" y="498" as="targetPoint" />
            <Array as="points">
              <mxPoint x="510" y="468" />
              <mxPoint x="510" y="498" />
            </Array>
          </mxGeometry>
        </mxCell>
        <mxCell id="CL8gz4CZqGIyAP5-wHCN-112" value="Consulta tabla de BINES&lt;div&gt;(Actualizacion diaria&amp;nbsp;&lt;span style=&quot;background-color: initial;&quot;&gt;Proceso manual)&lt;/span&gt;&lt;/div&gt;" style="edgeLabel;html=1;align=center;verticalAlign=middle;resizable=0;points=[];labelBackgroundColor=none;" vertex="1" connectable="0" parent="CL8gz4CZqGIyAP5-wHCN-111">
          <mxGeometry x="-0.0246" y="2" relative="1" as="geometry">
            <mxPoint x="-94" y="-25" as="offset" />
          </mxGeometry>
        </mxCell>
        <mxCell id="CL8gz4CZqGIyAP5-wHCN-113" value="&lt;span style=&quot;color: rgb(0, 0, 0); font-family: Helvetica; font-size: 11px; font-style: normal; font-variant-ligatures: normal; font-variant-caps: normal; font-weight: 400; letter-spacing: normal; orphans: 2; text-indent: 0px; text-transform: none; widows: 2; word-spacing: 0px; -webkit-text-stroke-width: 0px; white-space: nowrap; background-color: rgb(251, 251, 251); text-decoration-thickness: initial; text-decoration-style: initial; text-decoration-color: initial; float: none; display: inline !important;&quot;&gt;Consulta API PLARD&amp;nbsp;&lt;/span&gt;" style="text;whiteSpace=wrap;html=1;align=center;" vertex="1" parent="CL8gz4CZqGIyAP5-wHCN-2">
          <mxGeometry x="1149" y="1827.25" width="140" height="23" as="geometry" />
        </mxCell>
        <mxCell id="CL8gz4CZqGIyAP5-wHCN-114" value="TARJETA SANTANDER&amp;nbsp;&lt;div style=&quot;font-size: 6px;&quot;&gt;INTERNACIONAL&amp;nbsp;&lt;/div&gt;" style="edgeLabel;html=1;align=center;verticalAlign=middle;resizable=0;points=[];labelBackgroundColor=none;fontSize=6;" vertex="1" connectable="0" parent="CL8gz4CZqGIyAP5-wHCN-2">
          <mxGeometry x="46.63" y="652.996666666666" as="geometry" />
        </mxCell>
        <mxCell id="CL8gz4CZqGIyAP5-wHCN-115" value="&lt;div&gt;BIN == PLARD&lt;/div&gt;" style="edgeLabel;html=1;align=center;verticalAlign=middle;resizable=0;points=[];labelBackgroundColor=none;" vertex="1" connectable="0" parent="CL8gz4CZqGIyAP5-wHCN-2">
          <mxGeometry x="241.16" y="559.9966628646362" as="geometry">
            <mxPoint x="12" y="113" as="offset" />
          </mxGeometry>
        </mxCell>
        <mxCell id="CL8gz4CZqGIyAP5-wHCN-116" value="TARJETA SANTANDER&amp;nbsp;&lt;div&gt;NACIONAL&lt;/div&gt;" style="edgeLabel;html=1;align=center;verticalAlign=middle;resizable=0;points=[];labelBackgroundColor=none;fontSize=6;" vertex="1" connectable="0" parent="CL8gz4CZqGIyAP5-wHCN-2">
          <mxGeometry x="46.629999999999995" y="1692.996666666666" as="geometry">
            <mxPoint x="-1" y="2" as="offset" />
          </mxGeometry>
        </mxCell>
        <mxCell id="CL8gz4CZqGIyAP5-wHCN-117" value="&lt;h1 style=&quot;margin-top: 0px; font-size: 11px;&quot;&gt;&lt;font style=&quot;font-size: 11px;&quot;&gt;else&lt;/font&gt;&lt;/h1&gt;&lt;h1 style=&quot;margin-top: 0px; font-size: 11px;&quot;&gt;&lt;br style=&quot;font-size: 11px;&quot;&gt;&lt;/h1&gt;" style="text;html=1;whiteSpace=wrap;overflow=hidden;rounded=0;fontSize=11;" vertex="1" parent="CL8gz4CZqGIyAP5-wHCN-2">
          <mxGeometry x="241.16" y="1491.25" width="49.25" height="29.5" as="geometry" />
        </mxCell>
        <mxCell id="CL8gz4CZqGIyAP5-wHCN-118" value="&lt;h1 style=&quot;margin-top: 0px; font-size: 11px;&quot;&gt;&lt;font style=&quot;font-size: 11px;&quot;&gt;else&lt;/font&gt;&lt;/h1&gt;&lt;h1 style=&quot;margin-top: 0px; font-size: 11px;&quot;&gt;&lt;br style=&quot;font-size: 11px;&quot;&gt;&lt;/h1&gt;" style="text;html=1;whiteSpace=wrap;overflow=hidden;rounded=0;fontSize=11;" vertex="1" parent="CL8gz4CZqGIyAP5-wHCN-2">
          <mxGeometry x="22.00999999999997" y="1659" width="49.25" height="29.5" as="geometry" />
        </mxCell>
        <mxCell id="CL8gz4CZqGIyAP5-wHCN-119" value="&lt;h1 style=&quot;margin-top: 0px; font-size: 11px;&quot;&gt;&lt;font style=&quot;font-size: 11px;&quot;&gt;else&lt;/font&gt;&lt;/h1&gt;&lt;h1 style=&quot;margin-top: 0px; font-size: 11px;&quot;&gt;&lt;br style=&quot;font-size: 11px;&quot;&gt;&lt;/h1&gt;" style="text;html=1;whiteSpace=wrap;overflow=hidden;rounded=0;fontSize=11;" vertex="1" parent="CL8gz4CZqGIyAP5-wHCN-2">
          <mxGeometry x="218.99999999999997" y="1984.25" width="49.25" height="29.5" as="geometry" />
        </mxCell>
        <mxCell id="CL8gz4CZqGIyAP5-wHCN-120" style="edgeStyle=orthogonalEdgeStyle;rounded=0;orthogonalLoop=1;jettySize=auto;html=1;curved=0;entryX=0.503;entryY=0.853;entryDx=0;entryDy=0;entryPerimeter=0;" edge="1" parent="CL8gz4CZqGIyAP5-wHCN-2">
          <mxGeometry relative="1" as="geometry">
            <mxPoint x="301.97368421052624" y="1818.21052631579" as="sourcePoint" />
            <mxPoint x="613.9829999999997" y="1818.232" as="targetPoint" />
            <Array as="points">
              <mxPoint x="585" y="1818" />
            </Array>
          </mxGeometry>
        </mxCell>
        <mxCell id="CL8gz4CZqGIyAP5-wHCN-121" value="&lt;div&gt;&lt;br&gt;&lt;/div&gt;" style="edgeLabel;html=1;align=left;verticalAlign=middle;resizable=0;points=[];labelBackgroundColor=#FFD966;" vertex="1" connectable="0" parent="CL8gz4CZqGIyAP5-wHCN-120">
          <mxGeometry x="-0.0246" y="2" relative="1" as="geometry">
            <mxPoint x="-71" y="-20" as="offset" />
          </mxGeometry>
        </mxCell>
        <mxCell id="CL8gz4CZqGIyAP5-wHCN-122" style="edgeStyle=orthogonalEdgeStyle;rounded=0;orthogonalLoop=1;jettySize=auto;html=1;curved=0;exitX=0.502;exitY=0.389;exitDx=0;exitDy=0;exitPerimeter=0;entryX=0.506;entryY=0.389;entryDx=0;entryDy=0;entryPerimeter=0;" edge="1" parent="CL8gz4CZqGIyAP5-wHCN-2">
          <mxGeometry relative="1" as="geometry">
            <mxPoint x="613.8220000000001" y="812.2160000000003" as="sourcePoint" />
            <mxPoint x="785.96" y="812.2160000000003" as="targetPoint" />
            <Array as="points" />
          </mxGeometry>
        </mxCell>
        <mxCell id="CL8gz4CZqGIyAP5-wHCN-123" value="" style="html=1;points=[[0,0,0,0,5],[0,1,0,0,-5],[1,0,0,0,5],[1,1,0,0,-5]];perimeter=orthogonalPerimeter;outlineConnect=0;targetShapes=umlLifeline;portConstraint=eastwest;newEdgeStyle={&quot;curved&quot;:0,&quot;rounded&quot;:0};labelBackgroundColor=#E8A6A6;fillColor=default;strokeColor=default;" vertex="1" parent="CL8gz4CZqGIyAP5-wHCN-2">
          <mxGeometry x="614" y="764" width="10" height="170" as="geometry" />
        </mxCell>
        <mxCell id="CL8gz4CZqGIyAP5-wHCN-124" value="" style="html=1;verticalAlign=bottom;endArrow=block;curved=0;rounded=0;labelBackgroundColor=none;" edge="1" parent="CL8gz4CZqGIyAP5-wHCN-2" source="CL8gz4CZqGIyAP5-wHCN-127">
          <mxGeometry x="0.0021" width="80" relative="1" as="geometry">
            <mxPoint x="297.6428571428569" y="775.5" as="sourcePoint" />
            <mxPoint x="618.5" y="775.5" as="targetPoint" />
            <mxPoint as="offset" />
          </mxGeometry>
        </mxCell>
        <mxCell id="CL8gz4CZqGIyAP5-wHCN-125" value="&lt;span data-teams=&quot;true&quot;&gt;[API TBD]&amp;nbsp;&lt;/span&gt;" style="edgeLabel;html=1;align=center;verticalAlign=middle;resizable=0;points=[];labelBackgroundColor=none;fontStyle=1" vertex="1" connectable="0" parent="CL8gz4CZqGIyAP5-wHCN-2">
          <mxGeometry x="1213.0004347826086" y="859.25" as="geometry">
            <mxPoint x="5" y="-3" as="offset" />
          </mxGeometry>
        </mxCell>
        <mxCell id="CL8gz4CZqGIyAP5-wHCN-126" value="&lt;div&gt;BIN == PLARD&lt;/div&gt;" style="edgeLabel;html=1;align=center;verticalAlign=middle;resizable=0;points=[];labelBackgroundColor=none;" vertex="1" connectable="0" parent="CL8gz4CZqGIyAP5-wHCN-2">
          <mxGeometry x="241.16" y="1620.9966628646362" as="geometry">
            <mxPoint x="12" y="113" as="offset" />
          </mxGeometry>
        </mxCell>
        <mxCell id="CL8gz4CZqGIyAP5-wHCN-127" value="" style="html=1;points=[[0,0,0,0,5],[0,1,0,0,-5],[1,0,0,0,5],[1,1,0,0,-5]];perimeter=orthogonalPerimeter;outlineConnect=0;targetShapes=umlLifeline;portConstraint=eastwest;newEdgeStyle={&quot;curved&quot;:0,&quot;rounded&quot;:0};" vertex="1" parent="CL8gz4CZqGIyAP5-wHCN-2">
          <mxGeometry x="299.99999999999994" y="171" width="10" height="2062.5" as="geometry" />
        </mxCell>
        <mxCell id="CL8gz4CZqGIyAP5-wHCN-128" value="EnvÃ­a respuesta con&amp;nbsp;&lt;div&gt;informaciÃ³n de RIBs&lt;/div&gt;" style="edgeLabel;html=1;align=center;verticalAlign=middle;resizable=0;points=[];fontColor=default;labelBackgroundColor=none;" vertex="1" connectable="0" parent="CL8gz4CZqGIyAP5-wHCN-2">
          <mxGeometry x="880.3515458899659" y="910.003847308024" as="geometry" />
        </mxCell>
        <mxCell id="CL8gz4CZqGIyAP5-wHCN-129" value="EnvÃ­a respuesta con&amp;nbsp;&lt;div&gt;informaciÃ³n de RIBs&lt;/div&gt;" style="edgeLabel;html=1;align=center;verticalAlign=middle;resizable=0;points=[];fontColor=default;labelBackgroundColor=none;" vertex="1" connectable="0" parent="CL8gz4CZqGIyAP5-wHCN-2">
          <mxGeometry x="709.9915458899659" y="903.003847308024" as="geometry">
            <mxPoint x="-10" y="5" as="offset" />
          </mxGeometry>
        </mxCell>
        <mxCell id="CL8gz4CZqGIyAP5-wHCN-130" value="EnvÃ­a solicitud de peticiÃ³n&amp;nbsp;&lt;span style=&quot;background-color: initial;&quot;&gt;de consulta&lt;/span&gt;" style="edgeLabel;html=1;align=center;verticalAlign=middle;resizable=0;points=[];labelBackgroundColor=none;" vertex="1" connectable="0" parent="CL8gz4CZqGIyAP5-wHCN-2">
          <mxGeometry x="1057.616155214033" y="984.7547344081868" as="geometry" />
        </mxCell>
        <mxCell id="CL8gz4CZqGIyAP5-wHCN-131" value="EnvÃ­a respuesta con&amp;nbsp;&lt;div&gt;informaciÃ³n de RIBs&lt;/div&gt;" style="edgeLabel;html=1;align=center;verticalAlign=middle;resizable=0;points=[];fontColor=default;labelBackgroundColor=none;" vertex="1" connectable="0" parent="CL8gz4CZqGIyAP5-wHCN-2">
          <mxGeometry x="1574.9962365864235" y="1045.2534699123116" as="geometry" />
        </mxCell>
        <mxCell id="CL8gz4CZqGIyAP5-wHCN-132" value="EnvÃ­a respuesta con&amp;nbsp;&lt;span style=&quot;background-color: initial;&quot;&gt;informaciÃ³n de RIBs&lt;/span&gt;" style="edgeLabel;html=1;align=center;verticalAlign=middle;resizable=0;points=[];fontColor=default;labelBackgroundColor=none;" vertex="1" connectable="0" parent="CL8gz4CZqGIyAP5-wHCN-2">
          <mxGeometry x="1197.6162365864234" y="1060.0034699123116" as="geometry">
            <mxPoint x="4" y="-8" as="offset" />
          </mxGeometry>
        </mxCell>
        <mxCell id="CL8gz4CZqGIyAP5-wHCN-133" value="" style="html=1;points=[[0,0,0,0,5],[0,1,0,0,-5],[1,0,0,0,5],[1,1,0,0,-5]];perimeter=orthogonalPerimeter;outlineConnect=0;targetShapes=umlLifeline;portConstraint=eastwest;newEdgeStyle={&quot;curved&quot;:0,&quot;rounded&quot;:0};labelBackgroundColor=#E8A6A6;" vertex="1" parent="CL8gz4CZqGIyAP5-wHCN-2">
          <mxGeometry x="1305" y="1847.25" width="10" height="113.75" as="geometry" />
        </mxCell>
        <mxCell id="CL8gz4CZqGIyAP5-wHCN-134" value="&lt;span style=&quot;&quot;&gt;EnvÃ­a solicitud de peticiÃ³n&amp;nbsp;&lt;/span&gt;&lt;div style=&quot;&quot;&gt;de consulta&lt;/div&gt;" style="edgeLabel;html=1;align=center;verticalAlign=middle;resizable=0;points=[];labelBackgroundColor=none;" vertex="1" connectable="0" parent="CL8gz4CZqGIyAP5-wHCN-2">
          <mxGeometry x="880.3537714598062" y="1838.4990199308522" as="geometry" />
        </mxCell>
        <mxCell id="CL8gz4CZqGIyAP5-wHCN-135" value="&lt;span style=&quot;&quot;&gt;EnvÃ­a solicitud de peticiÃ³n&amp;nbsp;&lt;/span&gt;&lt;span style=&quot;background-color: initial;&quot;&gt;de consulta&lt;/span&gt;" style="edgeLabel;html=1;align=center;verticalAlign=middle;resizable=0;points=[];labelBackgroundColor=none;" vertex="1" connectable="0" parent="CL8gz4CZqGIyAP5-wHCN-2">
          <mxGeometry x="1057.6137714598062" y="2006.7490199308522" as="geometry" />
        </mxCell>
        <mxCell id="CL8gz4CZqGIyAP5-wHCN-136" value="&lt;span style=&quot;&quot;&gt;EnvÃ­a respuesta con&amp;nbsp;&lt;/span&gt;&lt;span style=&quot;background-color: initial;&quot;&gt;informaciÃ³n del cliente&lt;/span&gt;" style="edgeLabel;html=1;align=center;verticalAlign=middle;resizable=0;points=[];labelBackgroundColor=none;fontColor=default;" vertex="1" connectable="0" parent="CL8gz4CZqGIyAP5-wHCN-2">
          <mxGeometry x="1248.9960757140939" y="2067.2525214326633" as="geometry" />
        </mxCell>
        <mxCell id="CL8gz4CZqGIyAP5-wHCN-137" style="edgeStyle=orthogonalEdgeStyle;rounded=0;orthogonalLoop=1;jettySize=auto;html=1;curved=0;exitX=0.496;exitY=0.906;exitDx=0;exitDy=0;exitPerimeter=0;entryX=0.499;entryY=0.902;entryDx=0;entryDy=0;entryPerimeter=0;dashed=1;dashPattern=8 8;" edge="1" parent="CL8gz4CZqGIyAP5-wHCN-2">
          <mxGeometry relative="1" as="geometry">
            <mxPoint x="1491.838" y="2083.2379999999994" as="targetPoint" />
            <mxPoint x="1676.6019999999999" y="2082.9539999999997" as="sourcePoint" />
            <Array as="points" />
          </mxGeometry>
        </mxCell>
        <mxCell id="CL8gz4CZqGIyAP5-wHCN-138" value="" style="html=1;points=[[0,0,0,0,5],[0,1,0,0,-5],[1,0,0,0,5],[1,1,0,0,-5]];perimeter=orthogonalPerimeter;outlineConnect=0;targetShapes=umlLifeline;portConstraint=eastwest;newEdgeStyle={&quot;curved&quot;:0,&quot;rounded&quot;:0};labelBackgroundColor=#E8A6A6;" vertex="1" parent="CL8gz4CZqGIyAP5-wHCN-2">
          <mxGeometry x="1481" y="2011" width="10" height="80" as="geometry" />
        </mxCell>
        <mxCell id="CL8gz4CZqGIyAP5-wHCN-139" value="" style="html=1;points=[[0,0,0,0,5],[0,1,0,0,-5],[1,0,0,0,5],[1,1,0,0,-5]];perimeter=orthogonalPerimeter;outlineConnect=0;targetShapes=umlLifeline;portConstraint=eastwest;newEdgeStyle={&quot;curved&quot;:0,&quot;rounded&quot;:0};verticalAlign=top;" vertex="1" parent="CL8gz4CZqGIyAP5-wHCN-2">
          <mxGeometry x="1660.25" y="2006.75" width="10" height="88.5" as="geometry" />
        </mxCell>
        <mxCell id="CL8gz4CZqGIyAP5-wHCN-140" value="&lt;span style=&quot;&quot;&gt;EnvÃ­a respuesta con&amp;nbsp;&lt;/span&gt;&lt;div&gt;&lt;span style=&quot;&quot;&gt;informaciÃ³n del cliente&lt;/span&gt;&lt;/div&gt;" style="edgeLabel;html=1;align=center;verticalAlign=middle;resizable=0;points=[];labelBackgroundColor=none;fontColor=default;" vertex="1" connectable="0" parent="CL8gz4CZqGIyAP5-wHCN-2">
          <mxGeometry x="1578.9967624448325" y="2065.2495543282876" as="geometry" />
        </mxCell>
        <mxCell id="CL8gz4CZqGIyAP5-wHCN-141" value="EnvÃ­a solicitud de peticiÃ³n&amp;nbsp;&lt;div&gt;de consulta&lt;/div&gt;" style="edgeLabel;html=1;align=center;verticalAlign=middle;resizable=0;points=[];labelBackgroundColor=none;" vertex="1" connectable="0" parent="CL8gz4CZqGIyAP5-wHCN-2">
          <mxGeometry x="1052.996155214033" y="825.0047344081868" as="geometry" />
        </mxCell>
        <mxCell id="CL8gz4CZqGIyAP5-wHCN-142" value="EnvÃ­a respuesta con&amp;nbsp;&lt;div&gt;informaciÃ³n de RIBs&lt;/div&gt;" style="edgeLabel;html=1;align=center;verticalAlign=middle;resizable=0;points=[];fontColor=default;labelBackgroundColor=none;" vertex="1" connectable="0" parent="CL8gz4CZqGIyAP5-wHCN-2">
          <mxGeometry x="1052.9928206786637" y="910.005948545393" as="geometry" />
        </mxCell>
        <mxCell id="CL8gz4CZqGIyAP5-wHCN-143" value="" style="html=1;points=[[0,0,0,0,5],[0,1,0,0,-5],[1,0,0,0,5],[1,1,0,0,-5]];perimeter=orthogonalPerimeter;outlineConnect=0;targetShapes=umlLifeline;portConstraint=eastwest;newEdgeStyle={&quot;curved&quot;:0,&quot;rounded&quot;:0};labelBackgroundColor=#E8A6A6;fillColor=default;strokeColor=default;" vertex="1" parent="CL8gz4CZqGIyAP5-wHCN-2">
          <mxGeometry x="955.36" y="1845" width="10" height="116" as="geometry" />
        </mxCell>
        <mxCell id="CL8gz4CZqGIyAP5-wHCN-144" style="edgeStyle=orthogonalEdgeStyle;rounded=0;orthogonalLoop=1;jettySize=auto;html=1;curved=0;exitX=0.498;exitY=0.846;exitDx=0;exitDy=0;exitPerimeter=0;entryX=0.501;entryY=0.843;entryDx=0;entryDy=0;entryPerimeter=0;dashed=1;dashPattern=8 8;" edge="1" parent="CL8gz4CZqGIyAP5-wHCN-2">
          <mxGeometry relative="1" as="geometry">
            <mxPoint x="965.7799999999999" y="1944.112000000001" as="targetPoint" />
            <mxPoint x="1128.62" y="1944" as="sourcePoint" />
            <Array as="points" />
          </mxGeometry>
        </mxCell>
        <mxCell id="CL8gz4CZqGIyAP5-wHCN-145" value="Obtiene informaciÃ³n del cliente" style="edgeLabel;html=1;align=center;verticalAlign=middle;resizable=0;points=[];fontColor=default;labelBackgroundColor=none;" vertex="1" connectable="0" parent="CL8gz4CZqGIyAP5-wHCN-144">
          <mxGeometry x="0.3975" y="1" relative="1" as="geometry">
            <mxPoint x="30" y="-12" as="offset" />
          </mxGeometry>
        </mxCell>
        <mxCell id="CL8gz4CZqGIyAP5-wHCN-146" value="&lt;span style=&quot;&quot;&gt;EnvÃ­a solicitud de peticiÃ³n&amp;nbsp;&lt;/span&gt;&lt;div style=&quot;&quot;&gt;de consulta&lt;/div&gt;" style="edgeLabel;html=1;align=center;verticalAlign=middle;resizable=0;points=[];labelBackgroundColor=none;" vertex="1" connectable="0" parent="CL8gz4CZqGIyAP5-wHCN-2">
          <mxGeometry x="1049.0037714598063" y="1838.4990199308522" as="geometry" />
        </mxCell>
        <mxCell id="CL8gz4CZqGIyAP5-wHCN-147" value="MODELO FUNCIONAL DE SECUENCIA - PLARD: FUNCIONALIDAD 1" style="rounded=0;whiteSpace=wrap;html=1;align=center;fillColor=#FFFFFF;strokeColor=default;fontColor=#000000;fontSize=16;fontStyle=1;labelBackgroundColor=default;" vertex="1" parent="CL8gz4CZqGIyAP5-wHCN-1">
          <mxGeometry x="11" y="9057" width="1799" height="79" as="geometry" />
        </mxCell>
      </root>
    </mxGraphModel>
  </diagram>
</mxfile>
